<?xml version="1.0" encoding="utf-8"?>
<!-- Generator: Adobe Illustrator 23.0.6, SVG Export Plug-In . SVG Version: 6.00 Build 0)  -->
<svg version="1.1" id="Layer_1" xmlns="http://www.w3.org/2000/svg" xmlns:xlink="http://www.w3.org/1999/xlink" x="0px" y="0px"
	 viewBox="0 0 374.3 511.1" style="enable-background:new 0 0 374.3 511.1;" xml:space="preserve">
<style type="text/css">
	.st0{fill:#FDE2DB;}
	.st1{fill:none;stroke:#6E4739;stroke-width:5;stroke-miterlimit:10;}
	.st2{fill:#FAC2B6;}
	.st3{fill:none;stroke:#6E473A;stroke-width:5;stroke-miterlimit:10;}
	.st4{fill:none;stroke:#6E473A;stroke-width:4.6326;stroke-miterlimit:10;}
	.st5{fill:none;stroke:#6E473A;stroke-width:4.6326;stroke-miterlimit:10;stroke-dasharray:13.388,13.388;}
	.st6{enable-background:new    ;}
	.st7{fill:#894F4F;}
</style>
<rect y="0" class="st0" width="374.3" height="511.1"/>
<path class="st1" d="M331.7,42.8C323.1,34.6,320,24,320,24H187.1H54.2c0,0-3.2,10.7-11.7,18.8c-8.6,8.2-17.8,10-17.8,10v202.5v0.5
	v202.5c0,0,9.2,1.9,17.8,10c8.6,8.2,11.7,18.8,11.7,18.8h132.9H320c0,0,3.2-10.7,11.7-18.8c8.6-8.2,17.8-10,17.8-10V255.8v-0.5V52.8
	C349.4,52.8,340.2,50.9,331.7,42.8z"/>
<g>
	<path class="st2" d="M308.7,262c0,3.1-2.6,5.7-5.7,5.7H148.5c-3.1,0-7-1.4-8.7-3.1s-4.2-1.7-5.6,0s-5.2,3.1-8.3,3.1H77.3
		c-3.1,0-5.7-2.6-5.7-5.7V151c0-3.1,2.6-5.7,5.7-5.7h47.3c3.1,0,7,1.5,8.6,3.3s4.2,1.8,5.6,0s5.3-3.3,8.4-3.3H303
		c3.1,0,5.7,2.6,5.7,5.7V262L308.7,262z"/>
	<path class="st3" d="M308.7,262c0,3.1-2.6,5.7-5.7,5.7H148.5c-3.1,0-7-1.4-8.7-3.1s-4.2-1.7-5.6,0s-5.2,3.1-8.3,3.1H77.3
		c-3.1,0-5.7-2.6-5.7-5.7V151c0-3.1,2.6-5.7,5.7-5.7h47.3c3.1,0,7,1.5,8.6,3.3s4.2,1.8,5.6,0s5.3-3.3,8.4-3.3H303
		c3.1,0,5.7,2.6,5.7,5.7V262L308.7,262z"/>
</g>
<g>
	<g>
		<line class="st4" x1="135.2" y1="152.7" x2="135.2" y2="160.2"/>
		<line class="st5" x1="135.2" y1="173.6" x2="135.2" y2="247.3"/>
		<line class="st4" x1="135.2" y1="253.9" x2="135.2" y2="261.5"/>
	</g>
</g>
<g class="st6">
	<path class="st7" d="M170.3,194.9c-0.4,0.2-0.7,0-0.7-0.5V190c3.3-1.5,6.3-3.8,8.7-6.7h7.5v46.9h-7.5v-39.6h-0.1
		C175.8,192.4,172.9,194,170.3,194.9z"/>
	<path class="st7" d="M200.1,206.9c0-17,5.7-24.3,15.6-24.3s15.6,7.3,15.6,24.3c0,17-5.7,24.3-15.6,24.3S200.1,223.9,200.1,206.9z
		 M207.6,206.9c0,12.8,3,18.3,8.1,18.3s8.1-5.5,8.1-18.3c0-12.8-3-18.3-8.1-18.3S207.6,194.1,207.6,206.9z"/>
	<path class="st7" d="M258.2,195.5c0,7.1-3.6,12.4-10.7,12.4c-7.1,0-10.7-5.3-10.7-12.4c0-7.1,3.6-12.4,10.7-12.4
		C254.6,183.2,258.2,188.4,258.2,195.5z M269.5,182.7h7.6L251,231h-7.7L269.5,182.7z M251.3,195.5c0-4.6-1.2-7-3.8-7s-3.8,2.4-3.8,7
		c0,4.6,1.2,7,3.8,7S251.3,200.1,251.3,195.5z M283.7,218.2c0,7.1-3.6,12.4-10.7,12.4s-10.7-5.3-10.7-12.4c0-7.1,3.6-12.4,10.7-12.4
		S283.7,211.1,283.7,218.2z M276.8,218.2c0-4.6-1.2-7-3.8-7s-3.8,2.4-3.8,7c0,4.6,1.2,7,3.8,7S276.8,222.8,276.8,218.2z"/>
</g>
<g class="st6">
	<path class="st7" d="M68.6,353.3c-0.3,0.1-0.5,0-0.5-0.3v-3c2.3-1,4.3-2.6,6-4.6h5.2v32.3h-5.2v-27.3h0
		C72.4,351.6,70.4,352.6,68.6,353.3z"/>
	<path class="st7" d="M89.1,361.5c0-11.7,3.9-16.7,10.8-16.7s10.8,5.1,10.8,16.7c0,11.7-3.9,16.7-10.8,16.7S89.1,373.2,89.1,361.5z
		 M94.3,361.5c0,8.9,2.1,12.6,5.6,12.6s5.6-3.8,5.6-12.6c0-8.9-2.1-12.6-5.6-12.6S94.3,352.7,94.3,361.5z"/>
	<path class="st7" d="M129.2,353.7c0,4.9-2.5,8.5-7.4,8.5s-7.4-3.6-7.4-8.5c0-4.9,2.5-8.5,7.4-8.5S129.2,348.8,129.2,353.7z
		 M137,344.8h5.2l-18,33.3H119L137,344.8z M124.5,353.7c0-3.2-0.8-4.8-2.6-4.8s-2.6,1.7-2.6,4.8s0.8,4.8,2.6,4.8
		S124.5,356.9,124.5,353.7z M146.8,369.3c0,4.9-2.5,8.5-7.4,8.5c-4.9,0-7.4-3.6-7.4-8.5c0-4.9,2.5-8.5,7.4-8.5
		C144.3,360.8,146.8,364.4,146.8,369.3z M142,369.3c0-3.2-0.8-4.8-2.6-4.8c-1.8,0-2.6,1.7-2.6,4.8s0.8,4.8,2.6,4.8
		C141.3,374.1,142,372.5,142,369.3z"/>
	<path class="st7" d="M159.3,351.5V348h23.5v3.5H159.3z M171.2,364c-6.1,0-9.3-2.9-9.3-5.8c0-3,3.2-5.8,9.3-5.8
		c6.1,0,9.3,2.8,9.3,5.8C180.5,361.1,177.2,364,171.2,364z M164.3,346.4v-3.6h13.8v3.6H164.3z M190.6,381.2h-25.3v-9.9h19.4v-1.8
		h-19.4v-4.1h24.5v9.6h-19.3v2.1h20.1V381.2z M171.2,360.5c3,0,4.3-1.2,4.3-2.3c0-1.3-1.2-2.5-4.3-2.5c-3.2,0-4.3,1.1-4.3,2.5
		C166.8,359.4,168,360.5,171.2,360.5z M195.6,356.7h-5.8v7.1h-5.1v-20.9h5.1v9.5h5.8V356.7z"/>
	<path class="st7" d="M197.9,354.5c0-5.8,4.3-10.1,10.2-10.1c6.1,0,10.4,4.3,10.4,10.1c0,5.6-4.3,9.9-10.4,9.9
		S197.9,360.1,197.9,354.5z M203.3,354.5c0,3.4,1.9,5.5,5,5.5c3,0,5-2.1,5-5.5c0-3.6-2-5.8-5-5.8
		C205.2,348.7,203.3,350.9,203.3,354.5z M229.6,380.9h-25.3v-11.9h5.1v7.6h20.2V380.9z M228.8,370.4h-5.1v-27.5h5.1V370.4z"/>
	<path class="st7" d="M247.8,352.9h10.6c3.7,0,6.8-0.1,10.3-0.5c0.1-1.3,0.2-2.5,0.2-3.5h-20.4v-4.3H274c0,5.9-0.8,12.6-1.6,17.6
		h6.6v4.4h-15v14.9h-5.2v-14.9h-15.7v-4.4h24.2c0.3-1.8,0.6-3.8,0.9-5.7c-3.3,0.5-6.8,0.6-10.6,0.6h-9.8V352.9z"/>
	<path class="st7" d="M284.4,359.6v-4.2h5.2l-0.3-6.3h5.2l0.1,6.3h7.4l0.3-6.3h5.1l-0.3,6.3h5.3v4.2h-11.5v3.7h15.8v4.3h-36.6v-4.3
		h15.6v-3.7H284.4z M284.8,348.3V344H312v4.3H284.8z M311.7,381h-25.9V370h5.1v6.7h20.8V381z"/>
</g>
</svg>
