<?xml version="1.0" encoding="utf-8"?>
<!-- Generator: Adobe Illustrator 23.0.6, SVG Export Plug-In . SVG Version: 6.00 Build 0)  -->
<svg version="1.1" id="Layer_1" xmlns="http://www.w3.org/2000/svg" xmlns:xlink="http://www.w3.org/1999/xlink" x="0px" y="0px"
	 viewBox="0 0 374.3 511.1" style="enable-background:new 0 0 374.3 511.1;" xml:space="preserve">
<style type="text/css">
	.st0{fill:#FDE2DB;}
	.st1{fill:#FBC4B7;}
	.st2{fill:none;stroke:#614B39;stroke-width:5.0002;stroke-miterlimit:10;}
	.st3{fill:none;stroke:#614B39;stroke-width:4.107;stroke-miterlimit:10;}
	.st4{fill:#614B3A;}
	.st5{fill:none;stroke:#614B3A;stroke-width:5.3133;stroke-miterlimit:10;}
	.st6{fill:none;stroke:#6E4739;stroke-width:5;stroke-miterlimit:10;}
	.st7{enable-background:new    ;}
	.st8{fill:#894F4F;}
</style>
<rect x="0.7" y="0" class="st0" width="374.3" height="511.1"/>
<g>
	<path class="st1" d="M183,132.4c3.2-6.6,8.5-6.6,11.7,0l15.9,32.5c3.2,6.6,11,15.1,17.2,18.9l27.8,17c6.2,3.8,6.2,10.1,0,13.9
		l-27.8,17c-6.2,3.8-14,12.3-17.2,18.9l-15.9,32.5c-3.2,6.6-8.5,6.6-11.7,0l-15.9-32.5c-3.2-6.6-11-15.1-17.2-18.9l-27.8-17
		c-6.2-3.8-6.2-10.1,0-13.9l27.8-17c6.2-3.8,14-12.3,17.2-18.9L183,132.4z"/>
	<path class="st2" d="M183,132.4c3.2-6.6,8.5-6.6,11.7,0l15.9,32.5c3.2,6.6,11,15.1,17.2,18.9l27.8,17c6.2,3.8,6.2,10.1,0,13.9
		l-27.8,17c-6.2,3.8-14,12.3-17.2,18.9l-15.9,32.5c-3.2,6.6-8.5,6.6-11.7,0l-15.9-32.5c-3.2-6.6-11-15.1-17.2-18.9l-27.8-17
		c-6.2-3.8-6.2-10.1,0-13.9l27.8-17c6.2-3.8,14-12.3,17.2-18.9L183,132.4z"/>
</g>
<line class="st3" x1="188.3" y1="110.7" x2="188.3" y2="81.8"/>
<line class="st3" x1="188.3" y1="304.3" x2="188.3" y2="333.2"/>
<line class="st3" x1="100.4" y1="207.5" x2="77" y2="207.5"/>
<circle class="st4" cx="171.9" cy="201.7" r="4.9"/>
<circle class="st4" cx="204.7" cy="201.7" r="4.9"/>
<line class="st3" x1="275.3" y1="207.5" x2="298.7" y2="207.5"/>
<path class="st5" d="M178.4,212.2c0,0,2.3,7,9.7,7s10.2-7,10.2-7"/>
<path class="st6" d="M332.5,42.8c-8.6-8.2-11.7-18.8-11.7-18.8H187.9H55c0,0-3.2,10.7-11.7,18.8c-8.6,8.2-17.8,10-17.8,10v202.5v0.5
	v202.5c0,0,9.2,1.9,17.8,10c8.6,8.2,11.7,18.8,11.7,18.8h132.9h132.9c0,0,3.2-10.7,11.7-18.8c8.6-8.2,17.8-10,17.8-10V255.8v-0.5
	V52.8C350.3,52.8,341.1,50.9,332.5,42.8z"/>
<g class="st7">
	<path class="st8" d="M110.8,378h4.8v37.3h-4.8v-19.8h-3.8V406H92v-25.5h5v9.2h5.2v-9.2h4.8v10.6h3.8V378z M102.2,393.9H97v7.9h5.2
		V393.9z M123,416.3h-4.9v-38.7h4.9V416.3z"/>
	<path class="st8" d="M148.4,393.8c0,9-4.1,14-10.1,14c-6.1,0-10.1-5-10.1-14c0-9,4.1-14,10.1-14
		C144.4,379.7,148.4,384.8,148.4,393.8z M143.2,393.8c0-6-1.8-9.6-4.9-9.6c-3.1,0-4.9,3.6-4.9,9.6c0,6,1.8,9.6,4.9,9.6
		C141.4,403.4,143.2,399.7,143.2,393.8z M153.8,377.6h5.2v38.7h-5.2V377.6z"/>
	<path class="st8" d="M166.3,406.1v-25.6h5.3v8.9h8.3v-8.9h5.1v25.6H166.3z M179.9,393.5h-8.4v8.3h8.4V393.5z M191.1,377.6h5.2v38.7
		h-5.2V377.6z"/>
	<path class="st8" d="M213.9,408.4l-3.8-2.9c7-6.3,9.4-14.6,8.8-25.6h5c0,3.5-0.1,6.8-0.5,9.8c1.5,5.9,4.3,10.1,8,13.9v-9.8h-4.8
		v-4.4h4.8V378h4.8v37.3h-4.8v-10.5l-3.4,2.5c-2.7-2.6-4.9-6-6.6-9.9C219.8,401.5,217.4,405.2,213.9,408.4z M244.1,416.3h-4.8v-38.7
		h4.8V416.3z"/>
	<path class="st8" d="M283.7,406.6v4.3h-35.8v-4.3H283.7z M253.6,401.5v-21h24.6v4.3h-19.5v3.8h18.8v4.2h-18.8v4.4h20v4.3H253.6z"/>
</g>
</svg>
