<?xml version="1.0" encoding="utf-8"?>
<!-- Generator: Adobe Illustrator 23.0.6, SVG Export Plug-In . SVG Version: 6.00 Build 0)  -->
<svg version="1.1" id="Layer_1" xmlns="http://www.w3.org/2000/svg" xmlns:xlink="http://www.w3.org/1999/xlink" x="0px" y="0px"
	 viewBox="0 0 374.3 511.1" style="enable-background:new 0 0 374.3 511.1;" xml:space="preserve">
<style type="text/css">
	.st0{fill:#FDE2DB;}
	.st1{fill:#FAC2B6;stroke:#6E473A;stroke-width:5;stroke-linecap:round;stroke-linejoin:round;stroke-miterlimit:10;}
	.st2{fill:#FAC2B6;}
	.st3{fill:none;stroke:#6E473A;stroke-width:5;stroke-miterlimit:10;}
	.st4{fill:#F19788;}
	.st5{fill:none;stroke:#6E4739;stroke-width:5;stroke-miterlimit:10;}
	.st6{enable-background:new    ;}
	.st7{fill:#894F4F;}
</style>
<rect y="0" class="st0" width="374.3" height="511.1"/>
<path class="st1" d="M115.2,208.4c-1.7-20.7-18.5-43.3-37.6-43.5s-20.9,24.6-1.5,35c0,0-6.4,8.5-2.8,17.2c4.4,10.4,13.7,8,13.7,8
	s-4.8,17.6,12.8,17.6C115.8,242.8,116.3,221.9,115.2,208.4z"/>
<g>
	<path class="st2" d="M148.3,142.4c-1.6,0-4,0.9-5.3,1.9l-35.1,29.2c-1.3,1-2.3,3.3-2.3,4.9V265c0,1.6,1.3,3,3,3h131.3
		c1.6,0,3.9-0.9,5.1-2.1l29.5-29.1c1.2-1.2,2.1-3.4,2.1-5.1v-86.2c0-1.6-1.3-3-3-3L148.3,142.4L148.3,142.4z"/>
	<path class="st3" d="M148.3,142.4c-1.6,0-4,0.9-5.3,1.9l-35.1,29.2c-1.3,1-2.3,3.3-2.3,4.9V265c0,1.6,1.3,3,3,3h131.3
		c1.6,0,3.9-0.9,5.1-2.1l29.5-29.1c1.2-1.2,2.1-3.4,2.1-5.1v-86.2c0-1.6-1.3-3-3-3L148.3,142.4L148.3,142.4z"/>
</g>
<line class="st3" x1="242.6" y1="266.5" x2="242" y2="177.7"/>
<polygon class="st4" points="138.8,152.7 126.2,163.8 254.6,164.9 254.6,192.6 267.2,182.2 267.2,152.7 "/>
<polyline class="st3" points="105.6,177.7 242,177.7 276.6,142.4 "/>
<path class="st1" d="M263.2,208.4c1.7-20.7,18.5-43.3,37.6-43.5s20.9,24.6,1.5,35c0,0,6.4,8.5,2.8,17.2c-4.4,10.4-13.7,8-13.7,8
	s4.8,17.6-12.8,17.6C262.6,242.8,262.1,221.9,263.2,208.4z"/>
<path class="st5" d="M331.7,42.8C323.1,34.6,320,24,320,24H187.1H54.2c0,0-3.2,10.7-11.7,18.8c-8.6,8.2-17.8,10-17.8,10v202.5v0.5
	v202.5c0,0,9.2,1.9,17.8,10c8.6,8.2,11.7,18.8,11.7,18.8h132.9H320c0,0,3.2-10.7,11.7-18.8c8.6-8.2,17.8-10,17.8-10V255.8v-0.5V52.8
	C349.5,52.8,340.3,50.9,331.7,42.8z"/>
<g class="st6">
	<path class="st7" d="M66.7,368.8v-4.3h35.8v4.3H87.3v12.6H82v-12.6H66.7z M72.2,360.6v-16.3h24.9v16.3H72.2z M92,348.6H77.3v7.7H92
		V348.6z"/>
	<path class="st7" d="M109.6,366.4v-12.6H129v-4.1h-19.5v-4.4h24.6V358h-19.5v4.1h20.7v4.3h-5.2v5.4h9.6v4.3h-35.8v-4.3h10.6v-5.4
		H109.6z M125.1,366.4h-5.4v5.4h5.4V366.4z"/>
	<path class="st7" d="M152.4,371.3v-25.5h5v9.2h5.3v-9.2h4.9v25.5H152.4z M162.7,359.2h-5.3v7.9h5.3V359.2z M183.3,381.6h-4.9v-21.2
		h-3v20.2h-4.8v-37.3h4.8v12.8h3v-13.2h4.9V381.6z"/>
	<path class="st7" d="M208.4,356v4.8H224v4.3h-36.6v-4.3h15.7V356H208.4z M207.9,347.7c2.8,3.4,8.1,5.7,13.6,6.6l-2.8,4.1
		c-5.5-1-10.1-3.5-13.5-6.7c-3.3,3.5-8.4,6.2-13.1,7l-2.7-3.9c8.5-1.6,14.1-6,14-11.8h5.3C208.9,344.6,208.6,346.2,207.9,347.7z
		 M205.7,367c8.6,0,13.3,3,13.3,7.4c0,4.4-4.7,7.5-13.3,7.5c-8.7,0-13.3-3.1-13.3-7.5C192.5,370,197.1,367,205.7,367z M205.7,371.1
		c-5.9,0-7.9,1.6-7.9,3.3c0,1.7,2,3.4,7.9,3.4s7.9-1.7,7.9-3.4C213.6,372.7,211.6,371.1,205.7,371.1z"/>
	<path class="st7" d="M239,352.9h10.6c3.7,0,6.8-0.1,10.3-0.5c0.1-1.3,0.2-2.5,0.2-3.5h-20.4v-4.3h25.5c0,5.9-0.8,12.6-1.6,17.6h6.6
		v4.4h-15v14.9h-5.2v-14.9h-15.7v-4.4h24.2c0.3-1.8,0.6-3.8,0.9-5.7c-3.3,0.5-6.8,0.6-10.6,0.6H239V352.9z"/>
	<path class="st7" d="M275.6,359.6v-4.2h5.2l-0.3-6.3h5.2l0.1,6.3h7.4l0.3-6.3h5.1l-0.3,6.3h5.3v4.2h-11.5v3.7h15.8v4.3h-36.6v-4.3
		h15.6v-3.7H275.6z M276.1,348.3V344h27.1v4.3H276.1z M302.9,381H277V370h5.1v6.7h20.8V381z"/>
</g>
</svg>
