<?xml version="1.0" encoding="utf-8"?>
<!-- Generator: Adobe Illustrator 23.0.6, SVG Export Plug-In . SVG Version: 6.00 Build 0)  -->
<svg version="1.1" id="Layer_1" xmlns="http://www.w3.org/2000/svg" xmlns:xlink="http://www.w3.org/1999/xlink" x="0px" y="0px"
	 viewBox="0 0 374.3 511.1" style="enable-background:new 0 0 374.3 511.1;" xml:space="preserve">
<style type="text/css">
	.st0{fill:#FDE2DB;}
	.st1{fill:none;stroke:#6E4739;stroke-width:5;stroke-miterlimit:10;}
	.st2{enable-background:new    ;}
	.st3{fill:#894F4F;}
</style>
<rect y="0" class="st0" width="374.3" height="511.1"/>
<path class="st1" d="M331.8,42.8c-8.6-8.2-11.7-18.8-11.7-18.8H187.2H54.3c0,0-3.2,10.7-11.7,18.8c-8.6,8.2-17.8,10-17.8,10v202.5
	v0.5v202.5c0,0,9.2,1.9,17.8,10c8.6,8.2,11.7,18.8,11.7,18.8h132.9h132.9c0,0,3.2-10.7,11.7-18.8c8.6-8.2,17.8-10,17.8-10V255.8
	v-0.5V52.8C349.5,52.8,340.3,50.9,331.8,42.8z"/>
<g class="st2">
	<path class="st3" d="M74.1,234.8h21.7v5.4H80.5v20.7h3.6c5.9,0,11.4-0.8,16.2-2v5.2c-4.5,1.3-11.5,2.2-17.7,2.2h-8.6V234.8z
		 M115.8,253.1h-7.3v24.8h-6.3v-46.9h6.3v16.8h7.3V253.1z"/>
	<path class="st3" d="M160.5,251.6v5.3h-44.3v-5.3H160.5z M154,240c0,5.4-5.6,9.1-15.7,9.1c-10.1,0-15.7-3.7-15.7-9.1
		c0-5.3,5.6-9.3,15.7-9.3C148.5,230.8,154,234.7,154,240z M123,277.1v-16.8h30.6v16.8H123z M147.5,240.2c0-2.3-2.5-4.5-9.1-4.5
		c-6.7,0-9.2,2.1-9.2,4.5c0,2.2,2.4,4,9.2,4C144.9,244.2,147.5,242.4,147.5,240.2z M147.4,265.7h-18.2v6.2h18.2V265.7z"/>
	<path class="st3" d="M173.2,263.9c12.7-6,18-15,19-23.8c-3.7,0.1-7.5,0.2-11.2,0.2h-5.4v-5.4h8c4.8,0,9.6,0,15.3-0.1
		c-0.9,14.6-6.7,25.6-21.6,33.5L173.2,263.9z M205.9,230.9h6.3v46.9h-6.3V230.9z"/>
	<path class="st3" d="M238,261.6v3.7c4.4-0.2,8.8-0.6,12.7-1.1v5c-7.1,1-16.3,1.5-23.7,1.5h-8v-5.2h7.9c1.5,0,3.2,0,4.9,0v-3.9
		c-5.6-0.8-8.7-3.9-8.7-8c0-4.7,4.2-8.1,11.6-8.1c7.4,0,11.6,3.4,11.6,8.1C246.3,257.6,243.4,260.7,238,261.6z M220.1,244.3v-4.9
		h29.1v4.9H220.1z M225.8,237.2v-5H243v5H225.8z M240.1,253.6c0-2-1.4-3.5-5.4-3.5c-4,0-5.4,1.6-5.4,3.5c0,2.1,1.4,3.6,5.4,3.6
		C238.7,257.2,240.1,255.7,240.1,253.6z M258.4,277.9h-6.2v-46.9h6.2V277.9z"/>
	<path class="st3" d="M289,231.4h5.8v45.2H289v-24.4h-3.5c-0.3,10-3.6,15.1-10.2,15.1c-6.8,0-10.1-6-10.1-16.9
		c0-11.1,3.2-16.8,10.1-16.8c6.2,0,9.4,4.5,10.1,13h3.6V231.4z M279.6,250.6c0-7.2-1.1-11.3-4.2-11.3c-3,0-3.9,4.2-3.9,11.3
		c0,7.2,0.9,11.4,3.9,11.4C278.4,262,279.6,257.8,279.6,250.6z M303.9,277.9H298v-46.9h5.9V277.9z"/>
</g>
</svg>
