<?xml version="1.0" encoding="utf-8"?>
<!-- Generator: Adobe Illustrator 23.0.6, SVG Export Plug-In . SVG Version: 6.00 Build 0)  -->
<svg version="1.1" id="Layer_1" xmlns="http://www.w3.org/2000/svg" xmlns:xlink="http://www.w3.org/1999/xlink" x="0px" y="0px"
	 viewBox="0 0 374.3 511.1" style="enable-background:new 0 0 374.3 511.1;" xml:space="preserve">
<style type="text/css">
	.st0{fill:#FBCEC5;}
	.st1{fill:none;stroke:#6E4739;stroke-width:5;stroke-miterlimit:10;}
	.st2{enable-background:new    ;}
	.st3{fill:#894F4F;}
</style>
<rect x="0.3" y="0" class="st0" width="374.3" height="511.1"/>
<path class="st1" d="M332,42.8c-8.6-8.2-11.7-18.8-11.7-18.8H187.4H54.6c0,0-3.2,10.7-11.7,18.8c-8.6,8.2-17.8,10-17.8,10v202.5v0.5
	v202.5c0,0,9.2,1.9,17.8,10c8.6,8.2,11.7,18.8,11.7,18.8h132.9h132.9c0,0,3.2-10.7,11.7-18.8c8.6-8.2,17.8-10,17.8-10V255.8v-0.5
	V52.8C349.8,52.8,340.6,50.9,332,42.8z"/>
<g class="st2">
	<path class="st3" d="M157.4,202.5c-1,1.2-2.8,0.2-2.8-1.4v-22.5c10.5-7.9,24.9-12.5,37.4-12.5c28.5,0,44.3,13.8,44.3,36
		c0,16.2-12.1,30.4-21.5,39.5c-8.1,8.1-13.2,12.6-13.2,23.5c0,4.9,0.2,9.1,2.8,17.4h-22.5c-2-6.1-2.6-12.6-2.6-18.2
		c0-14.6,6.7-23.5,16-33.2c8.7-8.1,16.2-15.8,16.2-26.5c0-12.5-8.1-18.2-22.1-18.2C178.9,186.5,167.2,191.2,157.4,202.5z
		 M191.6,296.1c9.7,0,17.4,7.5,17.4,16.2s-7.7,16-17.4,16c-9.5,0-16.6-7.3-16.6-16S182.1,296.1,191.6,296.1z"/>
</g>
</svg>
