<?xml version="1.0" encoding="utf-8"?>
<!-- Generator: Adobe Illustrator 23.0.6, SVG Export Plug-In . SVG Version: 6.00 Build 0)  -->
<svg version="1.1" id="Layer_1" xmlns="http://www.w3.org/2000/svg" xmlns:xlink="http://www.w3.org/1999/xlink" x="0px" y="0px"
	 viewBox="0 0 374.3 511.1" style="enable-background:new 0 0 374.3 511.1;" xml:space="preserve">
<style type="text/css">
	.st0{fill:#FDE2DB;}
	.st1{fill:none;stroke:#6E4739;stroke-width:5;stroke-miterlimit:10;}
	.st2{fill:#FBCEC5;}
	.st3{fill:#FAC2B6;}
	.st4{fill:none;stroke:#6E473A;stroke-width:5;stroke-miterlimit:10;}
	.st5{fill:none;stroke:#6E473A;stroke-width:4.6326;stroke-miterlimit:10;}
	.st6{fill:none;stroke:#6E473A;stroke-width:4.6326;stroke-miterlimit:10;stroke-dasharray:13.388,13.388;}
	.st7{fill:#FBC4B7;}
	.st8{fill:none;stroke:#614B39;stroke-width:5.0002;stroke-miterlimit:10;}
	.st9{fill:none;stroke:#614B39;stroke-width:4.107;stroke-miterlimit:10;}
	.st10{fill:#614B3A;}
	.st11{fill:none;stroke:#614B3A;stroke-width:5.3133;stroke-miterlimit:10;}
	.st12{fill:#FAC2B6;stroke:#6E473A;stroke-width:5;stroke-linecap:round;stroke-linejoin:round;stroke-miterlimit:10;}
	.st13{fill:#F19788;}
	.st14{fill:#FBC3B7;stroke:#614B3A;stroke-width:5;stroke-miterlimit:10;}
	.st15{fill:#FBC3B7;stroke:#614B3A;stroke-width:5;stroke-linecap:round;stroke-linejoin:round;stroke-miterlimit:10;}
	.st16{fill:none;stroke:#614B3A;stroke-width:5;stroke-linecap:round;stroke-linejoin:round;stroke-miterlimit:10;}
	.st17{fill:none;stroke:#614B3A;stroke-width:5.2222;stroke-linecap:round;stroke-linejoin:round;stroke-miterlimit:10;}
	.st18{fill:#F9B2A0;stroke:#614B3A;stroke-width:5;stroke-miterlimit:10;}
	.st19{fill:#E57F73;}
	.st20{fill:none;stroke:#614B3A;stroke-width:5;stroke-miterlimit:10;}
	.st21{fill:#894F4F;}
	.st22{font-family:'NanumBarunGothicOTFBold-KSCpc-EUC-H';}
	.st23{font-size:197.6248px;}
</style>
<rect x="1224.7" y="0" class="st0" width="374.3" height="511.1"/>
<path class="st1" d="M1556.4,42.8c-8.6-8.2-11.7-18.8-11.7-18.8h-132.9h-132.9c0,0-3.2,10.7-11.7,18.8c-8.6,8.2-17.8,10-17.8,10
	v202.5v0.5v202.5c0,0,9.2,1.9,17.8,10c8.6,8.2,11.7,18.8,11.7,18.8h132.9h132.9c0,0,3.2-10.7,11.7-18.8c8.6-8.2,17.8-10,17.8-10
	V255.8v-0.5V52.8C1574.1,52.8,1564.9,50.9,1556.4,42.8z"/>
<rect x="403.1" y="0" class="st0" width="374.3" height="511.1"/>
<rect x="0.3" y="0" class="st2" width="374.3" height="511.1"/>
<g>
	<path class="st3" d="M1532.4,262c0,3.1-2.6,5.7-5.7,5.7h-154.5c-3.1,0-7-1.4-8.7-3.1s-4.2-1.7-5.6,0s-5.2,3.1-8.3,3.1H1301
		c-3.1,0-5.7-2.6-5.7-5.7V151c0-3.1,2.6-5.7,5.7-5.7h47.3c3.1,0,7,1.5,8.6,3.3s4.2,1.8,5.6,0s5.3-3.3,8.4-3.3h155.8
		c3.1,0,5.7,2.6,5.7,5.7L1532.4,262L1532.4,262z"/>
	<path class="st4" d="M1532.4,262c0,3.1-2.6,5.7-5.7,5.7h-154.5c-3.1,0-7-1.4-8.7-3.1s-4.2-1.7-5.6,0s-5.2,3.1-8.3,3.1H1301
		c-3.1,0-5.7-2.6-5.7-5.7V151c0-3.1,2.6-5.7,5.7-5.7h47.3c3.1,0,7,1.5,8.6,3.3s4.2,1.8,5.6,0s5.3-3.3,8.4-3.3h155.8
		c3.1,0,5.7,2.6,5.7,5.7L1532.4,262L1532.4,262z"/>
</g>
<g>
	<g>
		<line class="st5" x1="1358.9" y1="152.7" x2="1358.9" y2="160.2"/>
		<line class="st6" x1="1358.9" y1="173.6" x2="1358.9" y2="247.3"/>
		<line class="st5" x1="1358.9" y1="253.9" x2="1358.9" y2="261.5"/>
	</g>
</g>
<text transform="matrix(1 0 0 1 1386.384 227.5134)" class="st21 st22" style="font-size:60.5736px;">10%</text>
<rect x="814.9" y="0" class="st0" width="374.3" height="511.1"/>
<path class="st1" d="M1146.6,42.8c-8.6-8.2-11.7-18.8-11.7-18.8H1002H869.2c0,0-3.2,10.7-11.7,18.8c-8.6,8.2-17.8,10-17.8,10v202.5
	v0.5v202.5c0,0,9.2,1.9,17.8,10c8.6,8.2,11.7,18.8,11.7,18.8H1002h132.9c0,0,3.2-10.7,11.7-18.8c8.6-8.2,17.8-10,17.8-10V255.8v-0.5
	V52.8C1164.4,52.8,1155.2,50.9,1146.6,42.8z"/>
<path class="st1" d="M332,42.8c-8.6-8.2-11.7-18.8-11.7-18.8H187.4H54.6c0,0-3.2,10.7-11.7,18.8c-8.6,8.2-17.8,10-17.8,10v202.5v0.5
	v202.5c0,0,9.2,1.9,17.8,10c8.6,8.2,11.7,18.8,11.7,18.8h132.9h132.9c0,0,3.2-10.7,11.7-18.8c8.6-8.2,17.8-10,17.8-10V255.8v-0.5
	V52.8C349.8,52.8,340.6,50.9,332,42.8z"/>
<rect x="2431.9" y="0" class="st0" width="374.3" height="511.1"/>
<g>
	<path class="st7" d="M2616.9,132.4c3.2-6.6,8.5-6.6,11.7,0l15.9,32.5c3.2,6.6,11,15.1,17.2,18.9l27.8,17c6.2,3.8,6.2,10.1,0,13.9
		l-27.8,17c-6.2,3.8-14,12.3-17.2,18.9l-15.9,32.5c-3.2,6.6-8.5,6.6-11.7,0l-15.9-32.5c-3.2-6.6-11-15.1-17.2-18.9l-27.8-17
		c-6.2-3.8-6.2-10.1,0-13.9l27.8-17c6.2-3.8,14-12.3,17.2-18.9L2616.9,132.4z"/>
	<path class="st8" d="M2616.9,132.4c3.2-6.6,8.5-6.6,11.7,0l15.9,32.5c3.2,6.6,11,15.1,17.2,18.9l27.8,17c6.2,3.8,6.2,10.1,0,13.9
		l-27.8,17c-6.2,3.8-14,12.3-17.2,18.9l-15.9,32.5c-3.2,6.6-8.5,6.6-11.7,0l-15.9-32.5c-3.2-6.6-11-15.1-17.2-18.9l-27.8-17
		c-6.2-3.8-6.2-10.1,0-13.9l27.8-17c6.2-3.8,14-12.3,17.2-18.9L2616.9,132.4z"/>
</g>
<line class="st9" x1="2622.2" y1="110.7" x2="2622.2" y2="81.8"/>
<line class="st9" x1="2622.2" y1="304.3" x2="2622.2" y2="333.2"/>
<line class="st9" x1="2534.3" y1="207.5" x2="2510.9" y2="207.5"/>
<circle class="st10" cx="2605.8" cy="201.7" r="4.9"/>
<circle class="st10" cx="2638.6" cy="201.7" r="4.9"/>
<line class="st9" x1="2709.2" y1="207.5" x2="2732.6" y2="207.5"/>
<path class="st11" d="M2612.3,212.2c0,0,2.3,7,9.7,7s10.2-7,10.2-7"/>
<path class="st1" d="M2763.6,42.8c-8.6-8.2-11.7-18.8-11.7-18.8H2619h-132.9c0,0-3.2,10.7-11.7,18.8c-8.6,8.2-17.8,10-17.8,10v202.5
	v0.5v202.5c0,0,9.2,1.9,17.8,10c8.6,8.2,11.7,18.8,11.7,18.8H2619h132.9c0,0,3.2-10.7,11.7-18.8c8.6-8.2,17.8-10,17.8-10V255.8v-0.5
	V52.8C2781.4,52.8,2772.2,50.9,2763.6,42.8z"/>
<path class="st1" d="M734.9,42.8c-8.6-8.2-11.7-18.8-11.7-18.8H590.3H457.4c0,0-3.2,10.7-11.7,18.8c-8.6,8.2-17.8,10-17.8,10v202.5
	v0.5v202.5c0,0,9.2,1.9,17.8,10c8.6,8.2,11.7,18.8,11.7,18.8h132.9h132.9c0,0,3.2-10.7,11.7-18.8c8.6-8.2,17.8-10,17.8-10V255.8
	v-0.5V52.8C752.6,52.8,743.4,50.9,734.9,42.8z"/>
<rect x="1623.4" y="0" class="st0" width="374.3" height="511.1"/>
<path class="st12" d="M1738.6,208.4c-1.7-20.7-18.5-43.3-37.6-43.5s-20.9,24.6-1.5,35c0,0-6.4,8.5-2.8,17.2c4.4,10.4,13.7,8,13.7,8
	s-4.8,17.6,12.8,17.6C1739.2,242.8,1739.7,221.9,1738.6,208.4z"/>
<g>
	<path class="st3" d="M1771.7,142.4c-1.6,0-4,0.9-5.3,1.9l-35.1,29.2c-1.3,1-2.3,3.3-2.3,4.9V265c0,1.6,1.3,3,3,3h131.3
		c1.6,0,3.9-0.9,5.1-2.1l29.5-29.1c1.2-1.2,2.1-3.4,2.1-5.1v-86.2c0-1.6-1.3-3-3-3L1771.7,142.4L1771.7,142.4z"/>
	<path class="st4" d="M1771.7,142.4c-1.6,0-4,0.9-5.3,1.9l-35.1,29.2c-1.3,1-2.3,3.3-2.3,4.9V265c0,1.6,1.3,3,3,3h131.3
		c1.6,0,3.9-0.9,5.1-2.1l29.5-29.1c1.2-1.2,2.1-3.4,2.1-5.1v-86.2c0-1.6-1.3-3-3-3L1771.7,142.4L1771.7,142.4z"/>
</g>
<line class="st4" x1="1866" y1="266.5" x2="1865.4" y2="177.7"/>
<polygon class="st13" points="1762.2,152.7 1749.6,163.8 1878,164.9 1878,192.6 1890.6,182.2 1890.6,152.7 "/>
<polyline class="st4" points="1729,177.7 1865.4,177.7 1900,142.4 "/>
<path class="st12" d="M1886.6,208.4c1.7-20.7,18.5-43.3,37.6-43.5s20.9,24.6,1.5,35c0,0,6.4,8.5,2.8,17.2c-4.4,10.4-13.7,8-13.7,8
	s4.8,17.6-12.8,17.6C1886,242.8,1885.5,221.9,1886.6,208.4z"/>
<path class="st1" d="M1955.1,42.8c-8.6-8.2-11.7-18.8-11.7-18.8h-132.9h-132.9c0,0-3.2,10.7-11.7,18.8c-8.6,8.2-17.8,10-17.8,10
	v202.5v0.5v202.5c0,0,9.2,1.9,17.8,10c8.6,8.2,11.7,18.8,11.7,18.8h132.9h132.9c0,0,3.2-10.7,11.7-18.8c8.6-8.2,17.8-10,17.8-10
	V255.8v-0.5V52.8C1972.9,52.8,1963.7,50.9,1955.1,42.8z"/>
<rect x="2022.1" y="0" class="st0" width="374.3" height="511.1"/>
<path class="st1" d="M2353.9,42.8c-8.6-8.2-11.7-18.8-11.7-18.8h-132.9h-132.9c0,0-3.2,10.7-11.7,18.8c-8.6,8.2-17.8,10-17.8,10
	v202.5v0.5v202.5c0,0,9.2,1.9,17.8,10c8.6,8.2,11.7,18.8,11.7,18.8h132.9h132.9c0,0,3.2-10.7,11.7-18.8c8.6-8.2,17.8-10,17.8-10
	V255.8v-0.5V52.8C2371.6,52.8,2362.4,50.9,2353.9,42.8z"/>
<path class="st14" d="M632.7,200h-39.8h-39.8c0,0-30.2,24.8-29.5,48.2c0,16.3,12.4,16.7,16.7,15.6s24.3,26,24.3,26h28.3h28.3
	c0,0,20-27,24.3-26c4.3,1.1,16.7,0.7,16.7-15.6C662.9,224.8,632.7,200,632.7,200z"/>
<ellipse transform="matrix(0.9884 -0.1518 0.1518 0.9884 -35.6132 88.5265)" class="st14" cx="562" cy="277.5" rx="23.9" ry="27.2"/>
<ellipse transform="matrix(0.1518 -0.9884 0.9884 0.1518 254.9329 852.1915)" class="st14" cx="624" cy="277.6" rx="27.2" ry="23.9"/>
<path class="st14" d="M665.3,106.1c-3.8-18.8-17.3-21.2-27-21.3c-11.1-0.1-22.9,9.4-23.3,19.2c0,0-7.3-4.7-22.4-4.7
	s-22.4,4.7-22.4,4.7c-0.4-9.9-12.2-19.3-23.3-19.2c-9.7,0-23.2,2.5-27,21.3s15.2,26.1,15.2,26.1s-9,14.8-4,40.1
	c6.9,35.4,48.4,39.2,61.5,39.2c13.2,0,53.8-2.9,61.5-39.2c5.6-26.6-4-40.1-4-40.1S669,124.9,665.3,106.1z"/>
<path class="st15" d="M547.4,253.4c0,0,0.3-19.4,7.1-27.3"/>
<path class="st15" d="M638.3,253.4c0,0-0.3-19.4-7.1-27.3"/>
<ellipse class="st10" cx="568.5" cy="158" rx="6.2" ry="7.8"/>
<ellipse class="st10" cx="616.4" cy="158" rx="6.2" ry="7.8"/>
<g>
	<path class="st10" d="M599.8,163.5c-0.5-1-2.3-1.9-4-1.9c-1.6,0-4.3,0-6,0s-3.4,0.8-4,1.9s0.6,3.3,2.6,5l0.8,0.7
		c2,1.7,5.2,1.7,7.1,0l0.8-0.7C599.2,166.8,600.3,164.5,599.8,163.5z"/>
</g>
<path class="st16" d="M577,174.8c0,0,1.4,6.3,7.9,6.3c5.1,0,7.9-3.7,7.9-3.7v-7.3"/>
<path class="st16" d="M608.7,174.8c0,0-1.4,6.3-7.9,6.3c-5.1,0-7.9-3.7-7.9-3.7v-7.3"/>
<line class="st17" x1="592.9" y1="177.4" x2="592.9" y2="170.1"/>
<path class="st17" d="M608.7,174.8"/>
<path class="st14" d="M1068.7,183.8c0,0,6.9-17.5-7.5-32.8c0,0,3-17.3-15.1-25.5c0,0-1.8-17.4-22.9-17.4c0,0-3.2-9.7-18.3-10.4
	c-15.1,0.7-18.3,10.4-18.3,10.4c-21.2,0-22.9,17.4-22.9,17.4c-18.1,8.2-15.1,25.5-15.1,25.5c-14.4,15.3-7.5,32.8-7.5,32.8
	c-13.1,17,0.9,32.6,0.9,32.6c-10.6,23.2,12.4,30.4,12.4,30.4h50.6h50.6c0,0,23-7.2,12.4-30.4
	C1067.9,216.4,1081.9,200.9,1068.7,183.8z"/>
<path class="st18" d="M1011.9,275.4c-22.6,6.7-67-1.6-83.3-36.5c-12.7-27.2-8.5-55.8-3.4-60.2c3.7-3.2,7.4,17,19.8,31.9
	c9.9,11.9,25.7,20.7,42,22.9c21.6,3,29.8,6.9,35.6,12.5C1029.6,252.8,1031.3,269.6,1011.9,275.4z"/>
<path class="st18" d="M1000.2,276.9c22.6,6.7,67-1.6,83.3-36.5c12.7-27.2,8.5-55.8,3.4-60.2c-3.7-3.2-7.4,17-19.8,31.9
	c-9.9,11.9-25.7,20.7-42,22.9c-21.6,3-29.8,6.9-35.6,12.5C982.5,254.3,980.7,271.1,1000.2,276.9z"/>
<path class="st19" d="M1015.5,180.7c-1.4-1.4-19.1-1.9-21,0s-2.4,17,10.5,17S1016.9,182,1015.5,180.7z"/>
<path class="st20" d="M937.9,221c0,0,10.8,31.8,46.6,38.6"/>
<path class="st20" d="M988.2,265.1c0,0,66,8.9,90.9-47.9"/>
<ellipse class="st10" cx="983.7" cy="168.3" rx="6.2" ry="7.8"/>
<ellipse class="st10" cx="1026.1" cy="168.3" rx="6.2" ry="7.8"/>
<text transform="matrix(1 0 0 1 2092.7195 283.7198)" class="st21 st22" style="font-size:50.616px;">다음 기회에</text>
<text transform="matrix(1 0 0 1 476.4572 375.7333)" class="st21 st22" style="font-size:41.7562px;">베이비 애니멀</text>
<text transform="matrix(1 0 0 1 492.1572 425.8333)" class="st21 st22" style="font-size:41.7562px;">인형 중 택 1</text>
<text transform="matrix(1 0 0 1 140.3664 315.5122)" class="st21 st22 st23">?</text>
<text transform="matrix(1 0 0 1 907.1196 375.7333)" class="st21 st22" style="font-size:41.7562px;">베이비 푸드</text>
<text transform="matrix(1 0 0 1 904.2196 425.8333)" class="st21 st22" style="font-size:41.7562px;">인형 중 택 1</text>
<text transform="matrix(1 0 0 1 1288.0734 375.7332)" class="st21 st22" style="font-size:41.7562px;">10% 할인 쿠폰</text>
<text transform="matrix(1 0 0 1 1689.4296 375.7332)" class="st21 st22" style="font-size:41.7562px;">무료 배송 쿠폰</text>
<text transform="matrix(1 0 0 1 2524.7056 410.3963)" class="st21 st22" style="font-size:41.7562px;">베이비 세트</text>
</svg>
