<?xml version="1.0" encoding="utf-8"?>
<!-- Generator: Adobe Illustrator 23.0.6, SVG Export Plug-In . SVG Version: 6.00 Build 0)  -->
<svg version="1.1" id="Layer_1" xmlns="http://www.w3.org/2000/svg" xmlns:xlink="http://www.w3.org/1999/xlink" x="0px" y="0px"
	 viewBox="0 0 374.3 511.1" style="enable-background:new 0 0 374.3 511.1;" xml:space="preserve">
<style type="text/css">
	.st0{fill:#FDE2DB;}
	.st1{fill:none;stroke:#6E4739;stroke-width:5;stroke-miterlimit:10;}
	.st2{fill:#FBCEC5;}
	.st3{fill:#FAC2B6;}
	.st4{fill:none;stroke:#6E473A;stroke-width:5;stroke-miterlimit:10;}
	.st5{fill:none;stroke:#6E473A;stroke-width:4.6326;stroke-miterlimit:10;}
	.st6{fill:none;stroke:#6E473A;stroke-width:4.6326;stroke-miterlimit:10;stroke-dasharray:13.388,13.388;}
	.st7{fill:#FBC4B7;}
	.st8{fill:none;stroke:#614B39;stroke-width:4.7576;stroke-miterlimit:10;}
	.st9{fill:none;stroke:#614B39;stroke-width:3.9077;stroke-miterlimit:10;}
	.st10{fill:#614B3A;}
	.st11{fill:none;stroke:#614B3A;stroke-width:5.0555;stroke-miterlimit:10;}
	.st12{fill:#FAC2B6;stroke:#6E473A;stroke-width:4.4547;stroke-linecap:round;stroke-linejoin:round;stroke-miterlimit:10;}
	.st13{fill:none;stroke:#6E473A;stroke-width:4.4547;stroke-miterlimit:10;}
	.st14{fill:#F19788;}
	.st15{fill:#FBC3B7;stroke:#614B3A;stroke-width:4.2805;stroke-miterlimit:10;}
	.st16{fill:#FBC3B7;stroke:#614B3A;stroke-width:4.2805;stroke-linecap:round;stroke-linejoin:round;stroke-miterlimit:10;}
	.st17{fill:none;stroke:#614B3A;stroke-width:4.2805;stroke-linecap:round;stroke-linejoin:round;stroke-miterlimit:10;}
	.st18{fill:none;stroke:#614B3A;stroke-width:4.4707;stroke-linecap:round;stroke-linejoin:round;stroke-miterlimit:10;}
	.st19{fill:#FBC3B7;stroke:#614B3A;stroke-width:4.5641;stroke-miterlimit:10;}
	.st20{fill:#F9B2A0;stroke:#614B3A;stroke-width:4.5641;stroke-miterlimit:10;}
	.st21{fill:#E57F73;}
	.st22{fill:none;stroke:#614B3A;stroke-width:4.5641;stroke-miterlimit:10;}
	.st23{fill:#894F4F;}
	.st24{font-family:'NanumBarunGothicOTFBold-KSCpc-EUC-H';}
	.st25{font-size:197.6248px;}
	.st26{fill:#FAC2B6;stroke:#6E473A;stroke-width:4.3324;stroke-linecap:round;stroke-linejoin:round;stroke-miterlimit:10;}
	.st27{fill:none;stroke:#6E473A;stroke-width:4.3324;stroke-linecap:round;stroke-linejoin:round;stroke-miterlimit:10;}
</style>
<rect x="1224.7" y="0" class="st0" width="374.3" height="511.1"/>
<path class="st1" d="M1556.4,42.8c-8.6-8.2-11.7-18.8-11.7-18.8h-132.9h-132.9c0,0-3.2,10.7-11.7,18.8c-8.6,8.2-17.8,10-17.8,10
	v202.5v0.5v202.5c0,0,9.2,1.9,17.8,10c8.6,8.2,11.7,18.8,11.7,18.8h132.9h132.9c0,0,3.2-10.7,11.7-18.8c8.6-8.2,17.8-10,17.8-10
	V255.8v-0.5V52.8C1574.1,52.8,1564.9,50.9,1556.4,42.8z"/>
<rect x="403.1" y="0" class="st0" width="374.3" height="511.1"/>
<rect x="0.3" y="0" class="st2" width="374.3" height="511.1"/>
<path class="st3" d="M853.5,779.7c0,3.1-2.6,5.7-5.7,5.7H693.3c-3.1,0-7-1.4-8.7-3.1s-4.2-1.7-5.6,0s-5.2,3.1-8.3,3.1h-48.6
	c-3.1,0-5.7-2.6-5.7-5.7v-111c0-3.1,2.6-5.7,5.7-5.7h47.3c3.1,0,7,1.5,8.6,3.3s4.2,1.8,5.6,0s5.3-3.3,8.4-3.3h155.8
	c3.1,0,5.7,2.6,5.7,5.7V779.7L853.5,779.7z"/>
<path class="st4" d="M853.5,779.7c0,3.1-2.6,5.7-5.7,5.7H693.3c-3.1,0-7-1.4-8.7-3.1s-4.2-1.7-5.6,0s-5.2,3.1-8.3,3.1h-48.6
	c-3.1,0-5.7-2.6-5.7-5.7v-111c0-3.1,2.6-5.7,5.7-5.7h47.3c3.1,0,7,1.5,8.6,3.3s4.2,1.8,5.6,0s5.3-3.3,8.4-3.3h155.8
	c3.1,0,5.7,2.6,5.7,5.7V779.7L853.5,779.7z"/>
<g>
	<g>
		<line class="st5" x1="680" y1="670.4" x2="680" y2="677.9"/>
		<line class="st6" x1="680" y1="691.3" x2="680" y2="765"/>
		<line class="st5" x1="680" y1="771.6" x2="680" y2="779.2"/>
	</g>
</g>
<text transform="matrix(1 0 0 1 707.484 745.1668)" class="st23 st24" style="font-size:60.5736px;">10%</text>
<rect x="814.9" y="0" class="st0" width="374.3" height="511.1"/>
<path class="st1" d="M1146.6,42.8c-8.6-8.2-11.7-18.8-11.7-18.8H1002H869.2c0,0-3.2,10.7-11.7,18.8c-8.6,8.2-17.8,10-17.8,10v202.5
	v0.5v202.5c0,0,9.2,1.9,17.8,10c8.6,8.2,11.7,18.8,11.7,18.8H1002h132.9c0,0,3.2-10.7,11.7-18.8c8.6-8.2,17.8-10,17.8-10V255.8v-0.5
	V52.8C1164.4,52.8,1155.2,50.9,1146.6,42.8z"/>
<path class="st1" d="M332,42.8c-8.6-8.2-11.7-18.8-11.7-18.8H187.4H54.6c0,0-3.2,10.7-11.7,18.8c-8.6,8.2-17.8,10-17.8,10v202.5v0.5
	v202.5c0,0,9.2,1.9,17.8,10c8.6,8.2,11.7,18.8,11.7,18.8h132.9h132.9c0,0,3.2-10.7,11.7-18.8c8.6-8.2,17.8-10,17.8-10V255.8v-0.5
	V52.8C349.8,52.8,340.6,50.9,332,42.8z"/>
<rect x="2431.9" y="0" class="st0" width="374.3" height="511.1"/>
<g>
	<path class="st7" d="M2617.1,136c3-6.3,8.1-6.3,11.1,0l15.1,30.9c3,6.3,10.5,14.4,16.4,18l26.5,16.2c5.9,3.6,5.9,9.6,0,13.2
		l-26.5,16.2c-5.9,3.6-13.3,11.7-16.4,18l-15.1,30.9c-3,6.3-8.1,6.3-11.1,0l-15.1-30.9c-3-6.3-10.5-14.4-16.4-18l-26.5-16.2
		c-5.9-3.6-5.9-9.6,0-13.2l26.5-16.2c5.9-3.6,13.3-11.7,16.4-18L2617.1,136z"/>
	<path class="st8" d="M2617.1,136c3-6.3,8.1-6.3,11.1,0l15.1,30.9c3,6.3,10.5,14.4,16.4,18l26.5,16.2c5.9,3.6,5.9,9.6,0,13.2
		l-26.5,16.2c-5.9,3.6-13.3,11.7-16.4,18l-15.1,30.9c-3,6.3-8.1,6.3-11.1,0l-15.1-30.9c-3-6.3-10.5-14.4-16.4-18l-26.5-16.2
		c-5.9-3.6-5.9-9.6,0-13.2l26.5-16.2c5.9-3.6,13.3-11.7,16.4-18L2617.1,136z"/>
</g>
<line class="st9" x1="2622.2" y1="115.4" x2="2622.2" y2="87.9"/>
<line class="st9" x1="2622.2" y1="299.6" x2="2622.2" y2="327.1"/>
<line class="st9" x1="2538.5" y1="207.5" x2="2516.3" y2="207.5"/>
<circle class="st10" cx="2606.6" cy="202" r="4.7"/>
<circle class="st10" cx="2637.8" cy="202" r="4.7"/>
<line class="st9" x1="2705" y1="207.5" x2="2727.2" y2="207.5"/>
<path class="st11" d="M2612.8,212c0,0,2.2,6.7,9.2,6.7s9.7-6.7,9.7-6.7"/>
<path class="st1" d="M2763.6,42.8c-8.6-8.2-11.7-18.8-11.7-18.8H2619h-132.9c0,0-3.2,10.7-11.7,18.8c-8.6,8.2-17.8,10-17.8,10v202.5
	v0.5v202.5c0,0,9.2,1.9,17.8,10c8.6,8.2,11.7,18.8,11.7,18.8H2619h132.9c0,0,3.2-10.7,11.7-18.8c8.6-8.2,17.8-10,17.8-10V255.8v-0.5
	V52.8C2781.4,52.8,2772.2,50.9,2763.6,42.8z"/>
<path class="st1" d="M734.9,42.8c-8.6-8.2-11.7-18.8-11.7-18.8H590.3H457.4c0,0-3.2,10.7-11.7,18.8c-8.6,8.2-17.8,10-17.8,10v202.5
	v0.5v202.5c0,0,9.2,1.9,17.8,10c8.6,8.2,11.7,18.8,11.7,18.8h132.9h132.9c0,0,3.2-10.7,11.7-18.8c8.6-8.2,17.8-10,17.8-10V255.8
	v-0.5V52.8C752.6,52.8,743.4,50.9,734.9,42.8z"/>
<rect x="1623.4" y="0" class="st0" width="374.3" height="511.1"/>
<path class="st12" d="M1746.7,208.1c-1.5-18.4-16.5-38.6-33.5-38.8c-17-0.2-18.6,21.9-1.3,31.2c0,0-5.7,7.6-2.5,15.3
	c3.9,9.3,12.2,7.1,12.2,7.1s-4.3,15.7,11.4,15.7C1747.2,238.7,1747.7,220.1,1746.7,208.1z"/>
<g>
	<path class="st3" d="M1776.2,149.2c-1.4,0-3.6,0.8-4.7,1.7l-31.3,26c-1.2,0.9-2,2.9-2,4.4v77.2c0,1.4,1.2,2.7,2.7,2.7h117
		c1.4,0,3.5-0.8,4.5-1.9l26.3-25.9c1.1-1.1,1.9-3,1.9-4.5V152c0-1.4-1.2-2.7-2.7-2.7L1776.2,149.2L1776.2,149.2z"/>
	<path class="st13" d="M1776.2,149.2c-1.4,0-3.6,0.8-4.7,1.7l-31.3,26c-1.2,0.9-2,2.9-2,4.4v77.2c0,1.4,1.2,2.7,2.7,2.7h117
		c1.4,0,3.5-0.8,4.5-1.9l26.3-25.9c1.1-1.1,1.9-3,1.9-4.5V152c0-1.4-1.2-2.7-2.7-2.7L1776.2,149.2L1776.2,149.2z"/>
</g>
<line class="st13" x1="1860.2" y1="259.8" x2="1859.6" y2="180.7"/>
<polygon class="st14" points="1767.7,158.4 1756.5,168.3 1870.9,169.3 1870.9,194 1882.1,184.7 1882.1,158.4 "/>
<polyline class="st13" points="1738.1,180.7 1859.6,180.7 1890.5,149.2 "/>
<path class="st12" d="M1878.5,208.1c1.5-18.4,16.5-38.6,33.5-38.8c17-0.2,18.6,21.9,1.3,31.2c0,0,5.7,7.6,2.5,15.3
	c-3.9,9.3-12.2,7.1-12.2,7.1s4.3,15.7-11.4,15.7C1878,238.7,1877.5,220.1,1878.5,208.1z"/>
<path class="st1" d="M1955.1,42.8c-8.6-8.2-11.7-18.8-11.7-18.8h-132.9h-132.9c0,0-3.2,10.7-11.7,18.8c-8.6,8.2-17.8,10-17.8,10
	v202.5v0.5v202.5c0,0,9.2,1.9,17.8,10c8.6,8.2,11.7,18.8,11.7,18.8h132.9h132.9c0,0,3.2-10.7,11.7-18.8c8.6-8.2,17.8-10,17.8-10
	V255.8v-0.5V52.8C1972.9,52.8,1963.7,50.9,1955.1,42.8z"/>
<rect x="2022.1" y="0" class="st0" width="374.3" height="511.1"/>
<path class="st1" d="M2353.9,42.8c-8.6-8.2-11.7-18.8-11.7-18.8h-132.9h-132.9c0,0-3.2,10.7-11.7,18.8c-8.6,8.2-17.8,10-17.8,10
	v202.5v0.5v202.5c0,0,9.2,1.9,17.8,10c8.6,8.2,11.7,18.8,11.7,18.8h132.9h132.9c0,0,3.2-10.7,11.7-18.8c8.6-8.2,17.8-10,17.8-10
	V255.8v-0.5V52.8C2371.6,52.8,2362.4,50.9,2353.9,42.8z"/>
<path class="st15" d="M626.9,193.2h-34.1h-34.1c0,0-25.9,21.2-25.3,41.3c0,14,10.6,14.3,14.3,13.4s20.8,22.3,20.8,22.3h24.2h24.2
	c0,0,17.1-23.1,20.8-22.3c3.7,0.9,14.3,0.6,14.3-13.4C652.8,214.5,626.9,193.2,626.9,193.2z"/>
<ellipse transform="matrix(0.9884 -0.1518 0.1518 0.9884 -32.842 88.9881)" class="st15" cx="566.4" cy="259.6" rx="20.5" ry="23.3"/>
<ellipse transform="matrix(0.1518 -0.9884 0.9884 0.1518 268.8254 832.567)" class="st15" cx="619.5" cy="259.7" rx="23.3" ry="20.5"/>
<path class="st15" d="M654.8,112.9c-3.3-16.1-14.8-18.1-23.1-18.2c-9.5-0.1-19.6,8-19.9,16.4c0,0-6.2-4-19.2-4s-19.2,4-19.2,4
	c-0.3-8.5-10.4-16.5-19.9-16.4c-8.3,0-19.9,2.1-23.1,18.2s13,22.3,13,22.3s-7.7,12.7-3.4,34.3c5.9,30.3,41.4,33.6,52.6,33.6
	c11.3,0,46.1-2.5,52.6-33.6c4.8-22.8-3.4-34.3-3.4-34.3S658,129,654.8,112.9z"/>
<path class="st16" d="M553.9,239c0,0,0.3-16.6,6.1-23.4"/>
<path class="st16" d="M631.7,239c0,0-0.3-16.6-6.1-23.4"/>
<ellipse class="st10" cx="572" cy="157.3" rx="5.3" ry="6.7"/>
<ellipse class="st10" cx="613" cy="157.3" rx="5.3" ry="6.7"/>
<g>
	<path class="st10" d="M598.8,162c-0.4-0.9-2-1.6-3.4-1.6c-1.4,0-3.7,0-5.1,0s-2.9,0.7-3.4,1.6c-0.5,0.9,0.5,2.8,2.2,4.3l0.7,0.6
		c1.7,1.5,4.5,1.5,6.1,0l0.7-0.6C598.2,164.8,599.2,162.9,598.8,162z"/>
</g>
<path class="st17" d="M579.2,171.7c0,0,1.2,5.4,6.8,5.4c4.4,0,6.8-3.2,6.8-3.2v-6.2"/>
<path class="st17" d="M606.4,171.7c0,0-1.2,5.4-6.8,5.4c-4.4,0-6.8-3.2-6.8-3.2v-6.2"/>
<line class="st18" x1="592.9" y1="173.9" x2="592.9" y2="167.6"/>
<path class="st18" d="M606.4,171.7"/>
<path class="st19" d="M1063.2,184.2c0,0,6.3-16-6.8-29.9c0,0,2.7-15.8-13.8-23.3c0,0-1.6-15.9-20.9-15.9c0,0-2.9-8.9-16.7-9.5
	c-13.8,0.6-16.7,9.5-16.7,9.5c-19.4,0-20.9,15.9-20.9,15.9c-16.5,7.5-13.8,23.3-13.8,23.3c-13.1,14-6.8,29.9-6.8,29.9
	c-12,15.5,0.8,29.8,0.8,29.8c-9.7,21.2,11.3,27.7,11.3,27.7h46.2h46.2c0,0,21-6.6,11.3-27.7C1062.5,214,1075.3,199.8,1063.2,184.2z"
	/>
<path class="st20" d="M1011.4,267.8c-20.6,6.1-61.2-1.5-76-33.3c-11.6-24.8-7.8-50.9-3.1-55c3.4-2.9,6.8,15.5,18.1,29.1
	c9,10.9,23.5,18.9,38.3,20.9c19.7,2.7,27.2,6.3,32.5,11.4C1027.5,247.2,1029.1,262.5,1011.4,267.8z"/>
<path class="st20" d="M1000.7,269.2c20.6,6.1,61.2-1.5,76-33.3c11.6-24.8,7.8-50.9,3.1-55c-3.4-2.9-6.8,15.5-18.1,29.1
	c-9,10.9-23.5,18.9-38.3,20.9c-19.7,2.7-27.2,6.3-32.5,11.4C984.6,248.6,982.9,263.9,1000.7,269.2z"/>
<path class="st21" d="M1014.7,181.4c-1.3-1.3-17.4-1.7-19.2,0c-1.7,1.7-2.2,15.5,9.6,15.5C1016.9,196.9,1016,182.6,1014.7,181.4z"/>
<path class="st22" d="M943.8,218.2c0,0,9.9,29,42.5,35.2"/>
<path class="st22" d="M989.8,258.4c0,0,60.2,8.1,83-43.7"/>
<ellipse class="st10" cx="985.6" cy="170" rx="5.7" ry="7.1"/>
<ellipse class="st10" cx="1024.4" cy="170" rx="5.7" ry="7.1"/>
<text transform="matrix(1 0 0 1 2107 282.0128)" class="st23 st24" style="font-size:44.5187px;">다음 기회에</text>
<text transform="matrix(1 0 0 1 476.4572 360.2963)" class="st23 st24" style="font-size:41.7562px;">베이비 애니멀</text>
<text transform="matrix(1 0 0 1 492.1572 410.3963)" class="st23 st24" style="font-size:41.7562px;">인형 중 택 1</text>
<text transform="matrix(1 0 0 1 140.3664 315.5122)" class="st23 st24 st25">?</text>
<text transform="matrix(1 0 0 1 907.1196 360.2965)" class="st23 st24" style="font-size:41.7562px;">베이비 푸드</text>
<text transform="matrix(1 0 0 1 904.2196 410.3965)" class="st23 st24" style="font-size:41.7562px;">인형 중 택 1</text>
<text transform="matrix(1 0 0 1 1288.0734 375.7332)" class="st23 st24" style="font-size:41.7562px;">10% 할인 쿠폰</text>
<text transform="matrix(1 0 0 1 1689.4296 375.7332)" class="st23 st24" style="font-size:41.7562px;">무료 배송 쿠폰</text>
<text transform="matrix(1 0 0 1 2524.7056 410.3963)" class="st23 st24" style="font-size:41.7562px;">베이비 세트</text>
<path class="st26" d="M1506.8,183.3v-30.9h-93h-93v30.9c11.3,0,20.5,9.2,20.5,20.5c0,11.3-9.2,20.5-20.5,20.5v30.9h93h93v-30.9
	c-11.3,0-20.5-9.2-20.5-20.5C1486.3,192.5,1495.5,183.3,1506.8,183.3z"/>
<line class="st27" x1="1359" y1="152.4" x2="1359" y2="187.4"/>
<line class="st27" x1="1359" y1="199.9" x2="1359" y2="253.6"/>
<polygon class="st27" points="1419.7,179.4 1427.3,194.9 1444.5,197.4 1432.1,209.5 1435,226.6 1419.7,218.6 1404.3,226.6 
	1407.2,209.5 1394.8,197.4 1412,194.9 "/>
</svg>
