<?xml version="1.0" encoding="utf-8"?>
<!-- Generator: Adobe Illustrator 23.0.6, SVG Export Plug-In . SVG Version: 6.00 Build 0)  -->
<svg version="1.1" id="Layer_1" xmlns="http://www.w3.org/2000/svg" xmlns:xlink="http://www.w3.org/1999/xlink" x="0px" y="0px"
	 viewBox="0 0 374.3 511.1" style="enable-background:new 0 0 374.3 511.1;" xml:space="preserve">
<style type="text/css">
	.st0{fill:#FDE2DB;}
	.st1{fill:none;stroke:#6E4739;stroke-width:5;stroke-miterlimit:10;}
	.st2{fill:#FBCEC5;}
	.st3{fill:#FAC2B6;}
	.st4{fill:none;stroke:#6E473A;stroke-width:5;stroke-miterlimit:10;}
	.st5{fill:none;stroke:#6E473A;stroke-width:4.6326;stroke-miterlimit:10;}
	.st6{fill:none;stroke:#6E473A;stroke-width:4.6326;stroke-miterlimit:10;stroke-dasharray:13.388,13.388;}
	.st7{fill:#FBC4B7;stroke:#6E473A;stroke-width:0.987;stroke-miterlimit:10;}
	.st8{fill:none;stroke:#6E473A;stroke-width:4.6958;stroke-miterlimit:10;}
	.st9{fill:none;stroke:#6E473A;stroke-width:3.8569;stroke-miterlimit:10;}
	.st10{fill:#6E473A;}
	.st11{fill:none;stroke:#6E473A;stroke-width:4.9898;stroke-miterlimit:10;}
	.st12{fill:#FAC2B6;stroke:#6E473A;stroke-width:4.4875;stroke-linecap:round;stroke-linejoin:round;stroke-miterlimit:10;}
	.st13{fill:none;stroke:#6E473A;stroke-width:4.4875;stroke-miterlimit:10;}
	.st14{fill:#F19788;}
	.st15{fill:#FBC3B7;stroke:#6E473A;stroke-width:4.5808;stroke-miterlimit:10;}
	.st16{fill:#FBC3B7;stroke:#6E473A;stroke-width:4.5803;stroke-linecap:round;stroke-linejoin:round;stroke-miterlimit:10;}
	.st17{fill:#FBC3B7;stroke:#6E473A;stroke-width:4.5808;stroke-linecap:round;stroke-linejoin:round;stroke-miterlimit:10;}
	.st18{fill:none;stroke:#6E473A;stroke-width:4.5808;stroke-linecap:round;stroke-linejoin:round;stroke-miterlimit:10;}
	.st19{fill:none;stroke:#614B3A;stroke-width:4.7844;stroke-linecap:round;stroke-linejoin:round;stroke-miterlimit:10;}
	.st20{fill:#FBC3B7;stroke:#6E473A;stroke-width:4.7167;stroke-miterlimit:10;}
	.st21{fill:#F9B2A0;stroke:#6E473A;stroke-width:4.7167;stroke-miterlimit:10;}
	.st22{fill:#E57F73;}
	.st23{fill:none;stroke:#6E473A;stroke-width:4.7166;stroke-linecap:round;stroke-linejoin:round;stroke-miterlimit:10;}
	.st24{fill:#894F4F;}
	.st25{font-family:'NanumBarunGothicOTFBold-KSCpc-EUC-H';}
	.st26{font-size:197.6248px;}
	.st27{fill:#FAC2B6;stroke:#6E473A;stroke-width:4.4772;stroke-linecap:round;stroke-linejoin:round;stroke-miterlimit:10;}
	.st28{fill:none;stroke:#6E473A;stroke-width:4.4772;stroke-linecap:round;stroke-linejoin:round;stroke-miterlimit:10;}
	.st29{fill:#F19788;stroke:#6E473A;stroke-width:4.4772;stroke-linecap:round;stroke-linejoin:round;stroke-miterlimit:10;}
	.st30{fill:#FAC2B6;stroke:#6E473A;stroke-width:4.7473;stroke-linecap:round;stroke-linejoin:round;stroke-miterlimit:10;}
	.st31{fill:none;stroke:#6E473A;stroke-width:4.7473;stroke-miterlimit:10;}
	.st32{fill:#98C6E5;stroke:#6E473A;stroke-width:4.7473;stroke-linecap:round;stroke-linejoin:round;stroke-miterlimit:10;}
</style>
<rect x="1224.7" y="0" class="st0" width="374.3" height="511.1"/>
<path class="st1" d="M1556.4,42.8c-8.6-8.2-11.7-18.8-11.7-18.8h-132.9h-132.9c0,0-3.2,10.7-11.7,18.8c-8.6,8.2-17.8,10-17.8,10
	v202.5v0.5v202.5c0,0,9.2,1.9,17.8,10c8.6,8.2,11.7,18.8,11.7,18.8h132.9h132.9c0,0,3.2-10.7,11.7-18.8c8.6-8.2,17.8-10,17.8-10
	V255.8v-0.5V52.8C1574.1,52.8,1564.9,50.9,1556.4,42.8z"/>
<rect x="403.1" y="0" class="st0" width="374.3" height="511.1"/>
<rect x="0.3" y="0" class="st2" width="374.3" height="511.1"/>
<path class="st3" d="M390.3-464.8c0,3.1-2.6,5.7-5.7,5.7H230.1c-3.1,0-7-1.4-8.7-3.1s-4.2-1.7-5.6,0s-5.2,3.1-8.3,3.1h-48.6
	c-3.1,0-5.7-2.6-5.7-5.7v-111c0-3.1,2.6-5.7,5.7-5.7h47.3c3.1,0,7,1.5,8.6,3.3s4.2,1.8,5.6,0s5.3-3.3,8.4-3.3h155.8
	c3.1,0,5.7,2.6,5.7,5.7L390.3-464.8L390.3-464.8z"/>
<path class="st4" d="M390.3-464.8c0,3.1-2.6,5.7-5.7,5.7H230.1c-3.1,0-7-1.4-8.7-3.1s-4.2-1.7-5.6,0s-5.2,3.1-8.3,3.1h-48.6
	c-3.1,0-5.7-2.6-5.7-5.7v-111c0-3.1,2.6-5.7,5.7-5.7h47.3c3.1,0,7,1.5,8.6,3.3s4.2,1.8,5.6,0s5.3-3.3,8.4-3.3h155.8
	c3.1,0,5.7,2.6,5.7,5.7L390.3-464.8L390.3-464.8z"/>
<g>
	<g>
		<line class="st5" x1="216.8" y1="-574.1" x2="216.8" y2="-566.6"/>
		<line class="st6" x1="216.8" y1="-553.2" x2="216.8" y2="-479.5"/>
		<line class="st5" x1="216.8" y1="-472.9" x2="216.8" y2="-465.3"/>
	</g>
</g>
<text transform="matrix(1 0 0 1 244.3157 -499.296)" class="st24 st25" style="font-size:60.5736px;">10%</text>
<rect x="814.9" y="0" class="st0" width="374.3" height="511.1"/>
<path class="st1" d="M1146.6,42.8c-8.6-8.2-11.7-18.8-11.7-18.8H1002H869.2c0,0-3.2,10.7-11.7,18.8c-8.6,8.2-17.8,10-17.8,10v202.5
	v0.5v202.5c0,0,9.2,1.9,17.8,10c8.6,8.2,11.7,18.8,11.7,18.8H1002h132.9c0,0,3.2-10.7,11.7-18.8c8.6-8.2,17.8-10,17.8-10V255.8v-0.5
	V52.8C1164.4,52.8,1155.2,50.9,1146.6,42.8z"/>
<path class="st1" d="M332,42.8c-8.6-8.2-11.7-18.8-11.7-18.8H187.4H54.6c0,0-3.2,10.7-11.7,18.8c-8.6,8.2-17.8,10-17.8,10v202.5v0.5
	v202.5c0,0,9.2,1.9,17.8,10c8.6,8.2,11.7,18.8,11.7,18.8h132.9h132.9c0,0,3.2-10.7,11.7-18.8c8.6-8.2,17.8-10,17.8-10V255.8v-0.5
	V52.8C349.8,52.8,340.6,50.9,332,42.8z"/>
<rect x="2431.9" y="0" class="st0" width="374.3" height="511.1"/>
<g>
	<path class="st7" d="M2617.7,138.9c3-6.2,8-6.2,10.9,0l14.9,30.5c3,6.2,10.4,14.2,16.2,17.8l26.1,16c5.8,3.6,5.8,9.5,0,13.1
		l-26.1,16c-5.8,3.6-13.2,11.5-16.2,17.8l-14.9,30.5c-3,6.2-8,6.2-10.9,0l-14.9-30.5c-3-6.2-10.4-14.2-16.2-17.8l-26.1-16
		c-5.8-3.6-5.8-9.5,0-13.1l26.1-16c5.8-3.6,13.2-11.5,16.2-17.8L2617.7,138.9z"/>
	<path class="st8" d="M2617.7,138.9c3-6.2,8-6.2,10.9,0l14.9,30.5c3,6.2,10.4,14.2,16.2,17.8l26.1,16c5.8,3.6,5.8,9.5,0,13.1
		l-26.1,16c-5.8,3.6-13.2,11.5-16.2,17.8l-14.9,30.5c-3,6.2-8,6.2-10.9,0l-14.9-30.5c-3-6.2-10.4-14.2-16.2-17.8l-26.1-16
		c-5.8-3.6-5.8-9.5,0-13.1l26.1-16c5.8-3.6,13.2-11.5,16.2-17.8L2617.7,138.9z"/>
</g>
<line class="st9" x1="2622.8" y1="118.6" x2="2622.8" y2="91.5"/>
<line class="st9" x1="2622.8" y1="300.4" x2="2622.8" y2="327.5"/>
<line class="st9" x1="2540.2" y1="209.5" x2="2518.3" y2="209.5"/>
<circle class="st10" cx="2607.4" cy="204" r="4.7"/>
<circle class="st10" cx="2638.2" cy="204" r="4.7"/>
<line class="st9" x1="2704.5" y1="209.5" x2="2726.4" y2="209.5"/>
<path class="st11" d="M2613.5,214c0,0,2.1,6.6,9,6.6s9.6-6.6,9.6-6.6"/>
<path class="st1" d="M2763.6,42.8c-8.6-8.2-11.7-18.8-11.7-18.8H2619h-132.9c0,0-3.2,10.7-11.7,18.8c-8.6,8.2-17.8,10-17.8,10v202.5
	v0.5v202.5c0,0,9.2,1.9,17.8,10c8.6,8.2,11.7,18.8,11.7,18.8H2619h132.9c0,0,3.2-10.7,11.7-18.8c8.6-8.2,17.8-10,17.8-10V255.8v-0.5
	V52.8C2781.4,52.8,2772.2,50.9,2763.6,42.8z"/>
<path class="st1" d="M734.9,42.8c-8.6-8.2-11.7-18.8-11.7-18.8H590.3H457.4c0,0-3.2,10.7-11.7,18.8c-8.6,8.2-17.8,10-17.8,10v202.5
	v0.5v202.5c0,0,9.2,1.9,17.8,10c8.6,8.2,11.7,18.8,11.7,18.8h132.9h132.9c0,0,3.2-10.7,11.7-18.8c8.6-8.2,17.8-10,17.8-10V255.8
	v-0.5V52.8C752.6,52.8,743.4,50.9,734.9,42.8z"/>
<rect x="1623.4" y="0" class="st0" width="374.3" height="511.1"/>
<path class="st12" d="M1747.2,213.7c-1.5-18.5-16.6-38.9-33.7-39.1c-17.1-0.2-18.7,22.1-1.3,31.4c0,0-5.7,7.7-2.5,15.4
	c3.9,9.4,12.3,7.2,12.3,7.2s-4.3,15.8,11.5,15.8C1747.7,244.5,1748.2,225.7,1747.2,213.7z"/>
<g>
	<path class="st3" d="M1776.9,154.3c-1.4,0-3.6,0.8-4.7,1.7l-31.5,26.2c-1.2,0.9-2,2.9-2,4.4v77.8c0,1.4,1.2,2.7,2.7,2.7h117.9
		c1.4,0,3.5-0.8,4.5-1.9l26.5-26.1c1.1-1.1,1.9-3,1.9-4.5v-77.5c0-1.4-1.2-2.7-2.7-2.7L1776.9,154.3L1776.9,154.3z"/>
	<path class="st13" d="M1776.9,154.3c-1.4,0-3.6,0.8-4.7,1.7l-31.5,26.2c-1.2,0.9-2,2.9-2,4.4v77.8c0,1.4,1.2,2.7,2.7,2.7h117.9
		c1.4,0,3.5-0.8,4.5-1.9l26.5-26.1c1.1-1.1,1.9-3,1.9-4.5v-77.5c0-1.4-1.2-2.7-2.7-2.7L1776.9,154.3L1776.9,154.3z"/>
</g>
<line class="st13" x1="1861.5" y1="265.7" x2="1860.9" y2="186.1"/>
<polygon class="st14" points="1766.5,163.6 1754.9,173.6 1873.1,174.6 1873.1,199.5 1884.6,190.1 1884.6,163.6 "/>
<polyline class="st13" points="1738.5,186.1 1860.9,186.1 1892.1,154.3 "/>
<path class="st12" d="M1880,213.7c1.5-18.5,16.6-38.9,33.7-39.1c17.1-0.2,18.7,22.1,1.3,31.4c0,0,5.7,7.7,2.5,15.4
	c-3.9,9.4-12.3,7.2-12.3,7.2s4.3,15.8-11.5,15.8C1879.5,244.5,1879,225.7,1880,213.7z"/>
<path class="st1" d="M1955.1,42.8c-8.6-8.2-11.7-18.8-11.7-18.8h-132.9h-132.9c0,0-3.2,10.7-11.7,18.8c-8.6,8.2-17.8,10-17.8,10
	v202.5v0.5v202.5c0,0,9.2,1.9,17.8,10c8.6,8.2,11.7,18.8,11.7,18.8h132.9h132.9c0,0,3.2-10.7,11.7-18.8c8.6-8.2,17.8-10,17.8-10
	V255.8v-0.5V52.8C1972.9,52.8,1963.7,50.9,1955.1,42.8z"/>
<rect x="2022.2" y="0" class="st0" width="374.3" height="511.1"/>
<path class="st1" d="M2353.9,42.8c-8.6-8.2-11.7-18.8-11.7-18.8h-132.9h-132.9c0,0-3.2,10.7-11.7,18.8c-8.6,8.2-17.8,10-17.8,10
	v202.5v0.5v202.5c0,0,9.2,1.9,17.8,10c8.6,8.2,11.7,18.8,11.7,18.8h132.9h132.9c0,0,3.2-10.7,11.7-18.8c8.6-8.2,17.8-10,17.8-10
	V255.8v-0.5V52.8C2371.6,52.8,2362.4,50.9,2353.9,42.8z"/>
<path class="st15" d="M629.8,202.4h-36.5h-36.5c0,0-27.7,22.7-27.1,44.2c0,15,11.3,15.3,15.3,14.3s22.3,23.9,22.3,23.9h25.9h25.9
	c0,0,18.3-24.7,22.3-23.9c4,1,15.3,0.6,15.3-14.3C657.5,225.2,629.8,202.4,629.8,202.4z"/>
<path class="st16" d="M659.6,121.5c-3.5-17.2-15.8-19.4-24.7-19.5c-10.2-0.1-21,8.6-21.3,17.6c0,0-6.6-4.3-20.5-4.3
	s-20.5,4.3-20.5,4.3c-0.3-9.1-11.1-17.7-21.3-17.6c-8.9,0-21.3,2.2-24.7,19.5c-3.4,17.2,13.9,23.9,13.9,23.9s-8.2,13.6-3.6,36.7
	c6.3,32.4,44.3,36,56.3,36c12.1,0,49.3-2.7,56.3-36c5.1-24.4-3.6-36.7-3.6-36.7S663,138.7,659.6,121.5z"/>
<path class="st17" d="M551.6,251.4c0,0,0.3-17.8,6.5-25"/>
<path class="st17" d="M634.9,251.4c0,0-0.3-17.8-6.5-25"/>
<ellipse class="st10" cx="571" cy="169" rx="5.7" ry="7.2"/>
<ellipse class="st10" cx="614.9" cy="169" rx="5.7" ry="7.2"/>
<g>
	<path class="st10" d="M599.7,174.1c-0.4-1-2.1-1.7-3.6-1.7s-4,0-5.5,0s-3.1,0.7-3.6,1.7s0.5,3,2.4,4.6l0.7,0.6
		c1.8,1.6,4.8,1.6,6.5,0l0.7-0.6C599,177.1,600.1,175,599.7,174.1z"/>
</g>
<path class="st18" d="M578.7,184.4c0,0,1.3,5.8,7.3,5.8c4.7,0,7.3-3.4,7.3-3.4v-6.6"/>
<path class="st18" d="M607.8,184.4c0,0-1.3,5.8-7.3,5.8c-4.7,0-7.3-3.4-7.3-3.4v-6.6"/>
<line class="st19" x1="593.4" y1="186.8" x2="593.4" y2="180.1"/>
<path class="st19" d="M607.8,184.4"/>
<path class="st20" d="M1066.2,188.9c0,0,6.5-16.5-7-30.9c0,0,2.8-16.3-14.3-24.1c0,0-1.7-16.4-21.6-16.4c0,0-3-9.2-17.3-9.8
	c-14.3,0.6-17.3,9.8-17.3,9.8c-20,0-21.6,16.4-21.6,16.4C950.2,141.7,953,158,953,158c-13.5,14.5-7,30.9-7,30.9
	c-12.4,16,0.8,30.8,0.8,30.8c-10,21.9,11.7,28.6,11.7,28.6h47.7h47.7c0,0,21.7-6.8,11.7-28.6C1065.5,219.7,1078.7,205,1066.2,188.9z
	"/>
<path class="st21" d="M1012.7,275.3c-21.3,6.3-63.2-1.6-78.5-34.4c-12-25.6-8.1-52.6-3.2-56.8c3.5-3,7,16,18.7,30.1
	c9.3,11.3,24.3,19.5,39.6,21.6c20.4,2.8,28.1,6.5,33.6,11.8C1029.3,254,1031,269.8,1012.7,275.3z"/>
<path class="st21" d="M1001.6,276.7c21.3,6.3,63.2-1.6,78.5-34.4c12-25.6,8.1-52.6,3.2-56.8c-3.5-3-7,16-18.7,30.1
	c-9.3,11.3-24.3,19.5-39.6,21.6c-20.4,2.8-28.1,6.5-33.6,11.8C985,255.4,983.2,271.3,1001.6,276.7z"/>
<path class="st22" d="M1016.1,186c-1.3-1.3-18-1.8-19.8,0s-2.3,16,9.9,16S1017.4,187.2,1016.1,186z"/>
<path class="st23" d="M942.8,224c0,0,10.2,30,43.9,36.4"/>
<path class="st23" d="M990.4,265.6c0,0,62.2,8.4,85.8-45.2"/>
<ellipse class="st10" cx="986" cy="174.2" rx="5.9" ry="7.3"/>
<ellipse class="st10" cx="1026.1" cy="174.2" rx="5.9" ry="7.3"/>
<text transform="matrix(1 0 0 1 2111.7349 356.5659)" class="st24" style="font-family:'NanumGothicOTFBold-KSCpc-EUC-H'; font-size:40px;">다음 기회에</text>
<text transform="matrix(1 0 0 1 140.3664 315.5122)" class="st24 st25 st26">?</text>
<text transform="matrix(1 0 0 1 905.4377 349.2965)" class="st24" style="font-family:'NanumGothicOTFBold-KSCpc-EUC-H'; font-size:40px;">베이비 푸드</text>
<text transform="matrix(1 0 0 1 907.5763 450.731)" style="fill:#A06A6A; font-family:'NanumGothicOTFBold-KSCpc-EUC-H'; font-size:28px;">※인형 1종 선택</text>
<text transform="matrix(1 0 0 1 495.5367 450.731)" style="fill:#A06A6A; font-family:'NanumGothicOTFBold-KSCpc-EUC-H'; font-size:28px;">※인형 1종 선택</text>
<text transform="matrix(1 0 0 1 1283.7268 358.5657)" class="st24" style="font-family:'NanumGothicOTFBold-KSCpc-EUC-H'; font-size:39px;">10% 할인 쿠폰</text>
<text transform="matrix(1 0 0 1 1693.7015 359.7657)" class="st24" style="font-family:'NanumGothicOTFBold-KSCpc-EUC-H'; font-size:38px;">무료 배송 쿠폰</text>
<text transform="matrix(1 0 0 1 2522.7056 406.3963)" class="st24" style="font-family:'NanumGothicOTFBold-KSCpc-EUC-H'; font-size:40px;">베이비 세트</text>
<path class="st27" d="M1510.7,195.4v-31.9h-96.1h-96.1v31.9c11.7,0,21.2,9.5,21.2,21.2s-9.5,21.2-21.2,21.2v31.9h96.1h96.1v-31.9
	c-11.7,0-21.2-9.5-21.2-21.2S1499.1,195.4,1510.7,195.4z"/>
<line class="st28" x1="1358" y1="163.4" x2="1358" y2="199.6"/>
<line class="st28" x1="1358" y1="212.5" x2="1358" y2="268"/>
<polygon class="st29" points="1420.7,191.4 1428.6,207.4 1446.3,210 1433.5,222.5 1436.5,240.1 1420.7,231.9 1404.8,240.1 
	1407.8,222.5 1395,210 1412.8,207.4 "/>
<text transform="matrix(1 0 0 1 475.7059 363.5004)" class="st24" style="font-family:'NanumGothicOTFBold-KSCpc-EUC-H'; font-size:40px;">베이비 애니멀</text>
<ellipse transform="matrix(0.9884 -0.1518 0.1518 0.9884 -33.9832 88.8613)" class="st15" cx="565" cy="267" rx="21.9" ry="24.9"/>
<ellipse transform="matrix(0.1518 -0.9884 0.9884 0.1518 263.5149 841.2441)" class="st15" cx="621.9" cy="267.1" rx="24.9" ry="21.9"/>
<circle class="st30" cx="2213.5" cy="201.8" r="67.9"/>
<circle class="st10" cx="2189.5" cy="199.4" r="6.7"/>
<circle class="st10" cx="2237.5" cy="199.4" r="6.7"/>
<path class="st31" d="M2202.5,223.3c0,0,2.6-11.5,10.9-11.5s11.5,11.5,11.5,11.5"/>
<path class="st32" d="M2242.5,212.2c0,0-11.5,23.8-9,38.3s11.8,15.6,17.6,14.6s14.3-5,12.1-19.5
	C2261,231.1,2242.5,212.2,2242.5,212.2z"/>
</svg>
