<?xml version="1.0" encoding="utf-8"?>
<!-- Generator: Adobe Illustrator 23.0.6, SVG Export Plug-In . SVG Version: 6.00 Build 0)  -->
<svg version="1.1" id="Layer_1" xmlns="http://www.w3.org/2000/svg" xmlns:xlink="http://www.w3.org/1999/xlink" x="0px" y="0px"
	 viewBox="0 0 24.6 24.9" style="enable-background:new 0 0 24.6 24.9;" xml:space="preserve">
<style type="text/css">
	.st0{fill:#998888;}
	.st1{fill:#FFFFFF;}
</style>
<path class="st0" d="M12.3,25l-1.8-1.6c-2.1-1.9-3.8-3.5-5.1-4.8S3,16,2.2,14.9s-1.4-2.1-1.7-3S0,10.2,0,9.2c0-1.9,0.6-3.5,1.9-4.8
	s2.9-1.9,4.8-1.9c1.1,0,2.1,0.2,3,0.7s1.8,1.1,2.5,1.9c0.7-0.8,1.5-1.5,2.5-1.9s2-0.7,3-0.7c1.9,0,3.5,0.6,4.8,1.9s1.9,2.9,1.9,4.8
	c0,0.9-0.2,1.9-0.5,2.8s-0.9,1.9-1.7,3c-0.8,1.1-1.9,2.3-3.2,3.6c-1.4,1.4-3.1,3-5.1,4.8L12.3,25z"/>
<g>
	<path class="st1" d="M7.5,15.1c-0.2,0.1-0.7,0.3-1.3,0.3c-1.3,0-2.2-0.9-2.2-2.3c0-1.4,0.9-2.4,2.4-2.4c0.5,0,0.9,0.1,1.1,0.2
		l-0.2,0.6c-0.2-0.1-0.5-0.2-0.9-0.2c-1,0-1.6,0.8-1.6,1.7c0,1,0.7,1.7,1.5,1.7c0.5,0,0.8-0.1,1-0.2L7.5,15.1z"/>
	<path class="st1" d="M8.5,8.7h0.8v6.5H8.5V8.7z"/>
	<path class="st1" d="M11.5,9.6c0,0.3-0.2,0.5-0.5,0.5c-0.3,0-0.5-0.2-0.5-0.5C10.5,9.3,10.7,9,11,9C11.3,9,11.5,9.3,11.5,9.6z
		 M10.6,15.2v-4.4h0.8v4.4H10.6z"/>
	<path class="st1" d="M15.9,15.1c-0.2,0.1-0.7,0.3-1.3,0.3c-1.3,0-2.2-0.9-2.2-2.3c0-1.4,0.9-2.4,2.4-2.4c0.5,0,0.9,0.1,1.1,0.2
		l-0.2,0.6c-0.2-0.1-0.5-0.2-0.9-0.2c-1,0-1.6,0.8-1.6,1.7c0,1,0.7,1.7,1.5,1.7c0.5,0,0.8-0.1,1-0.2L15.9,15.1z"/>
	<path class="st1" d="M17.7,12.8L17.7,12.8c0.1-0.2,0.3-0.3,0.4-0.5l1.3-1.5h1l-1.7,1.8l2,2.6h-1l-1.5-2.1l-0.4,0.5v1.7h-0.8V8.7
		h0.8V12.8z"/>
</g>
</svg>
