<?xml version="1.0" encoding="utf-8"?>
<!-- Generator: Adobe Illustrator 23.0.6, SVG Export Plug-In . SVG Version: 6.00 Build 0)  -->
<svg version="1.1" id="Layer_1" xmlns="http://www.w3.org/2000/svg" xmlns:xlink="http://www.w3.org/1999/xlink" x="0px" y="0px"
	 viewBox="0 0 559.8 647.5" style="enable-background:new 0 0 559.8 647.5;" xml:space="preserve">
<style type="text/css">
	.st0{fill:#FAB9AB;}
	.st1{fill:#C0D5AA;}
	.st2{fill:#F8A798;}
	.st3{fill:#63452A;}
</style>
<path class="st0" d="M470.7,158.5c-28.5-15.7-172.5-24.2-172.5-24.2h-18.3h-18.3c0,0-144,8.6-172.5,24.2
	C60.6,174.2-15.7,219.2,2.9,355.3C21.4,491.4,163.3,604.7,217.4,629c35.6,15.7,46.5,18.5,62.5,18.5c15.9,0,26.8-2.9,62.5-18.5
	c54.2-24.2,196-137.6,214.6-273.7S499.2,174.2,470.7,158.5z"/>
<path class="st1" d="M421.7,73.7c-35.2-6.2-84.6,14.3-84.6,14.3c3.8-8.6,5.2-29.9-3.8-52.3C324.3,13.3,301.5,0,279.9,0
	s-44.4,13.3-53.4,35.6c-9,22.3-7.6,43.7-3.8,52.3c0,0-49.4-20.4-84.6-14.3c-35.2,6.2-51.3,34.7-47.5,55.6s14.3,46.6,97.9,55.6
	c56.6,5.7,91.5-24.2,91.5-24.2s34.9,29.9,91.5,24.2c83.6-9,94.1-34.7,97.9-55.6S456.9,79.8,421.7,73.7z"/>
<ellipse transform="matrix(8.722389e-02 -0.9962 0.9962 8.722389e-02 -196.3653 336.7169)" class="st2" cx="85.6" cy="275.5" rx="24.8" ry="15.4"/>
<ellipse transform="matrix(0.9421 -0.3355 0.3355 0.9421 -153.0415 75.1964)" class="st2" cx="141.1" cy="480.6" rx="15.8" ry="23.9"/>
<ellipse transform="matrix(0.1442 -0.9896 0.9896 0.1442 -221.6327 805.4059)" class="st2" cx="354.8" cy="530.8" rx="23.9" ry="15.8"/>
<ellipse transform="matrix(0.1442 -0.9896 0.9896 0.1442 -82.788 823.8792)" class="st2" cx="434.9" cy="459.8" rx="21.7" ry="14.3"/>
<ellipse class="st3" cx="180.3" cy="333.3" rx="27.1" ry="33.5"/>
<ellipse class="st3" cx="379" cy="333.3" rx="27.1" ry="33.5"/>
<path class="st3" d="M327.8,363.8c-11.3-3.4-15.4,8.9-24.6,16.5c-9.1,7.6-20.2,8-23.3,8s-14.1-0.4-23.3-8
	c-9.1-7.6-13.3-20-24.6-16.5c-10.6,3.2-8.8,19.1,1.1,30.5c12.2,14.1,28.7,22.3,46.8,22.2c18.1,0.1,34.5-8.1,46.8-22.2
	C336.6,382.9,338.3,367,327.8,363.8z"/>
</svg>
