<?xml version="1.0" encoding="utf-8"?>
<!-- Generator: Adobe Illustrator 24.3.0, SVG Export Plug-In . SVG Version: 6.00 Build 0)  -->
<svg version="1.1" id="레이어_1" xmlns="http://www.w3.org/2000/svg" xmlns:xlink="http://www.w3.org/1999/xlink" x="0px"
	 y="0px" viewBox="0 0 15 14.6" style="enable-background:new 0 0 15 14.6;" xml:space="preserve">
<style>
	.img{
		fill: #998888;
	}

</style>
<path class="img" d="M7.5,7C6.5,7,5.7,6.7,5,6C4.3,5.3,4,4.5,4,3.5S4.3,1.7,5,1c0.7-0.7,1.5-1,2.5-1S9.3,0.3,10,1c0.7,0.7,1,1.5,1,2.5
	S10.7,5.3,10,6C9.3,6.7,8.5,7,7.5,7z M0,14.6v-2.2c0-0.5,0.1-0.9,0.4-1.4c0.3-0.4,0.6-0.7,1.1-1c1-0.5,2-0.8,3-1.1s2-0.4,3-0.4
	s2,0.1,3,0.4s2,0.6,3,1.1c0.4,0.2,0.8,0.5,1.1,1s0.4,0.9,0.4,1.4v2.2H0z M1.5,13.1h12v-0.7c0-0.2-0.1-0.4-0.2-0.6
	c-0.1-0.2-0.3-0.3-0.5-0.4c-0.9-0.4-1.7-0.7-2.6-1c-0.9-0.2-1.8-0.3-2.7-0.3c-0.9,0-1.8,0.1-2.7,0.3c-0.9,0.2-1.8,0.5-2.6,1
	c-0.2,0.1-0.4,0.2-0.5,0.4c-0.1,0.2-0.2,0.4-0.2,0.6C1.5,12.4,1.5,13.1,1.5,13.1z M7.5,5.5c0.6,0,1-0.2,1.4-0.6
	c0.4-0.4,0.6-0.9,0.6-1.4s-0.2-1-0.6-1.4C8.5,1.7,8.1,1.5,7.5,1.5s-1,0.2-1.4,0.6C5.7,2.5,5.5,3,5.5,3.5s0.2,1,0.6,1.4
	C6.5,5.3,7,5.5,7.5,5.5z"/>
</svg>
