<?xml version="1.0" encoding="utf-8"?>
<!-- Generator: Adobe Illustrator 23.0.6, SVG Export Plug-In . SVG Version: 6.00 Build 0)  -->
<svg version="1.1" id="Layer_1" xmlns="http://www.w3.org/2000/svg" xmlns:xlink="http://www.w3.org/1999/xlink" x="0px" y="0px"
	 viewBox="0 0 20 20" style="enable-background:new 0 0 20 20;" xml:space="preserve">
<style type="text/css">
	.st0{fill:#A7A7A7;}
</style>
<path class="st0" d="M12.6,19.4C12.2,19,12,18.6,12,18c0-0.5,0.2-1,0.6-1.4C13,16.2,13.4,16,14,16s1,0.2,1.4,0.6
	C15.8,17,16,17.5,16,18c0,0.6-0.2,1-0.6,1.4C15,19.8,14.5,20,14,20S13,19.8,12.6,19.4z M2.6,19.4C2.2,19,2,18.6,2,18
	c0-0.5,0.2-1,0.6-1.4C3,16.2,3.4,16,4,16s1,0.2,1.4,0.6C5.8,17,6,17.5,6,18c0,0.6-0.2,1-0.6,1.4C5,19.8,4.5,20,4,20S3,19.8,2.6,19.4
	z M2.7,4l2.7,5h7l2.4-5H2.7z M16.7,0L20,0v2h-2l-3.6,7.6l1.3,2.4c0.4,0.6,0.3,1.3-0.1,2c-0.4,0.7-0.9,1-1.7,1H2v-2h12l-1.1-2H5.4
	c-0.4,0-0.7-0.1-1-0.3s-0.6-0.4-0.7-0.8L0.1,3.5c-0.2-0.3-0.2-0.7,0-1S0.6,2,1,2h14.8L16.7,0z M5.4,9h7H5.4z"/>
</svg>
