<?xml version="1.0" encoding="utf-8"?>
<!-- Generator: Adobe Illustrator 23.0.6, SVG Export Plug-In . SVG Version: 6.00 Build 0)  -->
<svg version="1.1" id="Layer_1" xmlns="http://www.w3.org/2000/svg" xmlns:xlink="http://www.w3.org/1999/xlink" x="0px" y="0px"
	 viewBox="0 0 374.3 511.1" style="enable-background:new 0 0 374.3 511.1;" xml:space="preserve">
<style type="text/css">
	.st0{fill:#FDE2DB;}
	.st1{fill:none;stroke:#6E4739;stroke-width:5;stroke-miterlimit:10;}
	.st2{enable-background:new    ;}
	.st3{fill:#894F4F;}
	.st4{fill:#FAC2B6;stroke:#6E473A;stroke-width:4.4772;stroke-linecap:round;stroke-linejoin:round;stroke-miterlimit:10;}
	.st5{fill:none;stroke:#6E473A;stroke-width:4.4772;stroke-linecap:round;stroke-linejoin:round;stroke-miterlimit:10;}
	.st6{fill:#F19788;stroke:#6E473A;stroke-width:4.4772;stroke-linecap:round;stroke-linejoin:round;stroke-miterlimit:10;}
</style>
<rect x="0.3" y="0.8" class="st0" width="374.3" height="511.1"/>
<path class="st1" d="M332.1,43.6c-8.6-8.2-11.7-18.8-11.7-18.8H187.5H54.6c0,0-3.2,10.7-11.7,18.8c-8.6,8.2-17.8,10-17.8,10v202.5
	v0.5v202.5c0,0,9.2,1.9,17.8,10c8.6,8.2,11.7,18.8,11.7,18.8h132.9h132.9c0,0,3.2-10.7,11.7-18.8c8.6-8.2,17.8-10,17.8-10V256.6
	v-0.5V53.6C349.8,53.6,340.6,51.7,332.1,43.6z"/>
<g class="st2">
	<path class="st3" d="M70.5,361.5c-0.4,0-0.5-0.2-0.5-0.5v-23.1l-2.9,2.5c-0.3,0.2-0.7,0.3-0.9,0.1l-1.8-2.1
		c-0.2-0.2-0.2-0.5,0.1-0.8l6-5.5c0.1-0.1,0.4-0.2,0.6-0.2h2.1c0.9,0,0.9,0,0.9,1.1V361c0,0.4-0.2,0.5-0.5,0.5H70.5z"/>
	<path class="st3" d="M85.2,346.7c0-6.4,1.6-15.1,9.8-15.1c8.2,0,9.7,8.7,9.7,15.1c0,9.5-3.1,15.1-9.7,15.1
		C88.3,361.7,85.2,356.2,85.2,346.7z M89.6,346.7c0,8,2.1,10.8,5.3,10.8c3.3,0,5.3-2.8,5.3-10.8c0-8-2.1-10.8-5.3-10.8
		C91.7,335.8,89.6,338.7,89.6,346.7z"/>
	<path class="st3" d="M117.8,347.2c-2.3,0-4.1-0.7-5.3-2.3c-1-1.3-1.5-3.2-1.5-5.7c0-2.5,0.5-4.4,1.5-5.7c1.2-1.5,3-2.4,5.3-2.4
		c2.3,0,4,0.8,5.2,2.4c1.1,1.3,1.6,3.2,1.6,5.7c0,2.5-0.5,4.4-1.6,5.7C121.9,346.5,120.1,347.2,117.8,347.2z M115.1,339.2
		c0,1.8,0.6,4.1,2.7,4.1c1.8,0,2.7-1.4,2.7-4.1c0-2.7-0.9-4-2.7-4C116,335.2,115.1,336.6,115.1,339.2z M117.8,362.1
		c-0.6,0-0.9-0.2-0.5-0.9l16.8-30.1c0.2-0.3,0.4-0.5,0.7-0.5h3.1c0.5,0,0.7,0.3,0.4,0.8l-16.8,30c-0.3,0.5-0.6,0.6-1.1,0.6H117.8z
		 M137.9,361.6c-2.3,0-4.1-0.8-5.3-2.3c-1-1.3-1.5-3.2-1.5-5.7c0-2.5,0.5-4.4,1.5-5.7c1.2-1.6,3-2.3,5.3-2.3c2.3,0,4.1,0.8,5.2,2.3
		c1.1,1.4,1.6,3.2,1.6,5.7s-0.5,4.4-1.6,5.7C141.9,360.8,140.2,361.6,137.9,361.6z M135.2,353.6c0,1.7,0.5,4,2.7,4
		c1.8,0,2.7-1.3,2.7-4c0-2.7-0.9-4-2.7-4C136.1,349.6,135.2,350.9,135.2,353.6z"/>
	<path class="st3" d="M162.4,336.6c-0.3,0-0.6-0.3-0.6-0.7v-2c0-0.3,0.4-0.6,0.7-0.6h20.5c0.3,0,0.6,0.3,0.6,0.6v2.1
		c0,0.4-0.3,0.6-0.6,0.6H162.4z M181.4,343.9c0,3.7-3.7,6.2-8.5,6.2c-4.7,0-8.3-2.5-8.3-6.2c0-3.6,3.7-6,8.4-6
		C177.7,337.8,181.4,340.3,181.4,343.9z M167.7,331.9c-0.2,0-0.6-0.2-0.6-0.6v-2.1c0-0.4,0.4-0.6,0.6-0.6h10.1
		c0.4,0,0.7,0.3,0.7,0.6v2c0,0.3-0.2,0.6-0.7,0.6H167.7z M170.3,365.5c-2,0-2.7-0.7-2.7-2.4v-3.7c0-1.7,0.6-2.3,2.6-2.3h15.5
		c0.5,0,0.5-0.1,0.5-0.5v-0.7c0-0.6,0-0.6-0.5-0.6h-17.6c-0.3,0-0.5-0.2-0.5-0.5v-2.4c0-0.3,0.3-0.5,0.5-0.5h19.8
		c2.2,0,2.7,0.6,2.7,2.4v3.6c0,1.8-0.5,2.4-2.7,2.4h-15.4c-0.5,0-0.5,0.1-0.5,0.5v0.9c0,0.5,0,0.5,0.5,0.5H191
		c0.3,0,0.5,0.2,0.5,0.5v2.3c0,0.3-0.3,0.5-0.5,0.5H170.3z M168.8,343.9c0,1.7,1.8,2.9,4.2,2.9c2.5,0,4.2-1.2,4.2-2.9
		c0-1.6-1.7-2.7-4.2-2.7C170.5,341.2,168.8,342.3,168.8,343.9z M190.6,341.6v8c0,0.3-0.2,0.5-0.5,0.5h-3.5c-0.3,0-0.5-0.3-0.5-0.6
		v-20.6c0-0.4,0.2-0.5,0.5-0.5h3.5c0.4,0,0.5,0.2,0.5,0.5v8.8h5.3c0.3,0,0.6,0.2,0.6,0.5v2.7c0,0.3-0.3,0.5-0.6,0.5H190.6z"/>
	<path class="st3" d="M208.9,349c-5.6,0-9.4-4.2-9.4-9.4c0-5,3.8-9.4,9.4-9.4c5.6,0,9.6,4.4,9.6,9.4
		C218.5,344.7,214.6,349,208.9,349z M208.9,334.2c-3,0-5,2.5-5,5.5c0,3.1,2.1,5.5,5,5.5c3,0,5.1-2.4,5.1-5.5
		C214,336.6,211.9,334.2,208.9,334.2z M208.9,364.8c-2.3,0-3-0.7-3-2.8v-8.8c0-0.3,0.3-0.5,0.5-0.5h3.4c0.3,0,0.6,0.3,0.6,0.5v7.2
		c0,0.5,0.2,0.6,0.7,0.6h17.9c0.3,0,0.6,0.2,0.6,0.5v2.8c0,0.3-0.3,0.5-0.6,0.5H208.9z M228.5,354.3c0,0.4-0.2,0.5-0.5,0.5h-3.5
		c-0.4,0-0.5-0.2-0.5-0.5v-25.2c0-0.4,0.2-0.5,0.5-0.5h3.5c0.4,0,0.5,0.2,0.5,0.5V354.3z"/>
	<path class="st3" d="M273.6,346.6h5.9c0.3,0,0.6,0.3,0.6,0.6v2.5c0,0.3-0.3,0.6-0.6,0.6h-15.1v14.4c0,0.4-0.2,0.5-0.5,0.5h-3.4
		c-0.4,0-0.5-0.2-0.5-0.5v-14.4h-14.4c-0.3,0-0.5-0.3-0.5-0.6v-2.5c0-0.3,0.2-0.6,0.5-0.6h23.7c0.4-1.5,0.6-3.3,0.9-5.3
		c-5.7,0.3-13,0.3-19.3,0.3c-0.3,0-0.5-0.3-0.5-0.6v-2.6c0-0.4,0.2-0.5,0.5-0.5c6.4,0,14.7,0,19.7-0.3c0.1-1.2,0.1-2.3,0.1-3.4
		c0-0.7-0.4-0.8-1.1-0.8h-19.2c-0.3,0-0.6-0.2-0.6-0.5v-2.8c0-0.3,0.3-0.5,0.6-0.5h22.2c1.7,0,2.6,0.9,2.6,2.8
		C275.1,337.5,274.5,342.6,273.6,346.6z"/>
	<path class="st3" d="M301.5,343.4v4.1h14.7c0.3,0,0.6,0.3,0.6,0.5v2.6c0,0.3-0.3,0.6-0.6,0.6h-33.9c-0.3,0-0.5-0.3-0.5-0.6v-2.6
		c0-0.4,0.2-0.5,0.5-0.5H297v-4.1h-10.1c-0.3,0-0.7-0.3-0.7-0.6v-2.3c0-0.3,0.4-0.6,0.7-0.6h4.4v-6.7h-3.7c-0.3,0-0.6-0.3-0.6-0.6
		v-2.3c0-0.3,0.4-0.6,0.6-0.6h23.2c0.3,0,0.6,0.3,0.6,0.6v2.3c0,0.3-0.3,0.6-0.6,0.6h-3.7v6.7h4.4c0.3,0,0.6,0.3,0.6,0.6v2.3
		c0,0.3-0.3,0.6-0.6,0.6H301.5z M290.3,364.7c-2.4,0-3-0.8-3-2.8v-7.4c0-0.3,0.3-0.6,0.5-0.6h3.4c0.3,0,0.6,0.3,0.6,0.6v5.9
		c0,0.5,0.2,0.6,0.7,0.6h19.2c0.3,0,0.6,0.2,0.6,0.5v2.8c0,0.3-0.3,0.5-0.6,0.5H290.3z M295.6,333.2v6.7h7.2v-6.7H295.6z"/>
</g>
<path class="st4" d="M286.3,196.2v-31.9h-96.1H94.2v31.9c11.7,0,21.2,9.5,21.2,21.2s-9.5,21.2-21.2,21.2v31.9h96.1h96.1v-31.9
	c-11.7,0-21.2-9.5-21.2-21.2S274.8,196.2,286.3,196.2z"/>
<line class="st5" x1="133.7" y1="164.2" x2="133.7" y2="200.4"/>
<line class="st5" x1="133.7" y1="213.3" x2="133.7" y2="268.8"/>
<polygon class="st6" points="196.3,192.2 204.3,208.2 222,210.8 209.2,223.3 212.2,240.9 196.3,232.7 180.5,240.9 183.5,223.3 
	170.7,210.8 188.5,208.2 "/>
</svg>
