<?xml version="1.0" encoding="utf-8"?>
<!-- Generator: Adobe Illustrator 23.0.6, SVG Export Plug-In . SVG Version: 6.00 Build 0)  -->
<svg version="1.1" id="Layer_1" xmlns="http://www.w3.org/2000/svg" xmlns:xlink="http://www.w3.org/1999/xlink" x="0px" y="0px"
	 viewBox="0 0 374.3 511.1" style="enable-background:new 0 0 374.3 511.1;" xml:space="preserve">
<style type="text/css">
	.st0{fill:#FDE2DB;}
	.st1{fill:none;stroke:#6E4739;stroke-width:5;stroke-miterlimit:10;}
	.st2{fill:#FBC3B7;stroke:#614B3A;stroke-width:5;stroke-miterlimit:10;}
	.st3{fill:#FBC3B7;stroke:#614B3A;stroke-width:5;stroke-linecap:round;stroke-linejoin:round;stroke-miterlimit:10;}
	.st4{fill:#614B3A;}
	.st5{fill:none;stroke:#614B3A;stroke-width:5;stroke-linecap:round;stroke-linejoin:round;stroke-miterlimit:10;}
	.st6{fill:none;stroke:#614B3A;stroke-width:5.2222;stroke-linecap:round;stroke-linejoin:round;stroke-miterlimit:10;}
	.st7{enable-background:new    ;}
	.st8{fill:#894F4F;}
</style>
<rect y="0" class="st0" width="374.3" height="511.1"/>
<path class="st1" d="M331.8,42.8c-8.6-8.2-11.7-18.8-11.7-18.8H187.2H54.3c0,0-3.2,10.7-11.7,18.8c-8.6,8.2-17.8,10-17.8,10v202.5
	v0.5v202.5c0,0,9.2,1.9,17.8,10c8.6,8.2,11.7,18.8,11.7,18.8h132.9h132.9c0,0,3.2-10.7,11.7-18.8c8.6-8.2,17.8-10,17.8-10V255.8
	v-0.5V52.8C349.5,52.8,340.3,50.9,331.8,42.8z"/>
<path class="st2" d="M229.6,200h-39.8H150c0,0-30.2,24.8-29.5,48.2c0,16.3,12.4,16.7,16.7,15.6s24.3,26,24.3,26h28.3h28.3
	c0,0,20-27,24.3-26c4.3,1.1,16.7,0.7,16.7-15.6C259.8,224.8,229.6,200,229.6,200z"/>
<ellipse transform="matrix(0.9884 -0.1518 0.1518 0.9884 -40.2828 27.3367)" class="st2" cx="158.9" cy="277.5" rx="23.9" ry="27.2"/>
<ellipse transform="matrix(0.1518 -0.9884 0.9884 0.1518 -86.9504 453.8066)" class="st2" cx="220.9" cy="277.6" rx="27.2" ry="23.9"/>
<path class="st2" d="M262.2,106.1c-3.8-18.8-17.3-21.2-27-21.3c-11.1-0.1-22.9,9.4-23.3,19.2c0,0-7.3-4.7-22.4-4.7
	s-22.4,4.7-22.4,4.7c-0.4-9.9-12.2-19.3-23.3-19.2c-9.7,0-23.2,2.5-27,21.3s15.2,26.1,15.2,26.1s-9,14.8-4,40.1
	c6.9,35.4,48.4,39.2,61.5,39.2c13.2,0,53.8-2.9,61.5-39.2c5.6-26.6-4-40.1-4-40.1S265.9,124.9,262.2,106.1z"/>
<path class="st3" d="M144.3,253.4c0,0,0.3-19.4,7.1-27.3"/>
<path class="st3" d="M235.2,253.4c0,0-0.3-19.4-7.1-27.3"/>
<ellipse class="st4" cx="165.4" cy="158" rx="6.2" ry="7.8"/>
<ellipse class="st4" cx="213.3" cy="158" rx="6.2" ry="7.8"/>
<g>
	<path class="st4" d="M196.7,163.5c-0.5-1-2.3-1.9-4-1.9c-1.6,0-4.3,0-6,0s-3.4,0.8-4,1.9s0.6,3.3,2.6,5l0.8,0.7
		c2,1.7,5.2,1.7,7.1,0l0.8-0.7C196.1,166.8,197.2,164.5,196.7,163.5z"/>
</g>
<path class="st5" d="M173.9,174.8c0,0,1.4,6.3,7.9,6.3c5.1,0,7.9-3.7,7.9-3.7v-7.3"/>
<path class="st5" d="M205.6,174.8c0,0-1.4,6.3-7.9,6.3c-5.1,0-7.9-3.7-7.9-3.7v-7.3"/>
<line class="st6" x1="189.8" y1="177.4" x2="189.8" y2="170.1"/>
<path class="st6" d="M205.6,174.8"/>
<g class="st7">
	<path class="st8" d="M95.3,344.3h4.8v37.3h-4.8v-19.8h-3.8v10.5h-15v-25.5h5v9.2h5.2v-9.2h4.8v10.6h3.8V344.3z M86.7,360.2h-5.2
		v7.9h5.2V360.2z M107.5,382.6h-4.9v-38.7h4.9V382.6z"/>
	<path class="st8" d="M132.9,360.1c0,9-4.1,14-10.1,14c-6.1,0-10.1-5-10.1-14c0-9,4.1-14,10.1-14
		C128.9,346.1,132.9,351.1,132.9,360.1z M127.6,360.1c0-6-1.8-9.6-4.9-9.6c-3.1,0-4.9,3.6-4.9,9.6c0,6,1.8,9.6,4.9,9.6
		C125.8,369.7,127.6,366.1,127.6,360.1z M138.3,343.9h5.2v38.7h-5.2V343.9z"/>
	<path class="st8" d="M150.8,372.4v-25.6h5.3v8.9h8.3v-8.9h5.1v25.6H150.8z M164.3,359.9H156v8.3h8.4V359.9z M175.6,343.9h5.2v38.7
		h-5.2V343.9z"/>
	<path class="st8" d="M212.8,360.1c0,8.8-2.9,13.9-8.5,13.9c-5.5,0-8.4-5.1-8.4-13.9c0-8.7,2.9-13.9,8.4-13.9
		C209.9,346.2,212.8,351.4,212.8,360.1z M207.8,360.1c0-5.9-0.9-9.4-3.5-9.4c-2.5,0-3.2,3.4-3.2,9.4c0,6,0.7,9.4,3.2,9.4
		C206.9,369.5,207.8,366.1,207.8,360.1z M227.9,382.6h-5v-21.1h-3.4v20.2h-4.9v-37.3h4.9v12.8h3.4v-13.2h5V382.6z"/>
	<path class="st8" d="M243.5,372.2h-8.7v-25.6h5.3v21.1h4.5c4.9,0,9.4-0.6,13.4-1.7v4.4C254.3,371.4,248.5,372.2,243.5,372.2z
		 M259.4,343.9h5.2v38.7h-5.2V343.9z"/>
	<path class="st8" d="M290.2,361.5h-18.3v-15.9h18.3v5.6h6.5v-7.4h5.2v19.2h-5.2v-7.5h-6.5V361.5z M285.2,357.4v-7.6h-8.1v7.6H285.2
		z M302.6,382.2h-25.5v-10.9h19.6v-2.5h-19.6v-4.2h24.7v10.7h-19.7v2.5h20.4V382.2z"/>
</g>
<g class="st7">
	<path class="st8" d="M91.1,405.6c0-5.8,4.3-10.1,10.2-10.1c6.1,0,10.4,4.3,10.4,10.1c0,5.6-4.3,9.9-10.4,9.9S91.1,411.2,91.1,405.6
		z M96.4,405.6c0,3.4,1.9,5.5,5,5.5c3,0,5-2.1,5-5.5c0-3.6-2-5.8-5-5.8C98.3,399.8,96.4,402,96.4,405.6z M122.7,432H97.4V420h5.1
		v7.6h20.2V432z M121.9,421.5h-5.1V394h5.1V421.5z"/>
	<path class="st8" d="M127.1,403.3v-3.7h23.5v3.7H127.1z M138.9,417.3c-6,0-9.1-3.1-9.1-6.4c0-3.3,3.1-6.3,9.1-6.3
		c5.9,0,9.1,3,9.1,6.3C148,414.2,144.8,417.3,138.9,417.3z M132.1,397.7v-3.8h13.8v3.8H132.1z M146.5,418.6c8.6,0,13.2,3.2,13.2,7.2
		c0,4-4.6,7.2-13.2,7.2c-8.5,0-13.1-3.2-13.1-7.2C133.4,421.9,138,418.6,146.5,418.6z M138.9,413.7c3,0,4.2-1.3,4.2-2.8
		c0-1.6-1.1-2.8-4.2-2.8c-3.1,0-4.2,1.2-4.2,2.8C134.7,412.4,135.8,413.7,138.9,413.7z M146.5,422.7c-5.8,0-7.8,1.6-7.8,3.2
		c0,1.6,2,3.3,7.8,3.3c5.7,0,7.8-1.7,7.8-3.3C154.3,424.3,152.2,422.7,146.5,422.7z M149.2,409.1v-4h4.8V394h5.2v24.7H154v-2.9h-4.8
		v-4h4.8v-2.7H149.2z"/>
	<path class="st8" d="M194,418.4c7,0.5,10.8,3.3,10.8,7.2c0,4.4-4.7,7.4-13.3,7.4c-8.7,0-13.3-3-13.3-7.4c0-3.9,3.7-6.6,10.5-7.2
		V415h-15.5v-4.2h36.6v4.2H194V418.4z M179.1,395.1h12.8c3.3,0,6.4,0,10-0.1c0.9,0,1.2,0.5,0.9,1.5c-0.8,2.3-2.8,4.5-5.8,6.4
		c3.3,1.2,6.9,2,10.8,2.5l-1.8,3.7c-4.8-0.9-9.2-2.1-13.3-4c-4.1,1.8-9.2,3.3-14.7,4.1l-1.9-3.8c11-1.5,17.2-4.4,19.3-6.5v0
		c-3,0.1-5.9,0.2-8.9,0.2h-7.3V395.1z M191.5,422.2c-5.9,0-7.9,1.6-7.9,3.3c0,1.8,2,3.4,7.9,3.4c5.9,0,7.9-1.7,7.9-3.4
		C199.4,423.9,197.4,422.2,191.5,422.2z"/>
	<path class="st8" d="M222.6,415.8V396h14.1v4h-8.9v3.9h8.6v3.8h-8.6v4.1h1.1c3.5,0,6.9-0.3,10.7-1.3v3.9c-3.8,1-8.3,1.4-13.4,1.4
		H222.6z M248.2,432.8v-9h-21v-4.3h26.1v13.3H248.2z M253.3,417.9h-4.9v-10.4h-3.1v10.4h-4.8v-23.4h4.8v8.9h3.1V394h4.9V417.9z"/>
	<path class="st8" d="M271.3,404.4c-0.3,0.1-0.5,0-0.5-0.3v-3c2.3-1,4.3-2.6,6-4.6h5.2v32.3h-5.2v-27.3h0
		C275.2,402.7,273.1,403.7,271.3,404.4z"/>
</g>
</svg>
