<?xml version="1.0" encoding="utf-8"?>
<!-- Generator: Adobe Illustrator 23.0.6, SVG Export Plug-In . SVG Version: 6.00 Build 0)  -->
<svg version="1.1" id="Layer_1" xmlns="http://www.w3.org/2000/svg" xmlns:xlink="http://www.w3.org/1999/xlink" x="0px" y="0px"
	 viewBox="0 0 374.3 511.1" style="enable-background:new 0 0 374.3 511.1;" xml:space="preserve">
<style type="text/css">
	.st0{fill:#FDE2DB;}
	.st1{fill:none;stroke:#6E4739;stroke-width:5;stroke-miterlimit:10;}
	.st2{fill:#FBC3B7;stroke:#6E473A;stroke-width:4.5808;stroke-miterlimit:10;}
	.st3{fill:#FBC3B7;stroke:#6E473A;stroke-width:4.5803;stroke-linecap:round;stroke-linejoin:round;stroke-miterlimit:10;}
	.st4{fill:#FBC3B7;stroke:#6E473A;stroke-width:4.5808;stroke-linecap:round;stroke-linejoin:round;stroke-miterlimit:10;}
	.st5{fill:#6E473A;}
	.st6{fill:none;stroke:#6E473A;stroke-width:4.5808;stroke-linecap:round;stroke-linejoin:round;stroke-miterlimit:10;}
	.st7{fill:none;stroke:#614B3A;stroke-width:4.7844;stroke-linecap:round;stroke-linejoin:round;stroke-miterlimit:10;}
	.st8{enable-background:new    ;}
	.st9{fill:#A06A6A;}
	.st10{fill:#894F4F;}
</style>
<rect x="0.3" y="0.8" class="st0" width="374.3" height="511.1"/>
<path class="st1" d="M332.2,43.6c-8.6-8.2-11.7-18.8-11.7-18.8H187.5H54.6c0,0-3.2,10.7-11.7,18.8c-8.6,8.2-17.8,10-17.8,10v202.5
	v0.5v202.5c0,0,9.2,1.9,17.8,10c8.6,8.2,11.7,18.8,11.7,18.8h132.9h132.9c0,0,3.2-10.7,11.7-18.8c8.6-8.2,17.8-10,17.8-10V256.6
	v-0.5V53.6C349.8,53.6,340.7,51.7,332.2,43.6z"/>
<path class="st2" d="M227,203.2h-36.5H154c0,0-27.7,22.7-27.1,44.2c0,15,11.3,15.3,15.3,14.3s22.3,23.9,22.3,23.9h25.9h25.9
	c0,0,18.3-24.7,22.3-23.9c4,1,15.3,0.6,15.3-14.3C254.7,226,227,203.2,227,203.2z"/>
<path class="st3" d="M256.8,122.3c-3.5-17.2-15.8-19.4-24.7-19.5c-10.2-0.1-21,8.6-21.3,17.6c0,0-6.6-4.3-20.5-4.3
	s-20.5,4.3-20.5,4.3c-0.3-9.1-11.1-17.7-21.3-17.6c-8.9,0-21.3,2.2-24.7,19.5c-3.4,17.2,13.9,23.9,13.9,23.9s-8.2,13.6-3.6,36.7
	c6.3,32.4,44.3,36,56.3,36c12.1,0,49.3-2.7,56.3-36c5.1-24.4-3.6-36.7-3.6-36.7S260.3,139.5,256.8,122.3z"/>
<path class="st4" d="M148.8,252.2c0,0,0.3-17.8,6.5-25"/>
<path class="st4" d="M232.2,252.2c0,0-0.3-17.8-6.5-25"/>
<ellipse class="st5" cx="168.2" cy="169.8" rx="5.7" ry="7.2"/>
<ellipse class="st5" cx="212.2" cy="169.8" rx="5.7" ry="7.2"/>
<g>
	<path class="st5" d="M196.9,174.9c-0.4-1-2.1-1.7-3.6-1.7s-4,0-5.5,0s-3.1,0.7-3.6,1.7s0.5,3,2.4,4.6l0.7,0.6
		c1.8,1.6,4.8,1.6,6.5,0l0.7-0.6C196.2,177.9,197.3,175.8,196.9,174.9z"/>
</g>
<path class="st6" d="M175.9,185.2c0,0,1.3,5.8,7.3,5.8c4.7,0,7.3-3.4,7.3-3.4V181"/>
<path class="st6" d="M205,185.2c0,0-1.3,5.8-7.3,5.8c-4.7,0-7.3-3.4-7.3-3.4V181"/>
<line class="st7" x1="190.7" y1="187.6" x2="190.7" y2="180.9"/>
<path class="st7" d="M205,185.2"/>
<g class="st8">
	<path class="st9" d="M98.8,445.3c-1,0-2-1-2-2c0-1.1,1-2,2-2c1.1,0,2,1,2,2C100.9,444.3,99.9,445.3,98.8,445.3z M114.5,450.2
		l-1.6,1.7l-7.2-7.2l-7.1,7.3l-1.6-1.7l7.1-7.1l-7.1-7.1l1.5-1.6l7.1,7.2l7.2-7.2l1.5,1.6l-7.1,7.1L114.5,450.2z M105.7,438.4
		c-1.1,0-2-1-2-2c0-1.1,1-2,2-2c1.1,0,2,1,2,2C107.8,437.3,106.8,438.4,105.7,438.4z M105.7,452.4c-1.1,0-2-1-2-2c0-1.1,0.9-2,2-2
		c1.1,0,2,1,2,2C107.8,451.4,106.8,452.4,105.7,452.4z M113,445.2c-1,0-2-1-2-2c0-1.1,1-2,2-2c1.1,0,2,1,2,2
		C115.1,444.3,114.1,445.2,113,445.2z"/>
	<path class="st9" d="M127.9,444.1c-4,0-6.7-3-6.7-6.7c0-3.6,2.7-6.7,6.7-6.7c4,0,6.9,3.2,6.9,6.7
		C134.7,441,131.9,444.1,127.9,444.1z M127.9,433.5c-2.1,0-3.6,1.8-3.6,3.9c0,2.2,1.5,4,3.6,4c2.2,0,3.7-1.7,3.7-4
		C131.5,435.2,130,433.5,127.9,433.5z M127.9,455.5c-1.7,0-2.1-0.5-2.1-2v-6.3c0-0.2,0.2-0.4,0.4-0.4h2.4c0.2,0,0.4,0.2,0.4,0.4v5.2
		c0,0.4,0.1,0.4,0.5,0.4h12.9c0.2,0,0.4,0.1,0.4,0.3v2c0,0.2-0.2,0.3-0.4,0.3H127.9z M141.9,447.9c0,0.3-0.1,0.4-0.4,0.4h-2.5
		c-0.3,0-0.4-0.1-0.4-0.4v-18.1c0-0.3,0.1-0.4,0.4-0.4h2.5c0.3,0,0.4,0.1,0.4,0.4V447.9z"/>
	<path class="st9" d="M147.4,435.7c-0.2,0-0.4-0.2-0.4-0.4v-1.6c0-0.2,0.3-0.4,0.5-0.4H162c0.2,0,0.4,0.2,0.4,0.4v1.6
		c0,0.2-0.2,0.4-0.4,0.4H147.4z M154.8,445.8c-3.3,0-5.9-2-5.9-4.8c0-2.7,2.6-4.4,6-4.4c3.4,0,6,1.8,6,4.6
		C160.8,444,158.2,445.8,154.8,445.8z M151.2,432.1c-0.1,0-0.4-0.1-0.4-0.4v-1.6c0-0.3,0.3-0.4,0.4-0.4h7.1c0.3,0,0.5,0.2,0.5,0.4
		v1.5c0,0.2-0.2,0.5-0.5,0.5H151.2z M151.8,451.2c0-2.7,3.2-4.6,8.4-4.6c4.8,0,8.5,1.9,8.5,4.6c0,2.8-3.6,4.7-8.5,4.7
		C155.1,455.9,151.8,454,151.8,451.2z M154.8,443.4c1.8,0,2.9-0.9,2.9-2.2c0-1.3-1.1-2.1-2.9-2.1c-1.8,0-2.9,0.8-2.9,2.1
		C151.9,442.5,153,443.4,154.8,443.4z M155.1,451.3c0,1.5,2.2,2.2,5.1,2.2c2.7,0,5.1-0.7,5.1-2.2c0-1.5-2.4-2.3-5.1-2.3
		C157.2,449,155.1,449.8,155.1,451.3z M161.6,437.3c0-0.2,0.2-0.3,0.4-0.3h3.3v-7.2c0-0.3,0.1-0.4,0.4-0.4h2.5
		c0.2,0,0.4,0.2,0.4,0.4v16.2c0,0.2-0.2,0.4-0.4,0.4h-2.5c-0.2,0-0.4-0.2-0.4-0.4v-2H162c-0.2,0-0.4-0.1-0.4-0.3v-1.9
		c0-0.2,0.2-0.3,0.4-0.3h3.3v-1.9H162c-0.2,0-0.4-0.1-0.4-0.3V437.3z"/>
	<path class="st9" d="M187.6,453.1c-0.3,0-0.4-0.1-0.4-0.4v-16.6l-2.1,1.8c-0.2,0.1-0.5,0.2-0.6,0.1l-1.3-1.5
		c-0.1-0.1-0.1-0.4,0.1-0.6l4.3-3.9c0.1-0.1,0.3-0.2,0.4-0.2h1.5c0.6,0,0.7,0,0.7,0.8v20.2c0,0.3-0.1,0.4-0.4,0.4H187.6z"/>
	<path class="st9" d="M197.5,444.6c-0.2,0-0.4-0.2-0.4-0.4v-1.8c0-0.3,0.1-0.4,0.4-0.4h10.6v-2.9c0-0.3,0.1-0.4,0.4-0.4h2.4
		c0.3,0,0.4,0.1,0.4,0.4v2.9h10.4c0.2,0,0.5,0.2,0.5,0.4v1.8c0,0.2-0.2,0.4-0.4,0.4H197.5z M199.7,439.3l-0.5-1.6
		c-0.1-0.2,0.1-0.5,0.3-0.5c3.9-0.7,9.1-2.3,12.2-4c0.5-0.2,0.8-0.6,0-0.6h-10.1c-0.3,0-0.4-0.1-0.4-0.4v-1.8c0-0.2,0.1-0.3,0.4-0.3
		h13.3c1.5,0,2.5,0.5,2.5,1.4c0,0.8-0.7,1.5-1,1.8c-0.8,0.8-1.9,1.5-3.3,2.2c1.9,0.5,5,1.1,7.1,1.4c0.3,0,0.5,0.2,0.4,0.5l-0.6,1.5
		c-0.1,0.2-0.3,0.4-0.6,0.3c-2.8-0.4-6.9-1.3-9.8-2.2c-2.7,1.1-5.9,2-9.3,2.6C200,439.7,199.7,439.6,199.7,439.3z M209.7,456.1
		c-5.6,0-8.8-2-8.8-4.8c0-2.8,3.2-4.8,8.8-4.8s8.8,2,8.8,4.8C218.5,454.1,215.3,456.1,209.7,456.1z M204,451.3
		c0,1.2,1.9,2.4,5.7,2.4c3.7,0,5.7-1.1,5.7-2.4c0-1.2-1.9-2.4-5.7-2.4C205.9,448.9,204,450,204,451.3z"/>
	<path class="st9" d="M232.3,444.1c-0.4-0.4-0.2-0.6,0.1-0.9c4.2-2.8,6.2-6.5,6.2-12.5c0-0.3,0.2-0.5,0.4-0.5l2.5,0.1
		c0.3,0,0.4,0.1,0.4,0.4c0,1.8-0.2,3.3-0.5,4.7c0.9,3.1,3.8,5.8,5.9,6.9c0.3,0.1,0.3,0.4,0.1,0.7l-1.1,1.5c-0.2,0.3-0.4,0.4-0.7,0.2
		c-2.3-1.2-4.3-3.2-5.6-5.4c-1.3,2.5-3.2,4.4-5.7,6.1c-0.5,0.3-0.7,0.2-0.9-0.1L232.3,444.1z M239.7,455.6c-1.7,0-2.1-0.5-2.1-2
		v-6.1c0-0.2,0.2-0.4,0.4-0.4h2.4c0.2,0,0.4,0.2,0.4,0.4v5c0,0.4,0.1,0.4,0.5,0.4h13c0.2,0,0.4,0.2,0.4,0.4v2c0,0.2-0.2,0.3-0.4,0.3
		H239.7z M245.1,435.7c0-0.2,0.2-0.3,0.4-0.3h5.1v-5.6c0-0.3,0.1-0.4,0.4-0.4h2.5c0.3,0,0.4,0.1,0.4,0.4V448c0,0.3-0.1,0.4-0.4,0.4
		H251c-0.3,0-0.4-0.1-0.4-0.4v-9.9h-5.1c-0.2,0-0.4-0.1-0.4-0.3V435.7z"/>
	<path class="st9" d="M261.1,444.4c-1.4-0.1-2-0.8-2-2v-9.7c0-1.3,0.5-1.8,1.9-1.8h8c0.3,0,0.4,0.1,0.4,0.4v1.8
		c0,0.2-0.2,0.4-0.4,0.4h-6.1c-0.4,0-0.5,0.2-0.5,0.5v2.4c2.3,0,4.8,0,6.6-0.1c0.1,0,0.3,0.1,0.3,0.3l0,1.7c0,0.3-0.1,0.5-0.3,0.5
		c-1.9,0.1-4.5,0.2-6.7,0.2v2.1c0,0.6,0.2,0.7,0.8,0.8c1.6,0.2,5.3-0.1,7.3-0.6c0.3-0.1,0.5,0,0.6,0.3l0.3,1.5
		c0.1,0.3-0.3,0.5-0.4,0.6C268.2,444.3,263.7,444.6,261.1,444.4z M278.5,455.9c-0.2,0-0.4-0.2-0.4-0.4v-5.6c0-0.4-0.2-0.4-0.5-0.4
		h-13.9c-0.2,0-0.4-0.1-0.4-0.3v-2c0-0.2,0.2-0.3,0.4-0.3h15.8c1.4,0,1.9,0.5,1.9,1.9v6.8c0,0.2-0.2,0.4-0.4,0.4H278.5z
		 M278.1,429.8c0-0.3,0.1-0.4,0.4-0.4h2.4c0.3,0,0.4,0.1,0.4,0.4v15.4c0,0.3-0.1,0.4-0.4,0.4h-2.4c-0.3,0-0.4-0.1-0.4-0.4V439h-2.5
		v5.9c0,0.3-0.1,0.4-0.4,0.4H273c-0.3,0-0.4-0.1-0.4-0.4v-14.7c0-0.3,0.1-0.4,0.4-0.4h2.3c0.3,0,0.4,0.1,0.4,0.4v6.1h2.5V429.8z"/>
</g>
<g class="st8">
	<path class="st10" d="M78.6,359.7c-2.4,0-3.1-0.7-3.1-2.8v-21.2c0-0.3,0.2-0.5,0.5-0.5h3.4c0.3,0,0.6,0.2,0.6,0.5v8.7h7v-8.7
		c0-0.3,0.2-0.5,0.5-0.5h3.4c0.3,0,0.5,0.2,0.5,0.5v10.3h4.1v-12c0-0.4,0.2-0.5,0.6-0.5h3.3c0.4,0,0.5,0.2,0.5,0.5v35
		c0,0.4-0.2,0.6-0.5,0.6h-3.3c-0.4,0-0.6-0.2-0.6-0.6v-19.1h-4.1v7.2c0,1.8-0.7,2.7-3,2.7H78.6z M87,348h-7v7.3
		c0,0.4,0.2,0.7,0.8,0.7h5.4c0.5,0,0.8-0.2,0.8-0.7V348z M103.6,370.7c-0.4,0-0.5-0.2-0.5-0.5v-37c0-0.4,0.2-0.5,0.6-0.5h3.4
		c0.4,0,0.5,0.2,0.5,0.5v37c0,0.4-0.2,0.5-0.5,0.5H103.6z"/>
	<path class="st10" d="M113.9,348.3c0-8,3.7-13.2,9.8-13.2c6.2,0,9.8,5.2,9.8,13.2c0,8-3.7,13.2-9.8,13.2
		C117.6,361.5,113.9,356.1,113.9,348.3z M123.8,339.2c-3.4,0-5.3,4.1-5.3,9.1c0,4.8,2,9.1,5.3,9.1s5.3-4.3,5.3-9.1
		C129.1,343.3,127.1,339.2,123.8,339.2z M143.5,370.1c0,0.4-0.2,0.5-0.5,0.5h-3.6c-0.4,0-0.5-0.2-0.5-0.5v-36.9
		c0-0.4,0.2-0.5,0.5-0.5h3.6c0.4,0,0.5,0.2,0.5,0.5V370.1z"/>
	<path class="st10" d="M155.1,359.7c-2.4,0-3-0.7-3-2.8v-21.6c0-0.3,0.2-0.5,0.5-0.5h3.5c0.3,0,0.6,0.2,0.6,0.5v8.8h8.8v-8.8
		c0-0.3,0.3-0.5,0.6-0.5h3.5c0.3,0,0.6,0.2,0.6,0.5V357c0,1.8-0.8,2.7-3,2.7H155.1z M165.5,347.7h-8.8v7.5c0,0.4,0.2,0.7,0.7,0.7
		h7.4c0.5,0,0.7-0.2,0.7-0.7V347.7z M181.1,370.1c0,0.4-0.2,0.5-0.5,0.5H177c-0.4,0-0.5-0.2-0.5-0.5v-36.9c0-0.4,0.2-0.5,0.5-0.5
		h3.6c0.4,0,0.5,0.2,0.5,0.5V370.1z"/>
	<path class="st10" d="M198.9,347.9c0-8.5,3.5-12.6,8.5-12.6c5.1,0,8.6,4.1,8.6,12.6c0,8.5-3.5,12.6-8.6,12.6
		C202.4,360.5,198.9,356.4,198.9,347.9z M207.4,339.3c-2.8,0-4.1,4.7-4.1,8.6c0,4,1.3,8.6,4.1,8.6c2.9,0,4.1-4.7,4.1-8.6
		C211.6,343.9,210.3,339.3,207.4,339.3z M227.1,333.2c0-0.4,0.2-0.5,0.6-0.5h3.4c0.4,0,0.5,0.2,0.5,0.5v36.9c0,0.4-0.2,0.5-0.5,0.5
		h-3.5c-0.4,0-0.5-0.2-0.5-0.5v-18.9h-3.7v17.4c0,0.4-0.2,0.6-0.5,0.6h-3.3c-0.4,0-0.6-0.2-0.6-0.6v-34.7c0-0.4,0.2-0.5,0.6-0.5h3.3
		c0.4,0,0.5,0.2,0.5,0.5v13.5h3.7V333.2z"/>
	<path class="st10" d="M241.8,359.5c-2.1-0.1-2.9-1.2-2.9-3v-20.8c0-0.3,0.3-0.6,0.6-0.6h3.4c0.3,0,0.6,0.3,0.6,0.6v19.3
		c0,0.5,0.2,0.6,0.8,0.6c4.3,0.3,9.4-0.1,14.8-1.2c0.5-0.1,0.7,0.3,0.8,0.6l0.5,2.2c0.1,0.4-0.2,0.7-0.7,0.8
		C255.1,359.3,247.6,359.8,241.8,359.5z M267.5,370.1c0,0.4-0.2,0.5-0.5,0.5h-3.6c-0.4,0-0.5-0.2-0.5-0.5v-36.9
		c0-0.4,0.2-0.5,0.5-0.5h3.6c0.4,0,0.5,0.2,0.5,0.5V370.1z"/>
	<path class="st10" d="M278.9,351.1c-1.9,0-2.8-0.7-2.8-2.8v-11.7c0-2,0.7-2.7,2.8-2.7h12c2,0,2.8,0.7,2.8,2.8v4h6.9v-7.5
		c0-0.4,0.2-0.5,0.5-0.5h3.6c0.4,0,0.5,0.2,0.5,0.5v18.9c0,0.4-0.2,0.5-0.5,0.5h-3.6c-0.4,0-0.5-0.2-0.5-0.5v-7.5h-6.9v3.8
		c0,2-0.7,2.8-2.8,2.8H278.9z M289.2,338.3c0-0.4-0.1-0.5-0.5-0.5h-7.4c-0.4,0-0.5,0-0.5,0.5v8.6c0,0.5,0.1,0.5,0.5,0.5h7.4
		c0.4,0,0.5,0,0.5-0.5V338.3z M284.1,370.6c-2.1,0-2.7-0.8-2.7-2.5v-4.9c0-1.7,0.6-2.4,2.6-2.4h16.2c0.5,0,0.5-0.1,0.5-0.6v-1.5
		c0-0.6,0-0.6-0.6-0.6h-18.3c-0.3,0-0.6-0.2-0.6-0.5V355c0-0.3,0.3-0.6,0.6-0.6h20.6c2.2,0,2.7,0.7,2.7,2.5v4.8
		c0,1.9-0.5,2.4-2.7,2.4h-16c-0.5,0-0.5,0.1-0.5,0.5v1.7c0,0.5,0,0.5,0.6,0.5h19.2c0.3,0,0.6,0.2,0.6,0.6v2.6c0,0.3-0.3,0.6-0.5,0.6
		H284.1z"/>
</g>
<ellipse transform="matrix(0.9884 -0.1518 0.1518 0.9884 -38.7781 27.7329)" class="st2" cx="162.2" cy="267.8" rx="21.9" ry="24.9"/>
<ellipse transform="matrix(0.1518 -0.9884 0.9884 0.1518 -78.927 443.8739)" class="st2" cx="219.2" cy="267.9" rx="24.9" ry="21.9"/>
</svg>
