<?xml version="1.0" encoding="utf-8"?>
<!-- Generator: Adobe Illustrator 23.0.6, SVG Export Plug-In . SVG Version: 6.00 Build 0)  -->
<svg version="1.1" id="Layer_1" xmlns="http://www.w3.org/2000/svg" xmlns:xlink="http://www.w3.org/1999/xlink" x="0px" y="0px"
	 viewBox="0 0 374.3 511.1" style="enable-background:new 0 0 374.3 511.1;" xml:space="preserve">
<style type="text/css">
	.st0{fill:#FDE2DB;}
	.st1{fill:none;stroke:#6E4739;stroke-width:5;stroke-miterlimit:10;}
	.st2{fill:#FBC3B7;stroke:#6E473A;stroke-width:4.7167;stroke-miterlimit:10;}
	.st3{fill:#F9B2A0;stroke:#6E473A;stroke-width:4.7167;stroke-miterlimit:10;}
	.st4{fill:#E57F73;}
	.st5{fill:none;stroke:#6E473A;stroke-width:4.7166;stroke-linecap:round;stroke-linejoin:round;stroke-miterlimit:10;}
	.st6{fill:#6E473A;}
	.st7{enable-background:new    ;}
	.st8{fill:#894F4F;}
	.st9{fill:#A06A6A;}
</style>
<rect x="0.4" y="0.8" class="st0" width="374.3" height="511.1"/>
<path class="st1" d="M332,43.6c-8.6-8.2-11.7-18.8-11.7-18.8H187.5H54.7c0,0-3.2,10.7-11.7,18.8c-8.6,8.2-17.8,10-17.8,10v202.5v0.5
	v202.5c0,0,9.2,1.9,17.8,10c8.6,8.2,11.7,18.8,11.7,18.8h132.8h132.9c0,0,3.2-10.7,11.7-18.8c8.6-8.2,17.8-10,17.8-10V256.6v-0.5
	V53.6C349.9,53.6,340.6,51.7,332,43.6z"/>
<path class="st2" d="M251.6,189.7c0,0,6.5-16.5-7-30.9c0,0,2.8-16.3-14.3-24.1c0,0-1.7-16.4-21.6-16.4c0,0-3-9.2-17.3-9.8
	c-14.3,0.6-17.3,9.8-17.3,9.8c-20,0-21.6,16.4-21.6,16.4c-16.9,7.8-14.1,24.1-14.1,24.1c-13.5,14.5-7,30.9-7,30.9
	c-12.4,16,0.8,30.8,0.8,30.8c-10,21.9,11.7,28.6,11.7,28.6h47.7h47.7c0,0,21.7-6.8,11.7-28.6C251,220.5,264.1,205.8,251.6,189.7z"/>
<path class="st3" d="M198.2,276.1c-21.3,6.3-63.2-1.6-78.5-34.4c-12-25.6-8.1-52.6-3.2-56.8c3.5-3,7,16,18.7,30.1
	c9.3,11.3,24.3,19.5,39.6,21.6c20.4,2.8,28.1,6.5,33.6,11.8C214.8,254.8,216.5,270.6,198.2,276.1z"/>
<path class="st3" d="M187,277.5c21.3,6.3,63.2-1.6,78.5-34.4c12-25.6,8.1-52.6,3.2-56.8c-3.5-3-7,16-18.7,30.1
	c-9.3,11.3-24.3,19.5-39.6,21.6c-20.4,2.8-28.1,6.5-33.6,11.8C170.5,256.2,168.7,272.1,187,277.5z"/>
<path class="st4" d="M201.5,186.8c-1.3-1.3-18-1.8-19.8,0s-2.3,16,9.9,16S202.9,188,201.5,186.8z"/>
<path class="st5" d="M128.3,224.8c0,0,10.2,30,43.9,36.4"/>
<path class="st5" d="M175.9,266.4c0,0,62.2,8.4,85.8-45.2"/>
<ellipse class="st6" cx="171.5" cy="175" rx="5.9" ry="7.3"/>
<ellipse class="st6" cx="211.5" cy="175" rx="5.9" ry="7.3"/>
<g class="st7">
	<path class="st8" d="M96.6,345.5c-2.4,0-3.1-0.7-3.1-2.8v-21.2c0-0.3,0.2-0.5,0.5-0.5h3.4c0.3,0,0.6,0.2,0.6,0.5v8.7h7v-8.7
		c0-0.3,0.2-0.5,0.5-0.5h3.4c0.3,0,0.5,0.2,0.5,0.5v10.3h4.1v-12c0-0.4,0.2-0.5,0.6-0.5h3.3c0.4,0,0.5,0.2,0.5,0.5v35
		c0,0.4-0.2,0.6-0.5,0.6H114c-0.4,0-0.6-0.2-0.6-0.6v-19.1h-4.1v7.2c0,1.8-0.7,2.7-3,2.7H96.6z M104.9,333.8h-7v7.3
		c0,0.4,0.2,0.7,0.8,0.7h5.4c0.5,0,0.8-0.2,0.8-0.7V333.8z M121.6,356.5c-0.4,0-0.5-0.2-0.5-0.5v-37c0-0.4,0.2-0.5,0.6-0.5h3.4
		c0.4,0,0.5,0.2,0.5,0.5v37c0,0.4-0.2,0.5-0.5,0.5H121.6z"/>
	<path class="st8" d="M131.8,334.1c0-8,3.7-13.2,9.8-13.2c6.2,0,9.8,5.2,9.8,13.2c0,8-3.7,13.2-9.8,13.2
		C135.6,347.3,131.8,341.9,131.8,334.1z M141.7,325c-3.4,0-5.3,4.1-5.3,9.1c0,4.8,2,9.1,5.3,9.1s5.3-4.3,5.3-9.1
		C147,329.1,145,325,141.7,325z M161.4,355.9c0,0.4-0.2,0.5-0.5,0.5h-3.6c-0.4,0-0.5-0.2-0.5-0.5V319c0-0.4,0.2-0.5,0.5-0.5h3.6
		c0.4,0,0.5,0.2,0.5,0.5V355.9z"/>
	<path class="st8" d="M173,345.5c-2.4,0-3-0.7-3-2.8v-21.6c0-0.3,0.2-0.5,0.5-0.5h3.5c0.3,0,0.6,0.2,0.6,0.5v8.8h8.8V321
		c0-0.3,0.3-0.5,0.6-0.5h3.5c0.3,0,0.6,0.2,0.6,0.5v21.8c0,1.8-0.8,2.7-3,2.7H173z M183.4,333.5h-8.8v7.5c0,0.4,0.2,0.7,0.7,0.7h7.4
		c0.5,0,0.7-0.2,0.7-0.7V333.5z M199,355.9c0,0.4-0.2,0.5-0.5,0.5H195c-0.4,0-0.5-0.2-0.5-0.5V319c0-0.4,0.2-0.5,0.5-0.5h3.6
		c0.4,0,0.5,0.2,0.5,0.5V355.9z"/>
	<path class="st8" d="M236,343.1v12.6c0,0.4-0.2,0.6-0.6,0.6H232c-0.4,0-0.6-0.2-0.6-0.6v-12.6h-15.2c-0.3,0-0.6-0.4-0.6-0.6v-2.6
		c0-0.3,0.2-0.6,0.6-0.6H251c0.3,0,0.6,0.3,0.6,0.6v2.6c0,0.3-0.3,0.6-0.6,0.6H236z M221,323c-0.3,0-0.7-0.3-0.7-0.7v-2.4
		c0-0.3,0.4-0.6,0.7-0.6h25.2c0.3,0,0.6,0.3,0.6,0.6v2.4c0,0.4-0.3,0.6-0.6,0.6h-4v8.6h4.8c0.3,0,0.6,0.3,0.6,0.6v2.4
		c0,0.4-0.3,0.6-0.6,0.6h-26.8c-0.3,0-0.6-0.3-0.6-0.7v-2.4c0-0.3,0.4-0.6,0.6-0.6h4.8V323H221z M229.5,323v8.6h8.3V323H229.5z"/>
	<path class="st8" d="M289.2,349.1c0,0.3-0.3,0.6-0.6,0.6h-34.8c-0.3,0-0.6-0.3-0.6-0.6v-2.6c0-0.3,0.2-0.6,0.6-0.6h34.8
		c0.3,0,0.6,0.3,0.6,0.6V349.1z M261.5,338.4c-2.1,0-3-1.1-3-3v-11.6c0-2,0.8-2.6,2.9-2.6h22c0.4,0,0.6,0.2,0.6,0.5v2.8
		c0,0.4-0.2,0.5-0.6,0.5h-19.5c-0.5,0-0.7,0.2-0.7,0.7v8.2c0,0.5,0.1,0.7,0.7,0.7h19.7c0.4,0,0.6,0,0.6,0.5v2.7
		c0,0.4-0.2,0.6-0.5,0.6H261.5z"/>
</g>
<g class="st7">
	<path class="st9" d="M99.1,445.3c-1,0-2-1-2-2c0-1.1,1-2,2-2c1.1,0,2,1,2,2C101.1,444.3,100.1,445.3,99.1,445.3z M114.7,450.2
		l-1.6,1.7l-7.2-7.2l-7.1,7.3l-1.6-1.7l7.1-7.1l-7.1-7.1l1.5-1.6l7.1,7.2l7.2-7.2l1.5,1.6l-7.1,7.1L114.7,450.2z M106,438.4
		c-1.1,0-2-1-2-2c0-1.1,1-2,2-2c1.1,0,2,1,2,2C108,437.3,107,438.4,106,438.4z M106,452.4c-1.1,0-2-1-2-2c0-1.1,0.9-2,2-2
		c1.1,0,2,1,2,2C108,451.4,107.1,452.4,106,452.4z M113.3,445.2c-1,0-2-1-2-2c0-1.1,1-2,2-2c1.1,0,2,1,2,2
		C115.3,444.3,114.4,445.2,113.3,445.2z"/>
	<path class="st9" d="M128.1,444.1c-4,0-6.7-3-6.7-6.7c0-3.6,2.7-6.7,6.7-6.7c4,0,6.9,3.2,6.9,6.7C135,441,132.1,444.1,128.1,444.1z
		 M128.1,433.5c-2.1,0-3.6,1.8-3.6,3.9c0,2.2,1.5,4,3.6,4c2.2,0,3.7-1.7,3.7-4C131.8,435.2,130.3,433.5,128.1,433.5z M128.1,455.5
		c-1.7,0-2.1-0.5-2.1-2v-6.3c0-0.2,0.2-0.4,0.4-0.4h2.4c0.2,0,0.4,0.2,0.4,0.4v5.2c0,0.4,0.1,0.4,0.5,0.4h12.9
		c0.2,0,0.4,0.1,0.4,0.3v2c0,0.2-0.2,0.3-0.4,0.3H128.1z M142.2,447.9c0,0.3-0.1,0.4-0.4,0.4h-2.5c-0.3,0-0.4-0.1-0.4-0.4v-18.1
		c0-0.3,0.1-0.4,0.4-0.4h2.5c0.3,0,0.4,0.1,0.4,0.4V447.9z"/>
	<path class="st9" d="M147.6,435.7c-0.2,0-0.4-0.2-0.4-0.4v-1.6c0-0.2,0.3-0.4,0.5-0.4h14.6c0.2,0,0.4,0.2,0.4,0.4v1.6
		c0,0.2-0.2,0.4-0.4,0.4H147.6z M155,445.8c-3.3,0-5.9-2-5.9-4.8c0-2.7,2.6-4.4,6-4.4c3.4,0,6,1.8,6,4.6
		C161,444,158.4,445.8,155,445.8z M151.4,432.1c-0.1,0-0.4-0.1-0.4-0.4v-1.6c0-0.3,0.3-0.4,0.4-0.4h7.1c0.3,0,0.5,0.2,0.5,0.4v1.5
		c0,0.2-0.2,0.5-0.5,0.5H151.4z M152,451.2c0-2.7,3.2-4.6,8.4-4.6c4.8,0,8.5,1.9,8.5,4.6c0,2.8-3.6,4.7-8.5,4.7
		C155.3,455.9,152,454,152,451.2z M155,443.4c1.8,0,2.9-0.9,2.9-2.2c0-1.3-1.1-2.1-2.9-2.1c-1.8,0-2.9,0.8-2.9,2.1
		C152.1,442.5,153.3,443.4,155,443.4z M155.4,451.3c0,1.5,2.2,2.2,5.1,2.2c2.7,0,5.1-0.7,5.1-2.2c0-1.5-2.4-2.3-5.1-2.3
		C157.5,449,155.4,449.8,155.4,451.3z M161.8,437.3c0-0.2,0.2-0.3,0.4-0.3h3.3v-7.2c0-0.3,0.1-0.4,0.4-0.4h2.5
		c0.2,0,0.4,0.2,0.4,0.4v16.2c0,0.2-0.2,0.4-0.4,0.4h-2.5c-0.2,0-0.4-0.2-0.4-0.4v-2h-3.3c-0.2,0-0.4-0.1-0.4-0.3v-1.9
		c0-0.2,0.2-0.3,0.4-0.3h3.3v-1.9h-3.3c-0.2,0-0.4-0.1-0.4-0.3V437.3z"/>
	<path class="st9" d="M187.8,453.1c-0.3,0-0.4-0.1-0.4-0.4v-16.6l-2.1,1.8c-0.2,0.1-0.5,0.2-0.6,0.1l-1.3-1.5
		c-0.1-0.1-0.1-0.4,0.1-0.6l4.3-3.9c0.1-0.1,0.3-0.2,0.4-0.2h1.5c0.6,0,0.7,0,0.7,0.8v20.2c0,0.3-0.1,0.4-0.4,0.4H187.8z"/>
	<path class="st9" d="M197.7,444.6c-0.2,0-0.4-0.2-0.4-0.4v-1.8c0-0.3,0.1-0.4,0.4-0.4h10.6v-2.9c0-0.3,0.1-0.4,0.4-0.4h2.4
		c0.3,0,0.4,0.1,0.4,0.4v2.9H222c0.2,0,0.5,0.2,0.5,0.4v1.8c0,0.2-0.2,0.4-0.4,0.4H197.7z M199.9,439.3l-0.5-1.6
		c-0.1-0.2,0.1-0.5,0.3-0.5c3.9-0.7,9.1-2.3,12.2-4c0.5-0.2,0.8-0.6,0-0.6h-10.1c-0.3,0-0.4-0.1-0.4-0.4v-1.8c0-0.2,0.1-0.3,0.4-0.3
		h13.3c1.5,0,2.5,0.5,2.5,1.4c0,0.8-0.7,1.5-1,1.8c-0.8,0.8-1.9,1.5-3.3,2.2c1.9,0.5,5,1.1,7.1,1.4c0.3,0,0.5,0.2,0.4,0.5l-0.6,1.5
		c-0.1,0.2-0.3,0.4-0.6,0.3c-2.8-0.4-6.9-1.3-9.8-2.2c-2.7,1.1-5.9,2-9.3,2.6C200.2,439.7,200,439.6,199.9,439.3z M209.9,456.1
		c-5.6,0-8.8-2-8.8-4.8c0-2.8,3.2-4.8,8.8-4.8s8.8,2,8.8,4.8C218.7,454.1,215.5,456.1,209.9,456.1z M204.2,451.3
		c0,1.2,1.9,2.4,5.7,2.4c3.7,0,5.7-1.1,5.7-2.4c0-1.2-1.9-2.4-5.7-2.4C206.2,448.9,204.2,450,204.2,451.3z"/>
	<path class="st9" d="M232.5,444.1c-0.4-0.4-0.2-0.6,0.1-0.9c4.2-2.8,6.2-6.5,6.2-12.5c0-0.3,0.2-0.5,0.4-0.5l2.5,0.1
		c0.3,0,0.4,0.1,0.4,0.4c0,1.8-0.2,3.3-0.5,4.7c0.9,3.1,3.8,5.8,5.9,6.9c0.3,0.1,0.3,0.4,0.1,0.7l-1.1,1.5c-0.2,0.3-0.4,0.4-0.7,0.2
		c-2.3-1.2-4.3-3.2-5.6-5.4c-1.3,2.5-3.2,4.4-5.7,6.1c-0.5,0.3-0.7,0.2-0.9-0.1L232.5,444.1z M239.9,455.6c-1.7,0-2.1-0.5-2.1-2
		v-6.1c0-0.2,0.2-0.4,0.4-0.4h2.4c0.2,0,0.4,0.2,0.4,0.4v5c0,0.4,0.1,0.4,0.5,0.4h13c0.2,0,0.4,0.2,0.4,0.4v2c0,0.2-0.2,0.3-0.4,0.3
		H239.9z M245.3,435.7c0-0.2,0.2-0.3,0.4-0.3h5.1v-5.6c0-0.3,0.1-0.4,0.4-0.4h2.5c0.3,0,0.4,0.1,0.4,0.4V448c0,0.3-0.1,0.4-0.4,0.4
		h-2.5c-0.3,0-0.4-0.1-0.4-0.4v-9.9h-5.1c-0.2,0-0.4-0.1-0.4-0.3V435.7z"/>
	<path class="st9" d="M261.3,444.4c-1.4-0.1-2-0.8-2-2v-9.7c0-1.3,0.5-1.8,1.9-1.8h8c0.3,0,0.4,0.1,0.4,0.4v1.8
		c0,0.2-0.2,0.4-0.4,0.4H263c-0.4,0-0.5,0.2-0.5,0.5v2.4c2.3,0,4.8,0,6.6-0.1c0.1,0,0.3,0.1,0.3,0.3l0,1.7c0,0.3-0.1,0.5-0.3,0.5
		c-1.9,0.1-4.5,0.2-6.7,0.2v2.1c0,0.6,0.2,0.7,0.8,0.8c1.6,0.2,5.3-0.1,7.3-0.6c0.3-0.1,0.5,0,0.6,0.3l0.3,1.5
		c0.1,0.3-0.3,0.5-0.4,0.6C268.5,444.3,264,444.6,261.3,444.4z M278.7,455.9c-0.2,0-0.4-0.2-0.4-0.4v-5.6c0-0.4-0.2-0.4-0.5-0.4
		h-13.9c-0.2,0-0.4-0.1-0.4-0.3v-2c0-0.2,0.2-0.3,0.4-0.3h15.8c1.4,0,1.9,0.5,1.9,1.9v6.8c0,0.2-0.2,0.4-0.4,0.4H278.7z
		 M278.4,429.8c0-0.3,0.1-0.4,0.4-0.4h2.4c0.3,0,0.4,0.1,0.4,0.4v15.4c0,0.3-0.1,0.4-0.4,0.4h-2.4c-0.3,0-0.4-0.1-0.4-0.4V439h-2.5
		v5.9c0,0.3-0.1,0.4-0.4,0.4h-2.3c-0.3,0-0.4-0.1-0.4-0.4v-14.7c0-0.3,0.1-0.4,0.4-0.4h2.3c0.3,0,0.4,0.1,0.4,0.4v6.1h2.5V429.8z"/>
</g>
</svg>
