<?xml version="1.0" encoding="utf-8"?>
<!-- Generator: Adobe Illustrator 23.0.6, SVG Export Plug-In . SVG Version: 6.00 Build 0)  -->
<svg version="1.1" id="Layer_1" xmlns="http://www.w3.org/2000/svg" xmlns:xlink="http://www.w3.org/1999/xlink" x="0px" y="0px"
	 viewBox="0 0 374.3 511.1" style="enable-background:new 0 0 374.3 511.1;" xml:space="preserve">
<style type="text/css">
	.st0{fill:#FDE2DB;}
	.st1{fill:none;stroke:#6E4739;stroke-width:5;stroke-miterlimit:10;}
	.st2{fill:#FBC3B7;stroke:#614B3A;stroke-width:5;stroke-miterlimit:10;}
	.st3{fill:#F9B2A0;stroke:#614B3A;stroke-width:5;stroke-miterlimit:10;}
	.st4{fill:#E57F73;}
	.st5{fill:none;stroke:#614B3A;stroke-width:5;stroke-miterlimit:10;}
	.st6{fill:#614B3A;}
	.st7{enable-background:new    ;}
	.st8{fill:#894F4F;}
</style>
<rect x="0.1" y="0" class="st0" width="374.3" height="511.1"/>
<path class="st1" d="M331.8,42.8c-8.6-8.2-11.7-18.8-11.7-18.8H187.2H54.4c0,0-3.2,10.7-11.7,18.8c-8.6,8.2-17.8,10-17.8,10v202.5
	v0.5v202.5c0,0,9.2,1.9,17.8,10c8.6,8.2,11.7,18.8,11.7,18.8h132.8h132.9c0,0,3.2-10.7,11.7-18.8c8.6-8.2,17.8-10,17.8-10V255.8
	v-0.5V52.8C349.6,52.8,340.4,50.9,331.8,42.8z"/>
<g>
	<path class="st2" d="M252.9,183.8c0,0,6.9-17.5-7.5-32.8c0,0,3-17.3-15.1-25.5c0,0-1.8-17.4-22.9-17.4c0,0-3.2-9.7-18.3-10.4
		c-15.1,0.7-18.3,10.4-18.3,10.4c-21.2,0-22.9,17.4-22.9,17.4c-18.1,8.2-15.1,25.5-15.1,25.5c-14.4,15.3-7.5,32.8-7.5,32.8
		c-13.1,17,0.9,32.6,0.9,32.6c-10.6,23.2,12.4,30.4,12.4,30.4h50.6h50.6c0,0,23-7.2,12.4-30.4C252.1,216.4,266.1,200.9,252.9,183.8z
		"/>
	<path class="st3" d="M196.1,275.4c-22.6,6.7-67-1.6-83.3-36.5c-12.7-27.2-8.5-55.8-3.4-60.2c3.7-3.2,7.4,17,19.8,31.9
		c9.9,11.9,25.7,20.7,42,22.9c21.6,3,29.8,6.9,35.6,12.5C213.8,252.8,215.5,269.6,196.1,275.4z"/>
	<path class="st3" d="M184.4,276.9c22.6,6.7,67-1.6,83.3-36.5c12.7-27.2,8.5-55.8,3.4-60.2c-3.7-3.2-7.4,17-19.8,31.9
		c-9.9,11.9-25.7,20.7-42,22.9c-21.6,3-29.8,6.9-35.6,12.5C166.7,254.3,164.9,271.1,184.4,276.9z"/>
	<path class="st4" d="M199.7,180.7c-1.4-1.4-19.1-1.9-21,0s-2.4,17,10.5,17S201.1,182,199.7,180.7z"/>
	<path class="st5" d="M122.1,221c0,0,10.8,31.8,46.6,38.6"/>
	<path class="st5" d="M172.4,265.1c0,0,66,8.9,90.9-47.9"/>
	<ellipse class="st6" cx="167.9" cy="168.3" rx="6.2" ry="7.8"/>
	<ellipse class="st6" cx="210.3" cy="168.3" rx="6.2" ry="7.8"/>
</g>
<g class="st7">
	<path class="st8" d="M112.9,343.3h4.8v37.3h-4.8v-19.8h-3.8v10.5h-15v-25.5h5v9.2h5.2v-9.2h4.8v10.6h3.8V343.3z M104.3,359.2h-5.2
		v7.9h5.2V359.2z M125.1,381.6h-4.9v-38.7h4.9V381.6z"/>
	<path class="st8" d="M150.5,359.1c0,9-4.1,14-10.1,14c-6.1,0-10.1-5-10.1-14c0-9,4.1-14,10.1-14
		C146.5,345.1,150.5,350.1,150.5,359.1z M145.3,359.1c0-6-1.8-9.6-4.9-9.6c-3.1,0-4.9,3.6-4.9,9.6c0,6,1.8,9.6,4.9,9.6
		C143.5,368.7,145.3,365.1,145.3,359.1z M155.9,342.9h5.2v38.7h-5.2V342.9z"/>
	<path class="st8" d="M168.4,371.4v-25.6h5.3v8.9h8.3v-8.9h5.1v25.6H168.4z M182,358.9h-8.4v8.3h8.4V358.9z M193.2,342.9h5.2v38.7
		h-5.2V342.9z"/>
	<path class="st8" d="M212.7,368.7v-4.3h35.8v4.3h-15v12.7h-5.2v-12.7H212.7z M216.8,361.3v-4.3h5l-0.3-7.3h5.2l0.2,7.3h7.5l0.3-7.3
		h5.1l-0.5,7.3h5.2v4.3H216.8z M217.5,348.5v-4.3H244v4.3H217.5z"/>
	<path class="st8" d="M285.8,371.7v4.3H250v-4.3H285.8z M255.7,365.3v-19.1h24.6v4.4h-19.4v10.2h19.7v4.5H255.7z"/>
</g>
<g class="st7">
	<path class="st8" d="M90.1,404.6c0-5.8,4.3-10.1,10.2-10.1c6.1,0,10.4,4.3,10.4,10.1c0,5.6-4.3,9.9-10.4,9.9S90.1,410.2,90.1,404.6
		z M95.4,404.6c0,3.4,1.9,5.5,5,5.5c3,0,5-2.1,5-5.5c0-3.6-2-5.8-5-5.8C97.3,398.8,95.4,401,95.4,404.6z M121.7,431H96.4V419h5.1
		v7.6h20.2V431z M120.9,420.5h-5.1V393h5.1V420.5z"/>
	<path class="st8" d="M126.2,402.3v-3.7h23.5v3.7H126.2z M137.9,416.3c-6,0-9.1-3.1-9.1-6.4c0-3.3,3.1-6.3,9.1-6.3
		c5.9,0,9.1,3,9.1,6.3C147,413.2,143.9,416.3,137.9,416.3z M131.1,396.7v-3.8h13.8v3.8H131.1z M145.5,417.6c8.6,0,13.2,3.2,13.2,7.2
		c0,4-4.6,7.2-13.2,7.2c-8.5,0-13.1-3.2-13.1-7.2C132.5,420.9,137,417.6,145.5,417.6z M137.9,412.7c3,0,4.2-1.3,4.2-2.8
		c0-1.6-1.1-2.8-4.2-2.8c-3.1,0-4.2,1.2-4.2,2.8C133.7,411.4,134.8,412.7,137.9,412.7z M145.5,421.7c-5.8,0-7.8,1.6-7.8,3.2
		c0,1.6,2,3.3,7.8,3.3c5.7,0,7.8-1.7,7.8-3.3C153.3,423.3,151.3,421.7,145.5,421.7z M148.2,408.1v-4h4.8V393h5.2v24.7H153v-2.9h-4.8
		v-4h4.8v-2.7H148.2z"/>
	<path class="st8" d="M193.1,417.4c7,0.5,10.8,3.3,10.8,7.2c0,4.4-4.7,7.4-13.3,7.4c-8.7,0-13.3-3-13.3-7.4c0-3.9,3.7-6.6,10.5-7.2
		V414h-15.5v-4.2h36.6v4.2h-15.8V417.4z M178.1,394.1h12.8c3.3,0,6.4,0,10-0.1c0.9,0,1.2,0.5,0.9,1.5c-0.8,2.3-2.8,4.5-5.8,6.4
		c3.3,1.2,6.9,2,10.8,2.5l-1.8,3.7c-4.8-0.9-9.2-2.1-13.3-4c-4.1,1.8-9.2,3.3-14.7,4.1l-1.9-3.8c11-1.5,17.2-4.4,19.3-6.5v0
		c-3,0.1-5.9,0.2-8.9,0.2h-7.3V394.1z M190.5,421.2c-5.9,0-7.9,1.6-7.9,3.3c0,1.8,2,3.4,7.9,3.4c5.9,0,7.9-1.7,7.9-3.4
		C198.4,422.9,196.4,421.2,190.5,421.2z"/>
	<path class="st8" d="M221.6,414.8V395h14.1v4h-8.9v3.9h8.6v3.8h-8.6v4.1h1.1c3.5,0,6.9-0.3,10.6-1.3v3.9c-3.8,1-8.3,1.4-13.4,1.4
		H221.6z M247.2,431.8v-9h-21v-4.3h26.1v13.3H247.2z M252.3,416.9h-4.9v-10.4h-3.1v10.4h-4.8v-23.4h4.8v8.9h3.1V393h4.9V416.9z"/>
	<path class="st8" d="M270.3,403.4c-0.3,0.1-0.5,0-0.5-0.3v-3c2.3-1,4.3-2.6,6-4.6h5.2v32.3h-5.2v-27.3h0
		C274.2,401.7,272.1,402.7,270.3,403.4z"/>
</g>
</svg>
