<?xml version="1.0" encoding="utf-8"?>
<!-- Generator: Adobe Illustrator 23.0.6, SVG Export Plug-In . SVG Version: 6.00 Build 0)  -->
<svg version="1.1" id="Layer_1" xmlns="http://www.w3.org/2000/svg" xmlns:xlink="http://www.w3.org/1999/xlink" x="0px" y="0px"
	 viewBox="0 0 374.3 511.1" style="enable-background:new 0 0 374.3 511.1;" xml:space="preserve">
<style type="text/css">
	.st0{fill:#FDE2DB;}
	.st1{fill:#FBC4B7;stroke:#6E473A;stroke-width:0.987;stroke-miterlimit:10;}
	.st2{fill:none;stroke:#6E473A;stroke-width:4.6958;stroke-miterlimit:10;}
	.st3{fill:none;stroke:#6E473A;stroke-width:3.8569;stroke-miterlimit:10;}
	.st4{fill:#6E473A;}
	.st5{fill:none;stroke:#6E473A;stroke-width:4.9898;stroke-miterlimit:10;}
	.st6{fill:none;stroke:#6E4739;stroke-width:5;stroke-miterlimit:10;}
	.st7{enable-background:new    ;}
	.st8{fill:#894F4F;}
</style>
<rect x="0.3" y="0.8" class="st0" width="374.3" height="511.1"/>
<g>
	<path class="st1" d="M186.2,139.7c3-6.2,8-6.2,10.9,0l14.9,30.5c3,6.2,10.4,14.2,16.2,17.8l26.1,16c5.8,3.6,5.8,9.5,0,13.1
		l-26.1,16c-5.8,3.6-13.2,11.5-16.2,17.8l-14.9,30.5c-3,6.2-8,6.2-10.9,0L171.3,251c-3-6.2-10.4-14.2-16.2-17.8l-26.1-16
		c-5.8-3.6-5.8-9.5,0-13.1l26.1-16c5.8-3.6,13.2-11.5,16.2-17.8L186.2,139.7z"/>
	<path class="st2" d="M186.2,139.7c3-6.2,8-6.2,10.9,0l14.9,30.5c3,6.2,10.4,14.2,16.2,17.8l26.1,16c5.8,3.6,5.8,9.5,0,13.1
		l-26.1,16c-5.8,3.6-13.2,11.5-16.2,17.8l-14.9,30.5c-3,6.2-8,6.2-10.9,0L171.3,251c-3-6.2-10.4-14.2-16.2-17.8l-26.1-16
		c-5.8-3.6-5.8-9.5,0-13.1l26.1-16c5.8-3.6,13.2-11.5,16.2-17.8L186.2,139.7z"/>
</g>
<line class="st3" x1="191.2" y1="119.4" x2="191.2" y2="92.3"/>
<line class="st3" x1="191.2" y1="301.2" x2="191.2" y2="328.4"/>
<line class="st3" x1="108.6" y1="210.3" x2="86.7" y2="210.3"/>
<circle class="st4" cx="175.8" cy="204.9" r="4.7"/>
<circle class="st4" cx="206.7" cy="204.9" r="4.7"/>
<line class="st3" x1="273" y1="210.3" x2="294.9" y2="210.3"/>
<path class="st5" d="M182,214.8c0,0,2.1,6.6,9,6.6s9.6-6.6,9.6-6.6"/>
<path class="st6" d="M332.1,43.6c-8.6-8.2-11.7-18.8-11.7-18.8H187.5H54.6c0,0-3.2,10.7-11.7,18.8c-8.6,8.2-17.8,10-17.8,10v202.5
	v0.5v202.5c0,0,9.2,1.9,17.8,10c8.6,8.2,11.7,18.8,11.7,18.8h132.9h132.9c0,0,3.2-10.7,11.7-18.8c8.6-8.2,17.8-10,17.8-10V256.6
	v-0.5V53.6C349.8,53.6,340.7,51.7,332.1,43.6z"/>
<g class="st7">
	<path class="st8" d="M96.8,402.6c-2.4,0-3.1-0.7-3.1-2.8v-21.2c0-0.3,0.2-0.5,0.5-0.5h3.4c0.3,0,0.6,0.2,0.6,0.5v8.7h7v-8.7
		c0-0.3,0.2-0.5,0.5-0.5h3.4c0.3,0,0.5,0.2,0.5,0.5v10.3h4.1v-12c0-0.4,0.2-0.5,0.6-0.5h3.3c0.4,0,0.5,0.2,0.5,0.5v35
		c0,0.4-0.2,0.6-0.5,0.6h-3.3c-0.4,0-0.6-0.2-0.6-0.6v-19.1h-4.1v7.2c0,1.8-0.7,2.7-3,2.7H96.8z M105.2,390.9h-7v7.3
		c0,0.4,0.2,0.7,0.8,0.7h5.4c0.5,0,0.8-0.2,0.8-0.7V390.9z M121.8,413.6c-0.4,0-0.5-0.2-0.5-0.5v-37c0-0.4,0.2-0.5,0.6-0.5h3.4
		c0.4,0,0.5,0.2,0.5,0.5v37c0,0.4-0.2,0.5-0.5,0.5H121.8z"/>
	<path class="st8" d="M132.1,391.2c0-8,3.7-13.2,9.8-13.2c6.2,0,9.8,5.2,9.8,13.2c0,8-3.7,13.2-9.8,13.2
		C135.8,404.4,132.1,399,132.1,391.2z M142,382.1c-3.4,0-5.3,4.1-5.3,9.1c0,4.8,2,9.1,5.3,9.1s5.3-4.3,5.3-9.1
		C147.3,386.2,145.3,382.1,142,382.1z M161.7,413c0,0.4-0.2,0.5-0.5,0.5h-3.6c-0.4,0-0.5-0.2-0.5-0.5v-36.9c0-0.4,0.2-0.5,0.5-0.5
		h3.6c0.4,0,0.5,0.2,0.5,0.5V413z"/>
	<path class="st8" d="M173.3,402.6c-2.4,0-3-0.7-3-2.8v-21.6c0-0.3,0.2-0.5,0.5-0.5h3.5c0.3,0,0.6,0.2,0.6,0.5v8.8h8.8v-8.8
		c0-0.3,0.3-0.5,0.6-0.5h3.5c0.3,0,0.6,0.2,0.6,0.5v21.8c0,1.8-0.8,2.7-3,2.7H173.3z M183.7,390.6h-8.8v7.5c0,0.4,0.2,0.7,0.7,0.7
		h7.4c0.5,0,0.7-0.2,0.7-0.7V390.6z M199.3,413c0,0.4-0.2,0.5-0.5,0.5h-3.6c-0.4,0-0.5-0.2-0.5-0.5v-36.9c0-0.4,0.2-0.5,0.5-0.5h3.6
		c0.4,0,0.5,0.2,0.5,0.5V413z"/>
	<path class="st8" d="M218.4,404.5l-1.8-1.8c-0.4-0.4-0.4-0.8,0-1.2c5.7-5.4,7.6-13,7.6-23.1c0-0.4,0.2-0.6,0.5-0.6l3.3,0.1
		c0.3,0,0.6,0.3,0.6,0.6c0,4-0.2,7.3-0.8,10.3c1.1,4.5,4.5,9.6,7.2,11.8c0.4,0.4,0.4,0.7,0.1,1l-1.8,1.9c-0.4,0.4-0.8,0.4-1.2,0
		c-2.2-1.6-4.8-5-6.1-8.3c-1.4,3.5-3.5,6.3-6.3,9.1C219.2,404.9,218.8,404.9,218.4,404.5z M238.3,412.3c-0.4,0-0.6-0.2-0.6-0.6V392
		h-6c-0.3,0-0.6-0.2-0.6-0.6v-2.7c0-0.3,0.3-0.5,0.6-0.5h6v-11.4c0-0.4,0.2-0.5,0.6-0.5h3.3c0.4,0,0.5,0.2,0.5,0.5v35
		c0,0.4-0.2,0.6-0.5,0.6H238.3z M245.8,413.6c-0.4,0-0.5-0.2-0.5-0.5v-37c0-0.4,0.2-0.5,0.6-0.5h3.4c0.4,0,0.5,0.2,0.5,0.5v37
		c0,0.4-0.2,0.5-0.5,0.5H245.8z"/>
	<path class="st8" d="M289.5,406.2c0,0.3-0.3,0.6-0.6,0.6h-34.8c-0.3,0-0.6-0.3-0.6-0.6v-2.5c0-0.4,0.2-0.6,0.6-0.6h34.8
		c0.3,0,0.6,0.3,0.6,0.6V406.2z M261.6,397.1c-2.1,0-2.9-1-2.9-2.8v-13.8c0-2,0.8-2.6,2.9-2.6h22c0.4,0,0.6,0.2,0.6,0.5v2.7
		c0,0.4-0.2,0.6-0.6,0.6h-19.5c-0.5,0-0.7,0.2-0.7,0.7v3.3h19.7c0.3,0,0.6,0.2,0.6,0.5v2.6c0,0.3-0.3,0.6-0.6,0.6h-19.7v3.4
		c0,0.6,0.1,0.7,0.7,0.7h19.7c0.4,0,0.6,0,0.6,0.5v2.6c0,0.4-0.2,0.6-0.5,0.6H261.6z"/>
</g>
</svg>
