<?xml version="1.0" encoding="utf-8"?>
<!-- Generator: Adobe Illustrator 23.0.6, SVG Export Plug-In . SVG Version: 6.00 Build 0)  -->
<svg version="1.1" id="Layer_1" xmlns="http://www.w3.org/2000/svg" xmlns:xlink="http://www.w3.org/1999/xlink" x="0px" y="0px"
	 viewBox="0 0 374.3 511.1" style="enable-background:new 0 0 374.3 511.1;" xml:space="preserve">
<style type="text/css">
	.st0{fill:#FDE2DB;}
	.st1{fill:#FAC2B6;stroke:#6E473A;stroke-width:4.4875;stroke-linecap:round;stroke-linejoin:round;stroke-miterlimit:10;}
	.st2{fill:#FAC2B6;}
	.st3{fill:none;stroke:#6E473A;stroke-width:4.4875;stroke-miterlimit:10;}
	.st4{fill:#F19788;}
	.st5{fill:none;stroke:#6E4739;stroke-width:5;stroke-miterlimit:10;}
	.st6{enable-background:new    ;}
	.st7{fill:#894F4F;}
</style>
<rect x="0.4" y="0.8" class="st0" width="374.3" height="511.1"/>
<path class="st1" d="M124.1,214.5c-1.5-18.5-16.6-38.9-33.7-39.1c-17.1-0.2-18.7,22.1-1.3,31.4c0,0-5.7,7.7-2.5,15.4
	c3.9,9.4,12.3,7.2,12.3,7.2s-4.3,15.8,11.5,15.8C124.6,245.3,125.2,226.6,124.1,214.5z"/>
<g>
	<path class="st2" d="M153.9,155.2c-1.4,0-3.6,0.8-4.7,1.7l-31.5,26.2c-1.2,0.9-2,2.9-2,4.4v77.8c0,1.4,1.2,2.7,2.7,2.7h117.9
		c1.4,0,3.5-0.8,4.5-1.9l26.5-26.1c1.1-1.1,1.9-3,1.9-4.5V158c0-1.4-1.2-2.7-2.7-2.7L153.9,155.2L153.9,155.2z"/>
	<path class="st3" d="M153.9,155.2c-1.4,0-3.6,0.8-4.7,1.7l-31.5,26.2c-1.2,0.9-2,2.9-2,4.4v77.8c0,1.4,1.2,2.7,2.7,2.7h117.9
		c1.4,0,3.5-0.8,4.5-1.9l26.5-26.1c1.1-1.1,1.9-3,1.9-4.5V158c0-1.4-1.2-2.7-2.7-2.7L153.9,155.2L153.9,155.2z"/>
</g>
<line class="st3" x1="238.5" y1="266.6" x2="237.9" y2="186.9"/>
<polygon class="st4" points="143.4,164.4 131.9,174.4 250,175.4 250,200.3 261.6,190.9 261.6,164.4 "/>
<polyline class="st3" points="115.5,186.9 237.9,186.9 269,155.2 "/>
<path class="st1" d="M256.9,214.5c1.5-18.5,16.6-38.9,33.7-39.1c17.1-0.2,18.7,22.1,1.3,31.4c0,0,5.7,7.7,2.5,15.4
	c-3.9,9.4-12.3,7.2-12.3,7.2s4.3,15.8-11.5,15.8C256.4,245.3,255.9,226.6,256.9,214.5z"/>
<path class="st5" d="M332,43.6c-8.6-8.2-11.7-18.8-11.7-18.8H187.5H54.5c0,0-3.2,10.7-11.7,18.8c-8.6,8.2-17.8,10-17.8,10v202.5v0.5
	v202.5c0,0,9.2,1.9,17.8,10c8.6,8.2,11.7,18.8,11.7,18.8h132.9h132.9c0,0,3.2-10.7,11.7-18.8c8.6-8.2,17.8-10,17.8-10V256.6v-0.5
	V53.6C349.9,53.6,340.6,51.7,332,43.6z"/>
<g class="st6">
	<path class="st7" d="M90.7,353.8v12c0,0.3-0.2,0.5-0.5,0.5h-3.3c-0.3,0-0.5-0.2-0.5-0.5v-12H71.9c-0.3,0-0.5-0.3-0.5-0.6v-2.5
		c0-0.3,0.2-0.6,0.5-0.6H105c0.3,0,0.6,0.3,0.6,0.6v2.5c0,0.3-0.3,0.6-0.6,0.6H90.7z M79.3,346c-2.3,0-2.9-0.7-2.9-2.7v-9.5
		c0-1.9,0.8-2.6,2.7-2.6h18.5c2.3,0,2.9,0.6,2.9,2.7v9.5c0,1.9-0.8,2.7-2.7,2.7H79.3z M96.1,335.4c0-0.4-0.1-0.5-0.5-0.5H81.3
		c-0.4,0-0.5,0-0.5,0.5v6.5c0,0.5,0.1,0.5,0.5,0.5h14.3c0.4,0,0.5,0,0.5-0.5V335.4z"/>
	<path class="st7" d="M114.8,351.1c-2.2,0-2.7-0.6-2.7-2.5v-6.1c0-2,0.5-2.5,2.7-2.5h16.6c0.5,0,0.6,0,0.6-0.6v-2.9
		c0-0.6-0.1-0.5-0.6-0.5h-18.7c-0.3,0-0.5-0.3-0.5-0.5v-2.5c0-0.3,0.2-0.5,0.5-0.5h20.8c2.1,0,2.7,0.5,2.7,2.5v6.1
		c0,2-0.6,2.5-2.7,2.5h-16.7c-0.5,0-0.5,0-0.5,0.5v3c0,0.6,0.1,0.6,0.6,0.6h19.7c0.3,0,0.5,0.2,0.5,0.5v2.5c0,0.3-0.3,0.5-0.5,0.5
		h-4.9v5.7h9.1c0.3,0,0.6,0.3,0.6,0.6v2.4c0,0.3-0.3,0.6-0.6,0.6h-33.1c-0.3,0-0.5-0.3-0.5-0.6v-2.4c0-0.3,0.2-0.6,0.5-0.6h9.1v-5.7
		H114.8z M127.3,356.9v-5.7H121v5.7H127.3z"/>
	<path class="st7" d="M158.1,356.2c-2.3,0-2.9-0.6-2.9-2.7v-20.1c0-0.3,0.2-0.5,0.5-0.5h3.2c0.3,0,0.5,0.2,0.5,0.5v8.2h6.5v-8.3
		c0-0.3,0.2-0.5,0.5-0.5h3.3c0.3,0,0.5,0.2,0.5,0.5v20.3c0,1.7-0.6,2.5-2.9,2.5H158.1z M166,345.1h-6.5v7c0,0.4,0.2,0.6,0.7,0.6h5.1
		c0.5,0,0.7-0.2,0.7-0.6V345.1z M181.4,331c0-0.3,0.2-0.5,0.5-0.5h3.3c0.3,0,0.5,0.2,0.5,0.5v35.1c0,0.3-0.2,0.5-0.5,0.5h-3.3
		c-0.3,0-0.5-0.2-0.5-0.5v-17.9h-3.5v16.5c0,0.3-0.2,0.5-0.5,0.5h-3.1c-0.3,0-0.5-0.2-0.5-0.5v-32.9c0-0.3,0.2-0.5,0.5-0.5h3.1
		c0.3,0,0.5,0.2,0.5,0.5v12.8h3.5V331z"/>
	<path class="st7" d="M189.7,351c-0.3,0-0.5-0.3-0.5-0.6v-2.5c0-0.4,0.2-0.6,0.5-0.6h14.4v-4.5c0-0.3,0.2-0.5,0.5-0.5h3.1
		c0.3,0,0.6,0.2,0.6,0.5v4.5h14.5c0.3,0,0.6,0.3,0.6,0.6v2.5c0,0.3-0.3,0.6-0.6,0.6H189.7z M193.3,344.1l-1-2.4
		c-0.1-0.3,0-0.6,0.3-0.7c7.2-1.9,10.9-4.6,11.4-9.8c0-0.4,0.3-0.6,0.7-0.6l3,0.1c0.3,0,0.5,0.2,0.5,0.5c0,0.5,0,1-0.2,1.4
		c1.6,3.8,6.9,6.8,11.9,8c0.3,0.1,0.5,0.4,0.3,0.7l-1.1,2.3c-0.1,0.3-0.4,0.5-0.9,0.4c-4.1-0.7-9.5-3.6-11.9-7.1
		c-2.3,3.5-6.6,6-12.1,7.3C193.7,344.4,193.4,344.3,193.3,344.1z M206.2,366.6c-7.7,0-12-2.5-12-6.6c0-4.1,4.3-6.6,12-6.6
		s12,2.5,12,6.6C218.2,364.1,213.9,366.6,206.2,366.6z M198.6,360c0,1.8,2.6,3.3,7.6,3.3c5.1,0,7.6-1.6,7.6-3.3
		c0-1.8-2.6-3.3-7.6-3.3C201.2,356.7,198.6,358.2,198.6,360z"/>
	<path class="st7" d="M263.4,348.1h5.8c0.3,0,0.6,0.3,0.6,0.6v2.5c0,0.3-0.3,0.6-0.6,0.6h-14.7v14.1c0,0.3-0.2,0.5-0.5,0.5h-3.3
		c-0.3,0-0.5-0.2-0.5-0.5v-14.1h-14.1c-0.3,0-0.5-0.3-0.5-0.6v-2.5c0-0.3,0.2-0.6,0.5-0.6h23.1c0.3-1.5,0.6-3.2,0.8-5.2
		c-5.5,0.3-12.7,0.3-18.8,0.3c-0.3,0-0.5-0.3-0.5-0.6v-2.5c0-0.3,0.2-0.5,0.5-0.5c6.3,0,14.3,0,19.1-0.3c0.1-1.1,0.1-2.2,0.1-3.3
		c0-0.7-0.3-0.8-1.1-0.8h-18.7c-0.3,0-0.6-0.2-0.6-0.5v-2.7c0-0.3,0.3-0.5,0.6-0.5h21.6c1.6,0,2.5,0.8,2.5,2.7
		C264.8,339.3,264.3,344.2,263.4,348.1z"/>
	<path class="st7" d="M290.5,345v4h14.3c0.3,0,0.6,0.3,0.6,0.5v2.5c0,0.3-0.3,0.6-0.6,0.6h-33.1c-0.3,0-0.5-0.3-0.5-0.6v-2.5
		c0-0.3,0.2-0.5,0.5-0.5h14.4v-4h-9.8c-0.3,0-0.6-0.3-0.6-0.6v-2.2c0-0.3,0.4-0.6,0.6-0.6h4.3v-6.5H277c-0.3,0-0.6-0.3-0.6-0.6v-2.2
		c0-0.3,0.3-0.6,0.6-0.6h22.6c0.3,0,0.6,0.3,0.6,0.6v2.2c0,0.3-0.3,0.6-0.6,0.6h-3.6v6.5h4.3c0.3,0,0.6,0.3,0.6,0.6v2.2
		c0,0.3-0.3,0.6-0.6,0.6H290.5z M279.6,365.7c-2.3,0-2.9-0.8-2.9-2.7v-7.3c0-0.3,0.3-0.6,0.5-0.6h3.3c0.3,0,0.6,0.3,0.6,0.6v5.7
		c0,0.5,0.2,0.6,0.7,0.6h18.7c0.3,0,0.6,0.2,0.6,0.5v2.7c0,0.3-0.3,0.5-0.6,0.5H279.6z M284.8,335.1v6.5h7v-6.5H284.8z"/>
</g>
</svg>
