<?xml version="1.0" encoding="utf-8"?>
<!-- Generator: Adobe Illustrator 23.0.6, SVG Export Plug-In . SVG Version: 6.00 Build 0)  -->
<svg version="1.1" id="Layer_1" xmlns="http://www.w3.org/2000/svg" xmlns:xlink="http://www.w3.org/1999/xlink" x="0px" y="0px"
	 viewBox="0 0 374.3 511.1" style="enable-background:new 0 0 374.3 511.1;" xml:space="preserve">
<style type="text/css">
	.st0{fill:#FDE2DB;}
	.st1{fill:none;stroke:#6E4739;stroke-width:5;stroke-miterlimit:10;}
	.st2{enable-background:new    ;}
	.st3{fill:#894F4F;}
	.st4{fill:#FAC2B6;stroke:#6E473A;stroke-width:4.7473;stroke-linecap:round;stroke-linejoin:round;stroke-miterlimit:10;}
	.st5{fill:#6E473A;}
	.st6{fill:none;stroke:#6E473A;stroke-width:4.7473;stroke-miterlimit:10;}
	.st7{fill:#98C6E5;stroke:#6E473A;stroke-width:4.7473;stroke-linecap:round;stroke-linejoin:round;stroke-miterlimit:10;}
</style>
<rect x="0.4" y="0.8" class="st0" width="374.3" height="511.1"/>
<path class="st1" d="M332.1,43.6c-8.6-8.2-11.7-18.8-11.7-18.8H187.5H54.6c0,0-3.2,10.7-11.7,18.8c-8.6,8.2-17.8,10-17.8,10v202.5
	v0.5v202.5c0,0,9.2,1.9,17.8,10c8.6,8.2,11.7,18.8,11.7,18.8h132.9h132.9c0,0,3.2-10.7,11.7-18.8c8.6-8.2,17.8-10,17.8-10V256.6
	v-0.5V53.6C349.8,53.6,340.6,51.7,332.1,43.6z"/>
<g class="st2">
	<path class="st3" d="M96.2,352.9c-2-0.1-2.9-0.8-2.9-2.7v-19c0-1.9,0.6-2.5,2.7-2.5h14.5c0.4,0,0.6,0.2,0.6,0.5v2.8
		c0,0.4-0.2,0.5-0.6,0.5H98.6c-0.5,0-0.7,0.2-0.7,0.7v14.6c0,0.8,0.2,1,1.2,1.1c3.3,0.3,9.5-0.4,14.3-1.3c0.4-0.1,0.6,0.1,0.7,0.5
		l0.4,2.3c0.1,0.6-0.2,0.7-0.5,0.8C109.9,352.5,100.6,353.2,96.2,352.9z M121.2,344.2v19c0,0.4-0.2,0.5-0.5,0.5h-3.6
		c-0.4,0-0.5-0.2-0.5-0.5v-36.9c0-0.4,0.2-0.5,0.5-0.5h3.6c0.4,0,0.5,0.2,0.5,0.5v14.1h5.4c0.3,0,0.6,0.2,0.6,0.5v2.8
		c0,0.3-0.3,0.6-0.6,0.6H121.2z"/>
	<path class="st3" d="M128.8,347c-0.3,0-0.6-0.3-0.6-0.6v-2.6c0-0.4,0.2-0.6,0.6-0.6h34.8c0.3,0,0.6,0.3,0.6,0.6v2.6
		c0,0.3-0.3,0.6-0.6,0.6H128.8z M133.5,333.3c0-4.3,5.2-7.1,12.7-7.1c7.6,0,12.6,2.8,12.6,7.1c0,4.4-5,7.2-12.6,7.2
		C138.5,340.5,133.5,337.7,133.5,333.3z M137,363.1c-2.4,0-3-0.7-3-2.8v-7.4c0-2,1-2.8,3-2.8h18.5c2.4,0,3,0.7,3,2.8v7.4
		c0,2-1.1,2.8-3,2.8H137z M138.3,333.3c0,1.9,3.2,3.5,7.9,3.5c4.6,0,7.8-1.6,7.8-3.5c0-2-3.2-3.5-7.8-3.5
		C141.5,329.8,138.3,331.4,138.3,333.3z M153.9,354.6c0-0.4-0.2-0.6-0.6-0.6h-14.3c-0.4,0-0.5,0.2-0.5,0.6v4.2
		c0,0.5,0.1,0.5,0.5,0.5h14.3c0.5,0,0.6,0,0.6-0.5V354.6z"/>
	<path class="st3" d="M181.9,355.6c-0.4,0.3-1,0.2-1.3-0.2l-1.4-2.1c-0.3-0.4-0.1-0.9,0.2-1.1c8-4.7,12.8-10.9,14.2-18.2
		c0.2-1.1-0.1-1.3-1.1-1.3h-11.3c-0.4,0-0.6-0.2-0.6-0.6v-2.8c0-0.3,0.2-0.5,0.6-0.5h14.3c2.4,0,3,1,2.8,3
		C197.6,342.2,191.3,350,181.9,355.6z M209.3,363.2c0,0.4-0.2,0.5-0.5,0.5h-3.6c-0.4,0-0.5-0.2-0.5-0.5v-36.9c0-0.4,0.2-0.5,0.5-0.5
		h3.6c0.4,0,0.5,0.2,0.5,0.5V363.2z"/>
	<path class="st3" d="M225.6,353.3v-3.4c-3.7-0.8-6.4-3.2-6.4-6.6c0-4,4-6.8,8.8-6.8c5,0,8.8,2.8,8.8,6.8c0,3.4-2.9,5.9-6.7,6.5v3.3
		c3.5-0.2,6.9-0.4,9.8-0.9c0.3,0,0.7,0,0.8,0.4l0.2,2.5c0,0.4-0.2,0.6-0.5,0.7c-6,1-17,1.5-24.6,1.4c-0.4,0-0.6-0.3-0.6-0.6V354
		c0-0.4,0.2-0.6,0.6-0.6C218.9,353.5,222.3,353.4,225.6,353.3z M217.1,335.1c-0.3,0-0.6-0.3-0.6-0.6v-2.2c0-0.3,0.4-0.6,0.6-0.6
		h21.1c0.3,0,0.6,0.3,0.6,0.6v2.3c0,0.3-0.3,0.6-0.6,0.6H217.1z M222.5,330c-0.2,0-0.6-0.2-0.6-0.6v-2.3c0-0.4,0.4-0.6,0.6-0.6h10.6
		c0.3,0,0.6,0.3,0.6,0.6v2.2c0,0.4-0.3,0.7-0.6,0.7H222.5z M223.5,343.3c0,1.9,1.9,3.2,4.5,3.2c2.7,0,4.5-1.4,4.5-3.2
		c0-1.9-1.8-3.2-4.5-3.2C225.4,340.1,223.5,341.4,223.5,343.3z M246.9,363.2c0,0.4-0.2,0.5-0.6,0.5h-3.5c-0.3,0-0.6-0.2-0.6-0.5
		v-36.9c0-0.3,0.3-0.5,0.6-0.5h3.5c0.4,0,0.6,0.2,0.6,0.5V363.2z"/>
	<path class="st3" d="M274.7,362.4c-0.4,0-0.6-0.2-0.6-0.6v-18.8h-3.6c-0.5,6.5-4.1,10.4-8.6,10.4c-5.1,0-8.4-4.7-8.4-12.5
		c0-8.5,3.6-12.5,8.4-12.5c4.7,0,8.3,3.5,8.7,10.8h3.6V327c0-0.4,0.2-0.5,0.6-0.5h3.3c0.4,0,0.5,0.2,0.5,0.5v34.9
		c0,0.4-0.2,0.6-0.5,0.6H274.7z M261.9,332.4c-2.8,0-4,4.6-4,8.6c0,3.8,1.2,8.6,4,8.6c3,0,4.3-4.7,4.3-8.6
		C266.1,336.9,264.9,332.4,261.9,332.4z M282.2,363.8c-0.4,0-0.5-0.2-0.5-0.5v-37c0-0.4,0.2-0.5,0.6-0.5h3.4c0.4,0,0.5,0.2,0.5,0.5
		v37c0,0.4-0.2,0.5-0.5,0.5H282.2z"/>
</g>
<circle class="st4" cx="191.7" cy="202.7" r="67.9"/>
<circle class="st5" cx="167.6" cy="200.3" r="6.7"/>
<circle class="st5" cx="215.7" cy="200.3" r="6.7"/>
<path class="st6" d="M180.7,224.1c0,0,2.6-11.5,10.9-11.5s11.5,11.5,11.5,11.5"/>
<path class="st7" d="M220.7,213c0,0-11.5,23.8-9,38.3c2.5,14.5,11.8,15.6,17.6,14.6c5.8-1,14.3-5,12.1-19.5
	C239.1,231.9,220.7,213,220.7,213z"/>
</svg>
