<?xml version="1.0" encoding="utf-8"?>
<!-- Generator: Adobe Illustrator 23.0.6, SVG Export Plug-In . SVG Version: 6.00 Build 0)  -->
<svg version="1.1" id="Layer_1" xmlns="http://www.w3.org/2000/svg" xmlns:xlink="http://www.w3.org/1999/xlink" x="0px" y="0px"
	 viewBox="0 0 1168.3 384.5" style="enable-background:new 0 0 1168.3 384.5;" xml:space="preserve">
<style type="text/css">
	.st0{fill:#FFF2B2;stroke:#D6902A;stroke-width:3.5071;stroke-miterlimit:10;}
	.st1{fill:#9DCF82;stroke:#5AA345;stroke-width:3.5071;stroke-miterlimit:10;}
	.st2{fill:#F58D88;}
	.st3{fill:none;stroke:#E2B054;stroke-width:3.5071;stroke-miterlimit:10;}
	.st4{fill:none;stroke:#5BA344;stroke-width:3.5071;stroke-miterlimit:10;}
	.st5{fill:#DFC2AF;stroke:#AD8B74;stroke-width:3.5071;stroke-miterlimit:10;}
	.st6{fill:#BE9686;}
	.st7{fill:#EFA3A3;stroke:#D15D5D;stroke-width:3.2736;stroke-miterlimit:10;}
	.st8{fill:#9DCF82;stroke:#5AA345;stroke-width:3.6155;stroke-miterlimit:10;}
</style>
<path class="st0" d="M719.3,182.7c0,0,14.6-36.8-15.7-69c0,0,6.3-36.4-31.8-53.6c0,0-3.7-36.5-48.2-36.5c0,0-6.7-20.4-38.4-21.8
	c-31.7,1.4-38.4,21.8-38.4,21.8c-44.5,0-48.2,36.5-48.2,36.5c-38.1,17.2-31.8,53.6-31.8,53.6c-30.3,32.2-15.7,69-15.7,69
	c-27.6,35.7,1.8,68.4,1.8,68.4c-22.2,48.7,26,63.8,26,63.8h106.3h106.3c0,0,48.3-15.1,26-63.8C717.5,251.1,746.9,218.5,719.3,182.7z
	"/>
<path class="st1" d="M599.8,375.1c-47.4,14-140.7-3.3-175-76.6c-26.6-57.2-17.9-117.3-7.2-126.5c7.7-6.7,15.5,35.8,41.7,67.1
	c20.9,24.9,53.9,43.4,88.3,48.2c45.4,6.2,62.7,14.6,74.8,26.3C637,327.7,640.7,363,599.8,375.1z"/>
<path class="st1" d="M575.3,378.3c47.4,14,140.7-3.3,175-76.6c26.6-57.2,17.9-117.3,7.2-126.5c-7.7-6.7-15.5,35.8-41.7,67.1
	c-20.9,24.9-53.9,43.4-88.3,48.2c-45.4,6.2-62.7,14.6-74.8,26.3C538.1,330.9,534.4,366.2,575.3,378.3z"/>
<ellipse cx="546" cy="151.3" rx="8" ry="13"/>
<ellipse cx="631.5" cy="151.3" rx="8" ry="13"/>
<path class="st2" d="M611.1,169.8c-3-2.9-40.2-3.9-44.2,0s-5,35.7,22.1,35.7S614,172.6,611.1,169.8z"/>
<g>
	<path class="st3" d="M513.7,63.5c0,0,15.4,3.3,32.3,5"/>
	<path class="st3" d="M488.7,115.6c0,0,18.1,7.1,41.1,6.3"/>
	<path class="st3" d="M467.6,180.9c0,0,27.8,10.6,46.1,7.8"/>
	<path class="st3" d="M571,70.2c0,0,24.8,3.3,36.5,0"/>
	<path class="st3" d="M564.8,126.5c0,0,20.8,5.3,48,0"/>
	<path class="st3" d="M554,78.5c0,0-8,20.7-8,40.2"/>
	<path class="st3" d="M529.8,197.7c0,0-8.6,35-5.3,51.7"/>
	<path class="st3" d="M478.2,248.7c0,0,16.5,5.2,33,3.9"/>
	<line class="st3" x1="589.2" y1="218.9" x2="589.2" y2="252.8"/>
	<path class="st3" d="M534.5,256.8c0,0,27.1,5.4,49.6,3.8"/>
	<path class="st3" d="M663.6,63.5c0,0-15.4,3.3-32.3,5"/>
	<path class="st3" d="M688.6,115.6c0,0-18.1,7.1-41.1,6.3"/>
	<path class="st3" d="M709.8,180.9c0,0-27.8,10.6-46.1,7.8"/>
	<path class="st3" d="M623.4,78.5c0,0,8,20.7,8,40.2"/>
	<path class="st3" d="M647.5,197.7c0,0,8.6,35,5.3,51.7"/>
	<path class="st3" d="M699.1,248.7c0,0-16.5,5.2-33,3.9"/>
	<path class="st3" d="M642.8,256.8c0,0-27.1,5.4-49.6,3.8"/>
</g>
<path class="st4" d="M444.5,260.9c0,0,22.7,66.8,98,81"/>
<path class="st4" d="M550,353.5c0,0,138.7,18.8,191-100.7"/>
<path class="st5" d="M13.5,145.2C28.6,97.9,86.9,58,126.5,43.8s128.9,10.7,146.7,70.6s49.6,100.1,31.7,139.5
	c-17.8,39.4-115,126.6-216.1,59.2S-6.3,207.2,13.5,145.2z"/>
<ellipse cx="113.2" cy="175.9" rx="8" ry="13"/>
<ellipse cx="198.8" cy="175.9" rx="8" ry="13"/>
<path class="st2" d="M178.3,194.3c-3-2.9-40.2-3.9-44.2,0s-5,35.7,22.1,35.7S181.3,197.1,178.3,194.3z"/>
<circle class="st6" cx="89.7" cy="114.6" r="3.4"/>
<circle class="st6" cx="49.5" cy="154.8" r="3.4"/>
<circle class="st6" cx="242.9" cy="255.7" r="3.4"/>
<path class="st7" d="M1165.9,190.4c-5.7-47.6-30.1-77.5-54.9-92.9c-31.7-19.6-63.5-27-94.4-26c-30.9-1-62.8,6.4-94.4,26
	c-24.8,15.4-49.2,45.2-54.9,92.9c-4.7,39,12.7,81.1,46.8,105c26.4,18.5,64.5,28.7,102.6,30.7c38-2,76.2-12.2,102.6-30.7
	C1153.2,271.5,1170.6,229.4,1165.9,190.4z"/>
<ellipse cx="973.8" cy="191.3" rx="8" ry="13"/>
<ellipse cx="1059.4" cy="191.3" rx="8" ry="13"/>
<path class="st7" d="M994.2,225.1c0,0,20.9,17.4,50.8,1.3"/>
<path class="st8" d="M1094.8,88c-2.7-15.5-48.7-22.1-48.7-22.1c-5.2-1.2-12.4-1.7-19.8-1.8c2.8-16,2.6-27.4-0.7-30.8
	c-1.3-1.4-18.5-1.8-19.2,0.7c-2.9,9.8-1,22,0.9,30.2c-5.3,0.2-10.3,0.7-14.2,1.6c0,0-46,6.5-48.7,22.1c-3.1,17.8,33,13.7,33,13.7
	s9.7,15.2,41.7,7.4c0.2,0,0.3,0,0.4,0c0.2,0,0.3,0,0.4,0c32.1,7.8,41.7-7.4,41.7-7.4S1097.9,105.7,1094.8,88z"/>
</svg>
