<?xml version="1.0" encoding="utf-8"?>
<!-- Generator: Adobe Illustrator 23.0.6, SVG Export Plug-In . SVG Version: 6.00 Build 0)  -->
<svg version="1.1" id="Layer_1" xmlns="http://www.w3.org/2000/svg" xmlns:xlink="http://www.w3.org/1999/xlink" x="0px" y="0px"
	 viewBox="0 0 1168.3 384.5" style="enable-background:new 0 0 1168.3 384.5;" xml:space="preserve">
<style type="text/css">
	.st0{fill:#FFF2B2;stroke:#E8AA60;stroke-width:4.3092;stroke-miterlimit:10;}
	.st1{fill:#9DCF82;stroke:#68AA52;stroke-width:4.3092;stroke-miterlimit:10;}
	.st2{fill:#7A5A4C;}
	.st3{fill:#F49292;}
	.st4{fill:none;stroke:#F9DD95;stroke-width:4.6406;stroke-linecap:round;stroke-miterlimit:10;}
	.st5{fill:none;stroke:#74B25D;stroke-width:4.3092;stroke-linecap:round;stroke-linejoin:round;stroke-miterlimit:10;}
	.st6{fill:#DFC2AF;stroke:#BC9584;stroke-width:4.3092;stroke-miterlimit:10;}
	.st7{fill:#DFC2AF;stroke:#916F59;stroke-width:6.5;stroke-miterlimit:10;}
	.st8{fill:#BE9686;}
	.st9{fill:#EFA3A3;stroke:#DB7B7B;stroke-width:4.3092;stroke-miterlimit:10;}
	.st10{fill:none;stroke:#D87171;stroke-width:4.3092;stroke-linecap:round;stroke-linejoin:round;stroke-miterlimit:10;}
	.st11{fill:#9DCF82;stroke:#68AA52;stroke-width:4.3092;stroke-linecap:round;stroke-linejoin:round;stroke-miterlimit:10;}
	.st12{fill:#FFF2B2;stroke:#D6902A;stroke-width:3.5071;stroke-miterlimit:10;}
	.st13{fill:#9DCF82;stroke:#5AA345;stroke-width:3.5071;stroke-miterlimit:10;}
	.st14{fill:#2F2929;}
	.st15{fill:#F58D88;}
	.st16{fill:none;stroke:#F7CC89;stroke-width:3;stroke-miterlimit:10;}
	.st17{fill:none;stroke:#5BA344;stroke-width:3.5071;stroke-miterlimit:10;}
	.st18{fill:#DFC2AF;stroke:#AD8B74;stroke-width:3.5071;stroke-miterlimit:10;}
	.st19{fill:#EFA3A3;stroke:#D15D5D;stroke-width:3.2736;stroke-miterlimit:10;}
	.st20{fill:#9DCF82;stroke:#5AA345;stroke-width:3.6155;stroke-miterlimit:10;}
	.st21{fill:#FFF2B2;stroke:#D6902A;stroke-width:6.5;stroke-miterlimit:10;}
	.st22{fill:#9DCF82;stroke:#5AA345;stroke-width:6.5;stroke-miterlimit:10;}
	.st23{fill:#6D4F3B;}
	.st24{fill:none;stroke:#F7CC89;stroke-width:7;stroke-linecap:round;stroke-miterlimit:10;}
	.st25{fill:none;stroke:#5BA344;stroke-width:6.5;stroke-linecap:round;stroke-linejoin:round;stroke-miterlimit:10;}
	.st26{fill:#DFC2AF;stroke:#9B7A67;stroke-width:6.5;stroke-miterlimit:10;}
	.st27{fill:#EFA3A3;stroke:#D15D5D;stroke-width:6.5;stroke-miterlimit:10;}
	.st28{fill:none;stroke:#D87171;stroke-width:6.5;stroke-linecap:round;stroke-linejoin:round;stroke-miterlimit:10;}
	.st29{fill:#9DCF82;stroke:#5AA345;stroke-width:6.5;stroke-linecap:round;stroke-linejoin:round;stroke-miterlimit:10;}
</style>
<path class="st0" d="M-363.5-212.6c0,0,9.7-24.4-10.4-45.7c0,0,4.2-24.1-21.1-35.5c0,0-2.5-24.2-32-24.2c0,0-4.4-13.5-25.5-14.5
	c-21,0.9-25.5,14.5-25.5,14.5c-29.5,0-32,24.2-32,24.2c-25.3,11.4-21.1,35.5-21.1,35.5c-20.1,21.3-10.4,45.7-10.4,45.7
	c-18.3,23.7,1.2,45.3,1.2,45.3c-14.7,32.3,17.2,42.3,17.2,42.3h70.5h70.5c0,0,32-10,17.2-42.3C-364.7-167.3-345.2-188.9-363.5-212.6
	z"/>
<path class="st1" d="M-442.7-85.1c-31.4,9.3-93.3-2.2-116-50.8c-17.6-37.9-11.9-77.8-4.8-83.9c5.1-4.4,10.3,23.7,27.6,44.5
	c13.9,16.5,35.7,28.8,58.5,32c30.1,4.1,41.6,9.7,49.6,17.4C-418-116.5-415.6-93.1-442.7-85.1z"/>
<ellipse class="st2" cx="-478.4" cy="-233.4" rx="5.3" ry="8.6"/>
<ellipse class="st2" cx="-421.7" cy="-233.4" rx="5.3" ry="8.6"/>
<path class="st3" d="M-435.2-221.2c-2-1.9-26.7-2.6-29.3,0s-3.3,23.7,14.7,23.7S-433.3-219.3-435.2-221.2z"/>
<g>
	<path class="st4" d="M-499.8-291.7c0,0,10.2,2.2,21.4,3.3"/>
	<path class="st4" d="M-516.3-257.1c0,0,12,4.7,27.2,4.2"/>
	<path class="st4" d="M-530.3-213.8c0,0,18.4,7,30.6,5.2"/>
	<path class="st4" d="M-461.8-287.2c0,0,16.4,2.2,24.2,0"/>
	<path class="st4" d="M-465.9-249.9c0,0,13.8,3.5,31.8,0"/>
	<path class="st4" d="M-473-281.7c0,0-5.3,13.7-5.3,26.7"/>
	<path class="st4" d="M-489.1-202.7c0,0-5.7,23.2-3.5,34.3"/>
	<path class="st4" d="M-523.3-168.9c0,0,10.9,3.4,21.9,2.6"/>
	<line class="st4" x1="-449.7" y1="-188.6" x2="-449.7" y2="-166.2"/>
	<path class="st4" d="M-486-163.5c0,0,18,3.6,32.9,2.5"/>
	<path class="st4" d="M-400.4-291.7c0,0-10.2,2.2-21.4,3.3"/>
	<path class="st4" d="M-383.8-257.1c0,0-12,4.7-27.2,4.2"/>
	<path class="st4" d="M-369.8-213.8c0,0-18.4,7-30.6,5.2"/>
	<path class="st4" d="M-427-281.7c0,0,5.3,13.7,5.3,26.7"/>
	<path class="st4" d="M-411.1-202.7c0,0,5.7,23.2,3.5,34.3"/>
	<path class="st4" d="M-376.9-168.9c0,0-10.9,3.4-21.9,2.6"/>
	<path class="st4" d="M-414.2-163.5c0,0-18,3.6-32.9,2.5"/>
</g>
<path class="st5" d="M-545.6-160.8c0,0,15,44.3,65,53.7"/>
<path class="st6" d="M-831.4-237.5c10-31.4,48.7-57.8,74.9-67.2s85.5,7.1,97.3,46.8c11.8,39.7,32.9,66.4,21,92.5
	c-11.8,26.1-76.2,83.9-143.3,39.2S-844.5-196.4-831.4-237.5z"/>
<path class="st7" d="M-516.9,537.4c15.1-47.3,73.4-87.2,113-101.4c39.6-14.2,128.9,10.7,146.7,70.6s49.6,100.1,31.7,139.5
	c-17.8,39.4-115,126.6-216.1,59.2S-536.7,599.4-516.9,537.4z"/>
<ellipse class="st2" cx="-765.3" cy="-217.1" rx="5.3" ry="8.6"/>
<ellipse class="st2" cx="-708.5" cy="-217.1" rx="5.3" ry="8.6"/>
<path class="st3" d="M-722.1-204.9c-2-1.9-26.7-2.6-29.3,0s-3.3,23.7,14.7,23.7C-718.8-181.3-720.1-203.1-722.1-204.9z"/>
<circle class="st8" cx="-773.8" cy="-259.6" r="2.6"/>
<circle class="st8" cx="-804.4" cy="-229" r="2.6"/>
<circle class="st8" cx="-674.8" cy="-157.2" r="2.6"/>
<path class="st9" d="M-67.4-207.5c-3.8-31.6-20-51.4-36.4-61.6c-21-13-42.1-17.9-62.6-17.2c-20.5-0.7-41.6,4.2-62.6,17.2
	c-16.4,10.2-32.6,30-36.4,61.6c-3.1,25.9,8.4,53.8,31,69.6c17.5,12.3,42.8,19,68,20.4c25.2-1.3,50.5-8.1,68-20.4
	C-75.8-153.8-64.3-181.7-67.4-207.5z"/>
<ellipse class="st2" cx="-194.7" cy="-206.9" rx="5.3" ry="8.6"/>
<ellipse class="st2" cx="-138" cy="-206.9" rx="5.3" ry="8.6"/>
<path class="st10" d="M-181.2-184.5c0,0,13.9,11.5,33.7,0.9"/>
<path class="st11" d="M-114.5-275.4c-1.8-10.3-32.3-14.7-32.3-14.7c-3.4-0.8-8.2-1.1-13.1-1.2c1.9-10.6,1.7-18.2-0.5-20.4
	c-0.9-0.9-12.3-1.2-12.7,0.5c-1.9,6.5-0.7,14.6,0.6,20c-3.5,0.1-6.8,0.5-9.4,1.1c0,0-30.5,4.3-32.3,14.7
	c-2.1,11.8,21.9,9.1,21.9,9.1s6.4,10.1,27.6,4.9c0.1,0,0.2,0,0.3,0c0.1,0,0.2,0,0.3,0c21.3,5.2,27.6-4.9,27.6-4.9
	S-112.5-263.7-114.5-275.4z"/>
<path class="st12" d="M719.3,183.7c0,0,14.6-36.8-15.7-69c0,0,6.3-36.4-31.8-53.6c0,0-3.7-36.5-48.2-36.5c0,0-6.7-20.4-38.4-21.8
	c-31.7,1.4-38.4,21.8-38.4,21.8c-44.5,0-48.2,36.5-48.2,36.5c-38.1,17.2-31.8,53.6-31.8,53.6c-30.3,32.2-15.7,69-15.7,69
	c-27.6,35.7,1.8,68.4,1.8,68.4c-22.2,48.7,26,63.8,26,63.8h106.3h106.3c0,0,48.3-15.1,26-63.8C717.5,252.1,746.9,219.5,719.3,183.7z
	"/>
<path class="st13" d="M599.8,376.1c-47.4,14-140.7-3.3-175-76.6c-26.6-57.2-17.9-117.3-7.2-126.5c7.7-6.7,15.5,35.8,41.7,67.1
	c20.9,24.9,53.9,43.4,88.3,48.2c45.4,6.2,62.7,14.6,74.8,26.3C637,328.7,640.7,364,599.8,376.1z"/>
<path class="st13" d="M575.3,379.3c47.4,14,140.7-3.3,175-76.6c26.6-57.2,17.9-117.3,7.2-126.5c-7.7-6.7-15.5,35.8-41.7,67.1
	c-20.9,24.9-53.9,43.4-88.3,48.2c-45.4,6.2-62.7,14.6-74.8,26.3C538.1,331.9,534.4,367.2,575.3,379.3z"/>
<ellipse class="st14" cx="546" cy="152.3" rx="8" ry="13"/>
<ellipse class="st14" cx="631.5" cy="152.3" rx="8" ry="13"/>
<path class="st15" d="M611.1,170.8c-3-2.9-40.2-3.9-44.2,0s-5,35.7,22.1,35.7S614,173.6,611.1,170.8z"/>
<g>
	<path class="st16" d="M513.7,64.5c0,0,15.4,3.3,32.3,5"/>
	<path class="st16" d="M488.7,116.6c0,0,18.1,7.1,41.1,6.3"/>
	<path class="st16" d="M467.6,181.9c0,0,27.8,10.6,46.1,7.8"/>
	<path class="st16" d="M571,71.2c0,0,24.8,3.3,36.5,0"/>
	<path class="st16" d="M564.8,127.5c0,0,20.8,5.3,48,0"/>
	<path class="st16" d="M554,79.5c0,0-8,20.7-8,40.2"/>
	<path class="st16" d="M529.8,198.7c0,0-8.6,35-5.3,51.7"/>
	<path class="st16" d="M478.2,249.7c0,0,16.5,5.2,33,3.9"/>
	<line class="st16" x1="589.2" y1="219.9" x2="589.2" y2="253.8"/>
	<path class="st16" d="M534.5,257.8c0,0,27.1,5.4,49.6,3.8"/>
	<path class="st16" d="M663.6,64.5c0,0-15.4,3.3-32.3,5"/>
	<path class="st16" d="M688.6,116.6c0,0-18.1,7.1-41.1,6.3"/>
	<path class="st16" d="M709.8,181.9c0,0-27.8,10.6-46.1,7.8"/>
	<path class="st16" d="M623.4,79.5c0,0,8,20.7,8,40.2"/>
	<path class="st16" d="M647.5,198.7c0,0,8.6,35,5.3,51.7"/>
	<path class="st16" d="M699.1,249.7c0,0-16.5,5.2-33,3.9"/>
	<path class="st16" d="M642.8,257.8c0,0-27.1,5.4-49.6,3.8"/>
</g>
<path class="st17" d="M444.5,261.9c0,0,22.7,66.8,98,81"/>
<path class="st17" d="M550,354.5c0,0,138.7,18.8,191-100.7"/>
<path class="st18" d="M13.5,146.2C28.6,98.9,86.9,59,126.5,44.8s128.9,10.7,146.7,70.6s49.6,100.1,31.7,139.5
	c-17.8,39.4-115,126.6-216.1,59.2S-6.3,208.2,13.5,146.2z"/>
<ellipse class="st14" cx="113.2" cy="176.9" rx="8" ry="13"/>
<ellipse class="st14" cx="198.8" cy="176.9" rx="8" ry="13"/>
<path class="st15" d="M178.3,195.3c-3-2.9-40.2-3.9-44.2,0s-5,35.7,22.1,35.7S181.3,198.1,178.3,195.3z"/>
<circle class="st8" cx="89.7" cy="115.6" r="3.4"/>
<circle class="st8" cx="49.5" cy="155.8" r="3.4"/>
<circle class="st8" cx="242.9" cy="256.7" r="3.4"/>
<path class="st19" d="M1165.9,191.4c-5.7-47.6-30.1-77.5-54.9-92.9c-31.7-19.6-63.5-27-94.4-26c-30.9-1-62.8,6.4-94.4,26
	c-24.8,15.4-49.2,45.2-54.9,92.9c-4.7,39,12.7,81.1,46.8,105c26.4,18.5,64.5,28.7,102.6,30.7c38-2,76.2-12.2,102.6-30.7
	C1153.2,272.5,1170.6,230.4,1165.9,191.4z"/>
<ellipse class="st14" cx="973.8" cy="192.3" rx="8" ry="13"/>
<ellipse class="st14" cx="1059.4" cy="192.3" rx="8" ry="13"/>
<path class="st19" d="M994.2,226.1c0,0,20.9,17.4,50.8,1.3"/>
<path class="st20" d="M1094.8,89c-2.7-15.5-48.7-22.1-48.7-22.1c-5.2-1.2-12.4-1.7-19.8-1.8c2.8-16,2.6-27.4-0.7-30.8
	c-1.3-1.4-18.5-1.8-19.2,0.7c-2.9,9.8-1,22,0.9,30.2c-5.3,0.2-10.3,0.7-14.2,1.6c0,0-46,6.5-48.7,22.1c-3.1,17.8,33,13.7,33,13.7
	s9.7,15.2,41.7,7.4c0.2,0,0.3,0,0.4,0c0.2,0,0.3,0,0.4,0c32.1,7.8,41.7-7.4,41.7-7.4S1097.9,106.7,1094.8,89z"/>
<image style="overflow:visible;" width="500" height="330" xlink:href="227BD2A0.jpg"  transform="matrix(1.4893 0 0 1.4893 1211.4257 -87.3867)">
</image>
<path class="st1" d="M-458.9-83c31.4,9.3,93.3-2.2,116-50.8c17.6-37.9,11.9-77.8,4.8-83.9c-5.1-4.4-10.3,23.7-27.6,44.5
	c-13.9,16.5-35.7,28.8-58.5,32c-30.1,4.1-41.6,9.7-49.6,17.4C-483.6-114.4-486-91-458.9-83z"/>
<path class="st5" d="M-474.1-100.2c0,0,90.4,13.3,125-65.9"/>
<path class="st21" d="M719.3-487.7c0,0,14.6-36.8-15.7-69c0,0,6.3-36.4-31.8-53.6c0,0-3.7-36.5-48.2-36.5c0,0-6.7-20.4-38.4-21.8
	c-31.7,1.4-38.4,21.8-38.4,21.8c-44.5,0-48.2,36.5-48.2,36.5c-38.1,17.2-31.8,53.6-31.8,53.6c-30.3,32.2-15.7,69-15.7,69
	c-27.6,35.7,1.8,68.4,1.8,68.4c-22.2,48.7,26,63.8,26,63.8h106.3h106.3c0,0,48.3-15.1,26-63.8C717.5-419.3,746.9-451.9,719.3-487.7z
	"/>
<path class="st22" d="M599.8-295.3c-47.4,14-140.7-3.3-175-76.6c-26.6-57.2-17.9-117.3-7.2-126.5c7.7-6.7,15.5,35.8,41.7,67.1
	c20.9,24.9,53.9,43.4,88.3,48.2c45.4,6.2,62.7,14.6,74.8,26.3C637-342.7,640.7-307.4,599.8-295.3z"/>
<ellipse class="st23" cx="546" cy="-519.1" rx="8" ry="13"/>
<ellipse class="st23" cx="631.5" cy="-519.1" rx="8" ry="13"/>
<path class="st3" d="M611.1-500.6c-3-2.9-40.2-3.9-44.2,0s-5,35.7,22.1,35.7S614-497.8,611.1-500.6z"/>
<g>
	<path class="st24" d="M513.7-606.9c0,0,15.4,3.3,32.3,5"/>
	<path class="st24" d="M488.7-554.8c0,0,18.1,7.1,41.1,6.3"/>
	<path class="st24" d="M467.6-489.5c0,0,27.8,10.6,46.1,7.8"/>
	<path class="st24" d="M571-600.2c0,0,24.8,3.3,36.5,0"/>
	<path class="st24" d="M564.8-543.9c0,0,20.8,5.3,48,0"/>
	<path class="st24" d="M554-591.9c0,0-8,20.7-8,40.2"/>
	<path class="st24" d="M529.8-472.7c0,0-8.6,35-5.3,51.7"/>
	<path class="st24" d="M478.2-421.7c0,0,16.5,5.2,33,3.9"/>
	<line class="st24" x1="589.2" y1="-451.5" x2="589.2" y2="-417.6"/>
	<path class="st24" d="M534.5-413.6c0,0,27.1,5.4,49.6,3.8"/>
	<path class="st24" d="M663.6-606.9c0,0-15.4,3.3-32.3,5"/>
	<path class="st24" d="M688.6-554.8c0,0-18.1,7.1-41.1,6.3"/>
	<path class="st24" d="M709.8-489.5c0,0-27.8,10.6-46.1,7.8"/>
	<path class="st24" d="M623.4-591.9c0,0,8,20.7,8,40.2"/>
	<path class="st24" d="M647.5-472.7c0,0,8.6,35,5.3,51.7"/>
	<path class="st24" d="M699.1-421.7c0,0-16.5,5.2-33,3.9"/>
	<path class="st24" d="M642.8-413.6c0,0-27.1,5.4-49.6,3.8"/>
</g>
<path class="st25" d="M444.5-409.5c0,0,22.7,66.8,98,81"/>
<path class="st26" d="M13.5-525.2c15.1-47.3,73.4-87.2,113-101.4s128.9,10.7,146.7,70.6s49.6,100.1,31.7,139.5
	c-17.8,39.4-115,126.6-216.1,59.2S-6.3-463.2,13.5-525.2z"/>
<ellipse class="st23" cx="113.2" cy="-494.5" rx="8" ry="13"/>
<ellipse class="st23" cx="198.8" cy="-494.5" rx="8" ry="13"/>
<path class="st3" d="M178.3-476.1c-3-2.9-40.2-3.9-44.2,0s-5,35.7,22.1,35.7S181.3-473.3,178.3-476.1z"/>
<circle class="st8" cx="100.4" cy="-558.6" r="3.9"/>
<circle class="st8" cx="54.1" cy="-512.4" r="3.9"/>
<circle class="st8" cx="249.6" cy="-404.1" r="3.9"/>
<path class="st27" d="M1165.9-480c-5.7-47.6-30.1-77.5-54.9-92.9c-31.7-19.6-63.5-27-94.4-26c-30.9-1-62.8,6.4-94.4,26
	c-24.8,15.4-49.2,45.2-54.9,92.9c-4.7,39,12.7,81.1,46.8,105c26.4,18.5,64.5,28.7,102.6,30.7c38-2,76.2-12.2,102.6-30.7
	C1153.2-398.9,1170.6-441,1165.9-480z"/>
<ellipse class="st23" cx="973.8" cy="-479.1" rx="8" ry="13"/>
<ellipse class="st23" cx="1059.4" cy="-479.1" rx="8" ry="13"/>
<path class="st28" d="M994.2-445.3c0,0,20.9,17.4,50.8,1.3"/>
<path class="st29" d="M1094.8-582.4c-2.7-15.5-48.7-22.1-48.7-22.1c-5.2-1.2-12.4-1.7-19.8-1.8c2.8-16,2.6-27.4-0.7-30.8
	c-1.3-1.4-18.5-1.8-19.2,0.7c-2.9,9.8-1,22,0.9,30.2c-5.3,0.2-10.3,0.7-14.2,1.6c0,0-46,6.5-48.7,22.1c-3.1,17.8,33,13.7,33,13.7
	s9.7,15.2,41.7,7.4c0.2,0,0.3,0,0.4,0c0.2,0,0.3,0,0.4,0c32.1,7.8,41.7-7.4,41.7-7.4S1097.9-564.7,1094.8-582.4z"/>
<path class="st22" d="M575.3-292.1c47.4,14,140.7-3.3,175-76.6c26.6-57.2,17.9-117.3,7.2-126.5c-7.7-6.7-15.5,35.8-41.7,67.1
	c-20.9,24.9-53.9,43.4-88.3,48.2c-45.4,6.2-62.7,14.6-74.8,26.3C538.1-339.5,534.4-304.2,575.3-292.1z"/>
<path class="st25" d="M552.4-318.2c0,0,136.3,20.1,188.6-99.4"/>
</svg>
